STARTFONT 2.1
FONT -HP-Pilgi-Bold-R-Normal--24-240-75-75-C-240-KSC5601.1987-1
SIZE 24 75 75
FONTBOUNDINGBOX 24 24 0 -2

STARTPROPERTIES 23
FONTNAME_REGISTRY ""
FOUNDRY "HP"
FAMILY_NAME "Pilgi"
WEIGHT_NAME "Bold"
SLANT "R"
SETWIDTH_NAME "Normal"
ADD_STYLE_NAME ""
PIXEL_SIZE 24
POINT_SIZE 240
RESOLUTION_X 75
RESOLUTION_Y 75
SPACING "C"
AVERAGE_WIDTH 240
CHARSET_REGISTRY "KSC5601.1987"
CHARSET_ENCODING "1"
COPYRIGHT "Copyright (c) 1994 Samsung Hewlett-Packard Company."
WEIGHT 24020
X_HEIGHT 22
QUAD_WIDTH 24
_HP_ASXVERSION "@(#) ASX 3.00 $Revision: 13.9 $ pilB24h"
DEFAULT_CHAR 41702
FONT_DESCENT 2
FONT_ASCENT 22
ENDPROPERTIES

CHARS 8225

STARTCHAR kor_A1A1
ENCODING 41377
SWIDTH 903 0
DWIDTH 24 0
BBX 24 24 0 -2
BITMAP
000000
000000
000000
000000
000000
000000
000000
000000
000000
000000
000000
000000
000000
000000
000000
000000
000000
000000
000000
000000
000000
000000
000000
000000
ENDCHAR

STARTCHAR kor_A1A2
ENCODING 41378
SWIDTH 903 0
DWIDTH 24 0
BBX 24 24 0 -2
BITMAP
00001C
00001E
00000F
00000F
000007
000007
000000
000000
000000
000000
000000
000000
000000
000000
000000
000000
000000
000000
000000
000000
000000
000000
000000
000000
ENDCHAR

STARTCHAR kor_A1A3
ENCODING 41379
SWIDTH 903 0
DWIDTH 24 0
BBX 24 24 0 -2
BITMAP
000038
00007C
0000EE
0000C6
0000EE
00007C
000038
000000
000000
000000
000000
000000
000000
000000
000000
000000
000000
000000
000000
000000
000000
000000
000000
000000
ENDCHAR

STARTCHAR kor_A1A4
ENCODING 41380
SWIDTH 903 0
DWIDTH 24 0
BBX 24 24 0 -2
BITMAP
000000
000000
000000
000000
000000
000000
000000
000000
000000
001C00
003E00
003E00
003E00
001C00
000000
000000
000000
000000
000000
000000
000000
000000
000000
000000
ENDCHAR

STARTCHAR kor_A1A5
ENCODING 41381
SWIDTH 903 0
DWIDTH 24 0
BBX 24 24 0 -2
BITMAP
000000
000000
000000
000000
000000
000000
000000
000000
000000
01C0E0
03E1F0
03E1F0
03E1F0
01C0E0
000000
000000
000000
000000
000000
000000
000000
000000
000000
000000
ENDCHAR

STARTCHAR kor_A1A6
ENCODING 41382
SWIDTH 903 0
DWIDTH 24 0
BBX 24 24 0 -2
BITMAP
000000
000000
000000
000000
000000
000000
000000
000000
000000
1C1C1C
3E3E3E
3E3E3E
3E3E3E
1C1C1C
000000
000000
000000
000000
000000
000000
000000
000000
000000
000000
ENDCHAR

STARTCHAR kor_A1A7
ENCODING 41383
SWIDTH 903 0
DWIDTH 24 0
BBX 24 24 0 -2
BITMAP
03C1E0
03C1E0
03C1E0
03C1E0
000000
000000
000000
000000
000000
000000
000000
000000
000000
000000
000000
000000
000000
000000
000000
000000
000000
000000
000000
000000
ENDCHAR

STARTCHAR kor_A1A8
ENCODING 41384
SWIDTH 903 0
DWIDTH 24 0
BBX 24 24 0 -2
BITMAP
000000
000000
000000
000000
000000
000000
000000
000000
01EF00
01EF00
03DE00
039C00
073800
063000
000000
000000
000000
000000
000000
000000
000000
000000
000000
000000
ENDCHAR

STARTCHAR kor_A1A9
ENCODING 41385
SWIDTH 903 0
DWIDTH 24 0
BBX 24 24 0 -2
BITMAP
000000
000000
000000
000000
000000
000000
000000
000000
000000
000000
00FF80
00FF80
00FF80
000000
000000
000000
000000
000000
000000
000000
000000
000000
000000
000000
ENDCHAR

STARTCHAR kor_A1AA
ENCODING 41386
SWIDTH 903 0
DWIDTH 24 0
BBX 24 24 0 -2
BITMAP
000000
000000
000000
000000
000000
000000
000000
000000
000000
000000
7FFFFF
7FFFFF
7FFFFF
000000
000000
000000
000000
000000
000000
000000
000000
000000
000000
000000
ENDCHAR

STARTCHAR kor_A1AB
ENCODING 41387
SWIDTH 903 0
DWIDTH 24 0
BBX 24 24 0 -2
BITMAP
007700
007700
007700
007700
007700
007700
007700
007700
007700
007700
007700
007700
007700
007700
007700
007700
007700
007700
007700
007700
007700
007700
007700
000000
ENDCHAR

STARTCHAR kor_A1AC
ENCODING 41388
SWIDTH 903 0
DWIDTH 24 0
BBX 24 24 0 -2
BITMAP
700000
780000
3C0000
1E0000
0F0000
078000
03C000
01E000
00F000
007800
003C00
001E00
000F00
000780
0003C0
0001E0
0000F0
000078
00003C
00001E
00000F
000007
000000
000000
ENDCHAR

STARTCHAR kor_A1AD
ENCODING 41389
SWIDTH 903 0
DWIDTH 24 0
BBX 24 24 0 -2
BITMAP
000000
000000
000000
000000
000000
000000
000000
000000
0F8000
3FF000
79FC00
607F03
001FCF
0007FE
0000F8
000000
000000
000000
000000
000000
000000
000000
000000
000000
ENDCHAR

STARTCHAR kor_A1AE
ENCODING 41390
SWIDTH 903 0
DWIDTH 24 0
BBX 24 24 0 -2
BITMAP
000018
000038
000070
000070
000078
000078
000078
000000
000000
000000
000000
000000
000000
000000
000000
000000
000000
000000
000000
000000
000000
000000
000000
000000
ENDCHAR

STARTCHAR kor_A1AF
ENCODING 41391
SWIDTH 903 0
DWIDTH 24 0
BBX 24 24 0 -2
BITMAP
0F0000
0F0000
0F0000
070000
070000
0E0000
0C0000
000000
000000
000000
000000
000000
000000
000000
000000
000000
000000
000000
000000
000000
000000
000000
000000
000000
ENDCHAR

STARTCHAR kor_A1B0
ENCODING 41392
SWIDTH 903 0
DWIDTH 24 0
BBX 24 24 0 -2
BITMAP
000318
000738
000E70
000E70
000F78
000F78
000F78
000000
000000
000000
000000
000000
000000
000000
000000
000000
000000
000000
000000
000000
000000
000000
000000
000000
ENDCHAR

STARTCHAR kor_A1B1
ENCODING 41393
SWIDTH 903 0
DWIDTH 24 0
BBX 24 24 0 -2
BITMAP
0F7800
0F7800
0F7800
073800
073800
0E7000
0C6000
000000
000000
000000
000000
000000
000000
000000
000000
000000
000000
000000
000000
000000
000000
000000
000000
000000
ENDCHAR

STARTCHAR kor_A1B2
ENCODING 41394
SWIDTH 903 0
DWIDTH 24 0
BBX 24 24 0 -2
BITMAP
000038
0000F8
0003E0
000F80
000E00
000C00
000C00
000C00
000C00
000C00
000C00
000C00
000C00
000C00
000C00
000C00
000C00
000C00
000E00
000F80
0003E0
0000F8
000038
000000
ENDCHAR

STARTCHAR kor_A1B3
ENCODING 41395
SWIDTH 903 0
DWIDTH 24 0
BBX 24 24 0 -2
BITMAP
0E0000
0F8000
03E000
00F800
003800
001800
001800
001800
001800
001800
001800
001800
001800
001800
001800
001800
001800
001800
003800
00F800
03E000
0F8000
0E0000
000000
ENDCHAR

STARTCHAR kor_A1B4
ENCODING 41396
SWIDTH 903 0
DWIDTH 24 0
BBX 24 24 0 -2
BITMAP
000000
000003
000007
00000F
00001E
00003C
000078
0000F0
0001E0
0003C0
000780
000700
0003C0
0001E0
0000F0
000078
00003C
00001E
00000F
000007
000003
000000
000000
000000
ENDCHAR

STARTCHAR kor_A1B5
ENCODING 41397
SWIDTH 903 0
DWIDTH 24 0
BBX 24 24 0 -2
BITMAP
000000
600000
700000
780000
3C0000
1E0000
0F0000
078000
03C000
01E000
00F000
007000
01E000
03C000
078000
0F0000
1E0000
3C0000
780000
700000
600000
000000
000000
000000
ENDCHAR

STARTCHAR kor_A1B6
ENCODING 41398
SWIDTH 903 0
DWIDTH 24 0
BBX 24 24 0 -2
BITMAP
0000E7
0000E7
0001EF
0001CE
0003DE
00039C
0007BC
000738
000F78
000E70
001EF0
001CE0
001EF0
000E70
000F78
000738
0007BC
00039C
0003DE
0001CE
0001EF
0000E7
0000E7
000000
ENDCHAR

STARTCHAR kor_A1B7
ENCODING 41399
SWIDTH 903 0
DWIDTH 24 0
BBX 24 24 0 -2
BITMAP
738000
738000
7BC000
39C000
3DE000
1CE000
1EF000
0E7000
0F7800
073800
07BC00
039C00
07BC00
073800
0F7800
0E7000
1EF000
1CE000
3DE000
39C000
7BC000
738000
738000
000000
ENDCHAR

STARTCHAR kor_A1B8
ENCODING 41400
SWIDTH 903 0
DWIDTH 24 0
BBX 24 24 0 -2
BITMAP
0000FF
0000FF
0000C0
0000C0
0000C0
0000C0
0000C0
0000C0
0000C0
0000C0
0000C0
0000C0
0000C0
0000C0
0000C0
0000C0
0000C0
0000C0
0000C0
000000
000000
000000
000000
000000
ENDCHAR

STARTCHAR kor_A1B9
ENCODING 41401
SWIDTH 903 0
DWIDTH 24 0
BBX 24 24 0 -2
BITMAP
000000
000000
000000
000000
018000
018000
018000
018000
018000
018000
018000
018000
018000
018000
018000
018000
018000
018000
018000
018000
018000
7F8000
7F8000
000000
ENDCHAR

STARTCHAR kor_A1BA
ENCODING 41402
SWIDTH 903 0
DWIDTH 24 0
BBX 24 24 0 -2
BITMAP
0000FF
0000FF
0000C3
0000BF
0000B0
0000B0
0000B0
0000B0
0000B0
0000B0
0000B0
0000B0
0000B0
0000B0
0000B0
0000B0
0000B0
0000B0
0000F0
0000F0
000000
000000
000000
000000
ENDCHAR

STARTCHAR kor_A1BB
ENCODING 41403
SWIDTH 903 0
DWIDTH 24 0
BBX 24 24 0 -2
BITMAP
000000
000000
000000
000000
078000
078000
058000
058000
058000
058000
058000
058000
058000
058000
058000
058000
058000
058000
058000
7D8000
7D8000
638000
7F8000
000000
ENDCHAR

STARTCHAR kor_A1BC
ENCODING 41404
SWIDTH 903 0
DWIDTH 24 0
BBX 24 24 0 -2
BITMAP
00007F
00007F
00007E
00007C
00007C
000078
000078
000070
000070
000070
000070
000070
000070
000070
000070
000070
000078
000078
00007C
00007C
00007E
00007F
00007F
000000
ENDCHAR

STARTCHAR kor_A1BD
ENCODING 41405
SWIDTH 903 0
DWIDTH 24 0
BBX 24 24 0 -2
BITMAP
7F0000
7F0000
3F0000
1F0000
1F0000
0F0000
0F0000
070000
070000
070000
070000
070000
070000
070000
070000
070000
0F0000
0F0000
1F0000
1F0000
3F0000
7F0000
7F0000
000000
ENDCHAR

STARTCHAR kor_A1BE
ENCODING 41406
SWIDTH 903 0
DWIDTH 24 0
BBX 24 24 0 -2
BITMAP
000000
000000
001800
001800
001800
001800
001800
001800
001800
1FFFF8
1FFFF8
001800
001800
001800
001800
001800
001800
001800
000000
1FFFF8
1FFFF8
000000
000000
000000
ENDCHAR

STARTCHAR kor_A1BF
ENCODING 41407
SWIDTH 903 0
DWIDTH 24 0
BBX 24 24 0 -2
BITMAP
000000
000000
000000
0C0018
0E0038
070070
0380E0
01C1C0
00E380
007700
003E00
001C00
003E00
007700
00E380
01C1C0
0380E0
070070
0E0038
0C0018
000000
000000
000000
000000
ENDCHAR

STARTCHAR kor_A1C0
ENCODING 41408
SWIDTH 903 0
DWIDTH 24 0
BBX 24 24 0 -2
BITMAP
000000
000000
000000
003C00
003C00
003C00
003C00
000000
000000
000000
1FFFFC
1FFFFC
000000
000000
000000
003C00
003C00
003C00
003C00
000000
000000
000000
000000
000000
ENDCHAR

STARTCHAR kor_A1C1
ENCODING 41409
SWIDTH 903 0
DWIDTH 24 0
BBX 24 24 0 -2
BITMAP
000000
000000
000000
000300
000300
000300
000700
000600
1FFFFC
1FFFFC
000C00
001C00
001800
1FFFFC
1FFFFC
003000
007000
006000
006000
006000
000000
000000
000000
000000
ENDCHAR

STARTCHAR kor_A1C2
ENCODING 41410
SWIDTH 903 0
DWIDTH 24 0
BBX 24 24 0 -2
BITMAP
000000
000070
0001F0
000FC0
003F00
01F800
07E000
1F0000
1C0000
07E000
01F800
003F00
000FC0
0001F0
000070
000000
000000
1FFFF8
1FFFF8
000000
000000
000000
000000
000000
ENDCHAR

STARTCHAR kor_A1C3
ENCODING 41411
SWIDTH 903 0
DWIDTH 24 0
BBX 24 24 0 -2
BITMAP
000000
0E0000
0F8000
03F000
00FC00
001F80
0007E0
0000F8
000038
0007E0
001F80
00FC00
03F000
0F8000
0E0000
000000
000000
1FFFFC
1FFFFC
000000
000000
000000
000000
000000
ENDCHAR

STARTCHAR kor_A1C4
ENCODING 41412
SWIDTH 903 0
DWIDTH 24 0
BBX 24 24 0 -2
BITMAP
000000
000000
000000
000000
000000
0780F0
1FE3FC
3DF7BE
38770E
703E07
703E07
601C03
703E07
703E07
38770E
3DF7BE
1FE3FC
0780F0
000000
000000
000000
000000
000000
000000
ENDCHAR

STARTCHAR kor_A1C5
ENCODING 41413
SWIDTH 903 0
DWIDTH 24 0
BBX 24 24 0 -2
BITMAP
000000
000000
000000
000000
000000
001C00
003E00
003E00
003E00
001C00
000000
000000
000000
000000
000000
070070
0F80F8
0F80F8
0F80F8
070070
000000
000000
000000
000000
ENDCHAR

STARTCHAR kor_A1C6
ENCODING 41414
SWIDTH 903 0
DWIDTH 24 0
BBX 24 24 0 -2
BITMAP
1E0000
3F0000
7F8000
738000
738000
7F8000
3F0000
1E0000
000000
000000
000000
000000
000000
000000
000000
000000
000000
000000
000000
000000
000000
000000
000000
000000
ENDCHAR

STARTCHAR kor_A1C7
ENCODING 41415
SWIDTH 903 0
DWIDTH 24 0
BBX 24 24 0 -2
BITMAP
000000
03C000
03C000
078000
070000
0E0000
0C0000
000000
000000
000000
000000
000000
000000
000000
000000
000000
000000
000000
000000
000000
000000
000000
000000
000000
ENDCHAR

STARTCHAR kor_A1C8
ENCODING 41416
SWIDTH 903 0
DWIDTH 24 0
BBX 24 24 0 -2
BITMAP
000000
1EF000
1EF000
3DE000
39C000
738000
630000
000000
000000
000000
000000
000000
000000
000000
000000
000000
000000
000000
000000
000000
000000
000000
000000
000000
ENDCHAR

STARTCHAR kor_A1C9
ENCODING 41417
SWIDTH 903 0
DWIDTH 24 0
BBX 24 24 0 -2
BITMAP
000000
000000
1C0780
3E1FEC
777CFC
63F03C
76E01C
3DC00C
1FC00C
038000
038000
038000
038000
038000
03C000
01C006
01E00E
00F01C
007878
003FF0
000FC0
000000
000000
000000
ENDCHAR

STARTCHAR kor_A1CA
ENCODING 41418
SWIDTH 903 0
DWIDTH 24 0
BBX 24 24 0 -2
BITMAP
001C00
003E00
007700
006300
007700
003E00
001C00
000000
001C00
003E00
003E00
006F00
006700
00E780
00C380
01C3C0
01BDC0
03FFE0
0300E0
0700F0
1E817C
1F81FC
000000
000000
ENDCHAR

STARTCHAR kor_A1CB
ENCODING 41419
SWIDTH 903 0
DWIDTH 24 0
BBX 24 24 0 -2
BITMAP
000000
000000
000000
000000
000000
000000
000180
000180
003F80
00FF40
01E3E0
01C6E0
03CEE0
038C00
039C00
039800
03B860
01B0E0
01F3C0
00EF80
007E00
00C000
00C000
000000
ENDCHAR

STARTCHAR kor_A1CC
ENCODING 41420
SWIDTH 903 0
DWIDTH 24 0
BBX 24 24 0 -2
BITMAP
000000
001F00
007FC0
00F1E0
01C0F0
01C0F0
01C0F0
01C0E0
01E000
00E000
1FFF00
1FFF00
00E000
007000
0F7000
1FF000
39F80C
307C3C
39EFF8
1FCFF0
0F03C0
000000
000000
000000
ENDCHAR

STARTCHAR kor_A1CD
ENCODING 41421
SWIDTH 903 0
DWIDTH 24 0
BBX 24 24 0 -2
BITMAP
000000
3FC0FE
3FC0FE
0F0038
078070
038060
03C0E0
3DFFDE
3FFFFE
00E180
007300
007700
3FBEFE
3FFFFE
001C00
001C00
001C00
001C00
001C00
007F00
007F00
000000
000000
000000
ENDCHAR

STARTCHAR kor_A1CE
ENCODING 41422
SWIDTH 903 0
DWIDTH 24 0
BBX 24 24 0 -2
BITMAP
000C00
001E00
003F00
006B80
00EDC0
01CCE0
038C70
070C38
0E0C1C
0C0C0C
001E00
007F80
00F3C0
00C0C0
01C0E0
018060
018060
01C0E0
00C0C0
00F3C0
007F80
001E00
000000
000000
ENDCHAR

STARTCHAR kor_A1CF
ENCODING 41423
SWIDTH 903 0
DWIDTH 24 0
BBX 24 24 0 -2
BITMAP
003C00
00FF00
01E780
018180
0381C0
0300C0
0300C0
0381C0
018180
01E780
00FF00
003C00
001800
0FFFF0
0FFFF0
001800
001800
001800
001800
001800
001800
001800
000000
000000
ENDCHAR

STARTCHAR kor_A1D0
ENCODING 41424
SWIDTH 903 0
DWIDTH 24 0
BBX 24 24 0 -2
BITMAP
000000
000000
000030
000070
0000E0
0001C0
000380
000700
000E00
001C00
003800
007000
00E000
01C000
038000
070000
0E0000
1C0000
3BFFFC
3FFFFC
000000
000000
000000
000000
ENDCHAR

STARTCHAR kor_A1D1
ENCODING 41425
SWIDTH 903 0
DWIDTH 24 0
BBX 24 24 0 -2
BITMAP
000000
000000
001800
001800
001800
001800
001800
001800
001800
001800
001800
001800
001800
001800
001800
001800
001800
001800
1FFFFC
1FFFFC
000000
000000
000000
000000
ENDCHAR

STARTCHAR kor_A1D2
ENCODING 41426
SWIDTH 903 0
DWIDTH 24 0
BBX 24 24 0 -2
BITMAP
03FFE0
1FFFFC
7FFFFF
78000F
000000
000000
000000
000000
000000
000000
000000
000000
000000
000000
000000
000000
000000
000000
000000
000000
000000
000000
000000
000000
ENDCHAR

STARTCHAR kor_A1D3
ENCODING 41427
SWIDTH 903 0
DWIDTH 24 0
BBX 24 24 0 -2
BITMAP
000000
000780
001FE0
003FE0
0078F0
006070
000030
000030
003E70
00FF70
01E360
03C1E0
0381E0
0781C0
0701C0
0703C0
070380
070780
038F00
03FE00
00F800
000000
000000
000000
ENDCHAR

STARTCHAR kor_A1D4
ENCODING 41428
SWIDTH 903 0
DWIDTH 24 0
BBX 24 24 0 -2
BITMAP
000000
3FFFFC
3FFFFC
1FFFF8
1C0018
0E0030
0F0070
070060
0780E0
0380C0
03C1C0
01C180
01E380
00E300
00F700
007600
007E00
003C00
003C00
001800
001800
000000
000000
000000
ENDCHAR

STARTCHAR kor_A1D5
ENCODING 41429
SWIDTH 903 0
DWIDTH 24 0
BBX 24 24 0 -2
BITMAP
000000
000000
000000
000000
000000
1FFFFC
1FFFFC
000000
000000
000000
1FFFFC
1FFFFC
000000
000000
000000
1FFFFC
1FFFFC
000000
000000
000000
000000
000000
000000
000000
ENDCHAR

STARTCHAR kor_A1D6
ENCODING 41430
SWIDTH 903 0
DWIDTH 24 0
BBX 24 24 0 -2
BITMAP
000000
000000
000000
078000
078000
078000
078000
000000
1FFFFC
1FFFFC
000000
000000
000000
1FFFFC
1FFFFC
000000
0000F0
0000F0
0000F0
0000F0
000000
000000
000000
000000
ENDCHAR

STARTCHAR kor_A1D7
ENCODING 41431
SWIDTH 903 0
DWIDTH 24 0
BBX 24 24 0 -2
BITMAP
000000
007F00
01FFC0
03C1E0
0380E0
03C0E0
01F000
00FE00
003F80
01EFC0
0383E0
0380E0
03E0E0
01FBC0
00FF80
003E00
0007C0
0381E0
0380E0
03C1E0
01FFC0
007F00
000000
000000
ENDCHAR

STARTCHAR kor_A1D8
ENCODING 41432
SWIDTH 903 0
DWIDTH 24 0
BBX 24 24 0 -2
BITMAP
000000
000000
181C0C
1C3E1C
0E3E38
073E70
039CE0
01C1C0
00E380
0E7738
1F3E7C
1F1C7C
1F3E7C
0E7738
00E380
01C1C0
039CE0
073E70
0E3E38
1C3E1C
181C0C
000000
000000
000000
ENDCHAR

STARTCHAR kor_A1D9
ENCODING 41433
SWIDTH 903 0
DWIDTH 24 0
BBX 24 24 0 -2
BITMAP
000000
000000
000000
000C00
001E00
001E00
001E00
003F00
003700
003700
1FF7FE
1FF3FE
0F003C
07C0F8
01E1E0
00E1C0
01FFC0
01DEE0
01B7E0
01F3E0
03C0F0
038070
000000
000000
ENDCHAR

STARTCHAR kor_A1DA
ENCODING 41434
SWIDTH 903 0
DWIDTH 24 0
BBX 24 24 0 -2
BITMAP
000000
000000
000000
001800
003C00
003C00
003C00
003E00
007E00
007E00
3FFFFC
3FFFFC
1FFFF8
07FFE0
01FFC0
00FF80
01FF80
01FF80
03E7C0
03C3C0
0781E0
0700E0
000000
000000
ENDCHAR

STARTCHAR kor_A1DB
ENCODING 41435
SWIDTH 903 0
DWIDTH 24 0
BBX 24 24 0 -2
BITMAP
000000
003F00
00FFC0
01FFE0
03E1F0
078078
0F003C
0E001C
1E001E
1C000E
1C000E
1C000E
1C000E
1C000E
1E001E
0E001C
0F003C
078078
03E1F0
01FFE0
00FFC0
003F00
000000
000000
ENDCHAR

STARTCHAR kor_A1DC
ENCODING 41436
SWIDTH 903 0
DWIDTH 24 0
BBX 24 24 0 -2
BITMAP
000000
003F00
00FFC0
01FFE0
03FFF0
07FFF8
0FFFFC
0FFFFC
1FFFFE
1FFFFE
1FFFFE
1FFFFE
1FFFFE
1FFFFE
1FFFFE
0FFFFC
0FFFFC
07FFF8
07FFF8
03FFF0
00FFC0
003F00
000000
000000
ENDCHAR

STARTCHAR kor_A1DD
ENCODING 41437
SWIDTH 903 0
DWIDTH 24 0
BBX 24 24 0 -2
BITMAP
007F00
01FFC0
07C1F0
0F0078
1C3E1C
18FF8C
39E3CE
3380E6
730067
670073
660033
660033
660033
670073
730067
3380E6
39E3CE
18FF8C
1C3E1C
0F0078
07C1F0
01FFC0
007F00
000000
ENDCHAR

STARTCHAR kor_A1DE
ENCODING 41438
SWIDTH 903 0
DWIDTH 24 0
BBX 24 24 0 -2
BITMAP
000000
000C00
001E00
003F00
007780
00F3C0
01E1E0
03C0F0
078078
0F003C
1E001E
1C000E
1E001E
0F003C
078078
03C0F0
01E1E0
00F3C0
007780
003F00
001E00
000C00
000000
000000
ENDCHAR

STARTCHAR kor_A1DF
ENCODING 41439
SWIDTH 903 0
DWIDTH 24 0
BBX 24 24 0 -2
BITMAP
000000
000C00
001E00
003F00
007F80
00FFC0
01FFE0
03FFF0
07FFF8
0FFFFC
1FFFFE
1FFFFE
1FFFFE
0FFFFC
07FFF8
03FFF0
01FFE0
00FFC0
007F80
003F00
001E00
000C00
000000
000000
ENDCHAR

STARTCHAR kor_A1E0
ENCODING 41440
SWIDTH 903 0
DWIDTH 24 0
BBX 24 24 0 -2
BITMAP
000000
000000
000000
0FFFF8
0FFFF8
0C0018
0C0018
0C0018
0C0018
0C0018
0C0018
0C0018
0C0018
0C0018
0C0018
0C0018
0C0018
0C0018
0FFFF8
0FFFF8
000000
000000
000000
000000
ENDCHAR

STARTCHAR kor_A1E1
ENCODING 41441
SWIDTH 903 0
DWIDTH 24 0
BBX 24 24 0 -2
BITMAP
000000
000000
000000
0FFFF8
0FFFF8
0FFFF8
0FFFF8
0FFFF8
0FFFF8
0FFFF8
0FFFF8
0FFFF8
0FFFF8
0FFFF8
0FFFF8
0FFFF8
0FFFF8
0FFFF8
0FFFF8
0FFFF8
000000
000000
000000
000000
ENDCHAR

STARTCHAR kor_A1E2
ENCODING 41442
SWIDTH 903 0
DWIDTH 24 0
BBX 24 24 0 -2
BITMAP
000000
000000
001800
003C00
002C00
006E00
006600
00E700
00C300
01C380
018180
0381C0
0300C0
0700E0
0E0070
0C0030
1C0038
180018
38001C
77FFEE
7FFFFE
000000
000000
000000
ENDCHAR

STARTCHAR kor_A1E3
ENCODING 41443
SWIDTH 903 0
DWIDTH 24 0
BBX 24 24 0 -2
BITMAP
000000
000000
001800
003C00
003C00
007E00
007E00
00FF00
00FF00
01FF80
01FF80
03FFC0
03FFC0
07FFE0
0FFFF0
0FFFF0
1FFFF8
1FFFF8
3FFFFC
7FFFFE
7FFFFE
000000
000000
000000
ENDCHAR

STARTCHAR kor_A1E4
ENCODING 41444
SWIDTH 903 0
DWIDTH 24 0
BBX 24 24 0 -2
BITMAP
000000
000000
7FFFFE
7FFFFE
30000C
180018
1C0038
0C0030
0E0070
0700E0
0300C0
0381C0
018180
01C380
00C300
00E700
006600
006E00
002C00
003C00
001800
000000
000000
000000
ENDCHAR

STARTCHAR kor_A1E5
ENCODING 41445
SWIDTH 903 0
DWIDTH 24 0
BBX 24 24 0 -2
BITMAP
000000
000000
7FFFFE
7FFFFE
3FFFFC
1FFFF8
1FFFF8
0FFFF0
0FFFF0
07FFE0
03FFC0
03FFC0
01FF80
01FF80
00FF00
00FF00
007E00
007E00
003C00
003C00
001800
000000
000000
000000
ENDCHAR

STARTCHAR kor_A1E6
ENCODING 41446
SWIDTH 903 0
DWIDTH 24 0
BBX 24 24 0 -2
BITMAP
000000
000000
000000
000000
000000
000000
0000C0
0000E0
000078
00003C
7FFFDF
7FFFFF
00001C
000078
0000E0
0000C0
000000
000000
000000
000000
000000
000000
000000
000000
ENDCHAR

STARTCHAR kor_A1E7
ENCODING 41447
SWIDTH 903 0
DWIDTH 24 0
BBX 24 24 0 -2
BITMAP
000000
000000
000000
000000
000000
000000
018000
038000
0F0000
1E0000
7DFFFF
7FFFFF
1C0000
0F0000
038000
018000
000000
000000
000000
000000
000000
000000
000000
000000
ENDCHAR

STARTCHAR kor_A1E8
ENCODING 41448
SWIDTH 903 0
DWIDTH 24 0
BBX 24 24 0 -2
BITMAP
001800
001800
003C00
007E00
007E00
00D700
01DB80
019980
001800
001800
001800
001800
001800
001800
001800
001800
001800
001800
001800
001800
001800
001800
001800
000000
ENDCHAR

STARTCHAR kor_A1E9
ENCODING 41449
SWIDTH 903 0
DWIDTH 24 0
BBX 24 24 0 -2
BITMAP
001800
001800
001800
001800
001800
001800
001800
001800
001800
001800
001800
001800
001800
001800
001800
019980
01DB80
00DF00
007600
007E00
003C00
001800
001800
000000
ENDCHAR

STARTCHAR kor_A1EA
ENCODING 41450
SWIDTH 903 0
DWIDTH 24 0
BBX 24 24 0 -2
BITMAP
000000
000000
000000
000000
000000
030060
070070
0E0038
1C001C
38000E
77FFF7
7FFFFF
300006
1C001C
0E0038
070070
030060
000000
000000
000000
000000
000000
000000
000000
ENDCHAR

STARTCHAR kor_A1EB
ENCODING 41451
SWIDTH 903 0
DWIDTH 24 0
BBX 24 24 0 -2
BITMAP
000000
000000
000000
000000
000000
1FFFFC
1FFFFC
1FFFFC
1FFFFC
1FFFFC
000000
000000
000000
1FFFFC
1FFFFC
1FFFFC
1FFFFC
1FFFFC
000000
000000
000000
000000
000000
000000
ENDCHAR

STARTCHAR kor_A1EC
ENCODING 41452
SWIDTH 903 0
DWIDTH 24 0
BBX 24 24 0 -2
BITMAP
000000
000000
000000
00060C
000E1C
003E7C
007CF8
01F3E0
03E7C0
0F9F00
1F3E00
1E3C00
0F9F00
03E7C0
01F3E0
007CF8
003E7C
000E1C
00060C
000000
000000
000000
000000
000000
ENDCHAR

STARTCHAR kor_A1ED
ENCODING 41453
SWIDTH 903 0
DWIDTH 24 0
BBX 24 24 0 -2
BITMAP
000000
000000
000000
183000
1C3800
1F3E00
0F9F00
03E7C0
01F3E0
007CF8
003E7C
001E3C
007CF8
01F3E0
03E7C0
0F9F00
1F3E00
1C3800
183000
000000
000000
000000
000000
000000
ENDCHAR

STARTCHAR kor_A1EE
ENCODING 41454
SWIDTH 903 0
DWIDTH 24 0
BBX 24 24 0 -2
BITMAP
0007FF
0007FF
000600
000E00
000C00
000C00
001C00
001800
001800
003800
003000
003000
0C7000
1C6000
3E6000
7EE000
6EC000
0EC000
07C000
078000
078000
030000
030000
000000
ENDCHAR

STARTCHAR kor_A1EF
ENCODING 41455
SWIDTH 903 0
DWIDTH 24 0
BBX 24 24 0 -2
BITMAP
000000
000000
000000
000000
000000
07C0F0
1FE3FC
3EE7BE
380F0E
700E07
701C07
601C03
703807
703807
38700E
3DF3BE
1FE3FC
0781F0
000000
000000
000000
000000
000000
000000
ENDCHAR

STARTCHAR kor_A1F0
ENCODING 41456
SWIDTH 903 0
DWIDTH 24 0
BBX 24 24 0 -2
BITMAP
000000
000000
000000
000000
000000
0780F8
1FE3FE
3DF7DE
387706
703E00
703E00
601C00
703E00
703E00
387706
3DF7DE
1FE3FE
0780F8
000000
000000
000000
000000
000000
000000
ENDCHAR

STARTCHAR kor_A1F1
ENCODING 41457
SWIDTH 903 0
DWIDTH 24 0
BBX 24 24 0 -2
BITMAP
000000
000000
000000
000000
0380E0
07C1F0
07C1F0
07C1F0
0380E0
000000
000000
000000
001C00
003E00
003E00
003E00
001C00
000000
000000
000000
000000
000000
000000
000000
ENDCHAR

STARTCHAR kor_A1F2
ENCODING 41458
SWIDTH 903 0
DWIDTH 24 0
BBX 24 24 0 -2
BITMAP
000E00
001F00
003F00
003700
003000
003000
003800
003800
003800
003C00
001C00
001C00
001C00
001E00
000E00
000E00
000E00
000600
000600
007600
007E00
007C00
003800
000000
ENDCHAR

STARTCHAR kor_A1F3
ENCODING 41459
SWIDTH 903 0
DWIDTH 24 0
BBX 24 24 0 -2
BITMAP
00E0E0
01F1F0
03F3F0
037370
030300
030300
038380
038380
038380
03C3C0
01C1C0
01C1C0
01C1C0
01E1E0
00E0E0
00E0E0
00E0E0
006060
006060
076760
07E7E0
07C7C0
038380
000000
ENDCHAR

STARTCHAR kor_A1F4
ENCODING 41460
SWIDTH 903 0
DWIDTH 24 0
BBX 24 24 0 -2
BITMAP
000000
000000
000000
000000
007FF0
01FFF0
03E000
038000
070000
070000
06FFF0
07FFF0
060000
070000
038000
03E000
01FFF0
007FF0
000000
000000
000000
000000
000000
000000
ENDCHAR

STARTCHAR kor_A1F5
ENCODING 41461
SWIDTH 903 0
DWIDTH 24 0
BBX 24 24 0 -2
BITMAP
000000
000000
000000
000000
07FF00
07FFC0
0003E0
0000E0
000070
000070
07FFB0
07FFF0
000030
000070
0000E0
0003E0
07FFC0
07FF00
000000
000000
000000
000000
000000
000000
ENDCHAR

STARTCHAR kor_A1F6
ENCODING 41462
SWIDTH 903 0
DWIDTH 24 0
BBX 24 24 0 -2
BITMAP
000000
000000
000000
01FFFC
07FFFC
0F8000
0E0000
1C0000
1C0000
180000
1C0000
1C0000
0E0000
0F8000
07FFFC
01FFFC
000000
000000
1FFFFC
1FFFFC
000000
000000
000000
000000
ENDCHAR

STARTCHAR kor_A1F7
ENCODING 41463
SWIDTH 903 0
DWIDTH 24 0
BBX 24 24 0 -2
BITMAP
000000
000000
000000
1FFFC0
1FFFF0
0000F8
000038
00001C
00001C
00000C
00001C
00001C
000038
0000F8
1FFFF0
1FFFC0
000000
000000
1FFFFC
1FFFFC
000000
000000
000000
000000
ENDCHAR

STARTCHAR kor_A1F8
ENCODING 41464
SWIDTH 903 0
DWIDTH 24 0
BBX 24 24 0 -2
BITMAP
000000
000000
000000
000000
00FFFC
03FFFC
07C000
0F0000
0E0000
1C0000
1C0000
180000
1C0000
1C0000
0E0000
0F0000
07C000
03FFFC
00FFFC
000000
000000
000000
000000
000000
ENDCHAR

STARTCHAR kor_A1F9
ENCODING 41465
SWIDTH 903 0
DWIDTH 24 0
BBX 24 24 0 -2
BITMAP
000000
000000
000000
000000
1FFF80
1FFFE0
0001F0
000078
000038
00001C
00001C
00000C
00001C
00001C
000038
000078
0001F0
1FFFE0
1FFF80
000000
000000
000000
000000
000000
ENDCHAR

STARTCHAR kor_A1FA
ENCODING 41466
SWIDTH 903 0
DWIDTH 24 0
BBX 24 24 0 -2
BITMAP
000000
000000
060030
060030
060030
060030
060030
060030
060030
060030
060030
060030
060030
060030
070070
070070
0380E0
03C1E0
01F7C0
00FF80
003E00
000000
000000
000000
ENDCHAR

STARTCHAR kor_A1FB
ENCODING 41467
SWIDTH 903 0
DWIDTH 24 0
BBX 24 24 0 -2
BITMAP
000000
000000
003E00
00FF80
01F7C0
03C1E0
0380E0
070070
070070
060030
060030
060030
060030
060030
060030
060030
060030
060030
060030
060030
060030
000000
000000
000000
ENDCHAR

STARTCHAR kor_A1FC
ENCODING 41468
SWIDTH 903 0
DWIDTH 24 0
BBX 24 24 0 -2
BITMAP
000000
000000
001800
001800
003C00
002C00
006E00
006600
00E700
00C300
01C380
018180
0381C0
0300C0
0700E0
060060
0E0070
0C0030
1C0038
180018
180018
000000
000000
000000
ENDCHAR

STARTCHAR kor_A1FD
ENCODING 41469
SWIDTH 903 0
DWIDTH 24 0
BBX 24 24 0 -2
BITMAP
000000
000000
180018
180018
1C0038
0C0030
0E0070
060060
0700E0
0300C0
0381C0
018180
01C380
00C300
00E700
006600
006E00
002C00
003C00
001800
001800
000000
000000
000000
ENDCHAR

STARTCHAR kor_A1FE
ENCODING 41470
SWIDTH 903 0
DWIDTH 24 0
BBX 24 24 0 -2
BITMAP
000000
000000
000000
000000
000000
000000
000000
000000
000000
1FFFFC
1FFFFC
00000C
00000C
00000C
00000C
00000C
00000C
000000
000000
000000
000000
000000
000000
000000
ENDCHAR

STARTCHAR kor_A2A1
ENCODING 41633
SWIDTH 903 0
DWIDTH 24 0
BBX 24 24 0 -2
BITMAP
000000
000000
000000
000180
0001C0
0000E0
000070
7FFFB8
7FFFFC
00000E
000007
000003
00000E
7FFFFC
7FFFF8
000030
0000E0
0001C0
000180
000000
000000
000000
000000
000000
ENDCHAR

STARTCHAR kor_A2A2
ENCODING 41634
SWIDTH 903 0
DWIDTH 24 0
BBX 24 24 0 -2
BITMAP
000000
000000
000000
000000
0180C0
0380E0
070070
0EFFB8
1FFFFC
38000E
700007
600003
38000E
1FFFFC
0FFFF8
060030
0380E0
0180C0
000000
000000
000000
000000
000000
000000
ENDCHAR

STARTCHAR kor_A2A3
ENCODING 41635
SWIDTH 903 0
DWIDTH 24 0
BBX 24 24 0 -2
BITMAP
000000
30000C
30000C
38001C
180018
1C0038
0C0030
0E0070
07FFE0
07FFE0
0300C0
0381C0
018180
01C380
00C300
00E700
006600
006E00
002C00
003C00
001800
001800
000000
000000
ENDCHAR

STARTCHAR kor_A2A4
ENCODING 41636
SWIDTH 903 0
DWIDTH 24 0
BBX 24 24 0 -2
BITMAP
000000
000000
07FFF0
07FFF0
000030
000030
000030
000030
000030
000030
07FFF0
07FFF0
000030
000030
000030
000030
000030
000030
07FFF0
07FFF0
000000
000000
000000
000000
ENDCHAR

STARTCHAR kor_A2A5
ENCODING 41637
SWIDTH 903 0
DWIDTH 24 0
BBX 24 24 0 -2
BITMAP
001F00
003E00
007800
006000
000000
000000
000000
000000
000000
000000
000000
000000
000000
000000
000000
000000
000000
000000
000000
000000
000000
000000
000000
000000
ENDCHAR

STARTCHAR kor_A2A6
ENCODING 41638
SWIDTH 903 0
DWIDTH 24 0
BBX 24 24 0 -2
BITMAP
01FFC0
03FF80
038F00
000000
000000
000000
000000
000000
000000
000000
000000
000000
000000
000000
000000
000000
000000
000000
000000
000000
000000
000000
000000
000000
ENDCHAR

STARTCHAR kor_A2A7
ENCODING 41639
SWIDTH 903 0
DWIDTH 24 0
BBX 24 24 0 -2
BITMAP
00EF00
007E00
003C00
001800
000000
000000
000000
000000
000000
000000
000000
000000
000000
000000
000000
000000
000000
000000
000000
000000
000000
000000
000000
000000
ENDCHAR

STARTCHAR kor_A2A8
ENCODING 41640
SWIDTH 903 0
DWIDTH 24 0
BBX 24 24 0 -2
BITMAP
00FF80
007F00
003E00
000000
000000
000000
000000
000000
000000
000000
000000
000000
000000
000000
000000
000000
000000
000000
000000
000000
000000
000000
000000
000000
ENDCHAR

STARTCHAR kor_A2A9
ENCODING 41641
SWIDTH 903 0
DWIDTH 24 0
BBX 24 24 0 -2
BITMAP
00FBE0
01F7C0
03CF00
030C00
000000
000000
000000
000000
000000
000000
000000
000000
000000
000000
000000
000000
000000
000000
000000
000000
000000
000000
000000
000000
ENDCHAR

STARTCHAR kor_A2AA
ENCODING 41642
SWIDTH 903 0
DWIDTH 24 0
BBX 24 24 0 -2
BITMAP
007E00
006600
007E00
003C00
000000
000000
000000
000000
000000
000000
000000
000000
000000
000000
000000
000000
000000
000000
000000
000000
000000
000000
000000
000000
ENDCHAR

STARTCHAR kor_A2AB
ENCODING 41643
SWIDTH 903 0
DWIDTH 24 0
BBX 24 24 0 -2
BITMAP
003C00
003C00
003C00
000000
000000
000000
000000
000000
000000
000000
000000
000000
000000
000000
000000
000000
000000
000000
000000
000000
000000
000000
000000
000000
ENDCHAR

STARTCHAR kor_A2AC
ENCODING 41644
SWIDTH 903 0
DWIDTH 24 0
BBX 24 24 0 -2
BITMAP
000000
000000
000000
000000
000000
000000
000000
000000
000000
000000
000000
000000
000000
000000
000000
000000
000000
000000
003000
003800
001C00
000C00
003800
003000
ENDCHAR

STARTCHAR kor_A2AD
ENCODING 41645
SWIDTH 903 0
DWIDTH 24 0
BBX 24 24 0 -2
BITMAP
000000
000000
000000
000000
000000
000000
000000
000000
000000
000000
000000
000000
000000
000000
000000
000000
000000
000000
000C00
001C00
003800
003000
001C00
000C00
ENDCHAR

STARTCHAR kor_A2AE
ENCODING 41646
SWIDTH 903 0
DWIDTH 24 0
BBX 24 24 0 -2
BITMAP
000000
003C00
003C00
003C00
003C00
000000
000000
001800
001800
001800
001800
003C00
003C00
003C00
003C00
003C00
003C00
003C00
003C00
003C00
001800
000000
000000
000000
ENDCHAR

STARTCHAR kor_A2AF
ENCODING 41647
SWIDTH 903 0
DWIDTH 24 0
BBX 24 24 0 -2
BITMAP
000000
003C00
003C00
003C00
003C00
000000
001800
001800
001800
003800
007000
00F000
01E000
03C000
03C0C0
0781E0
0781E0
07C3E0
03E7C0
01FF80
007E00
000000
000000
000000
ENDCHAR

STARTCHAR kor_A2B0
ENCODING 41648
SWIDTH 903 0
DWIDTH 24 0
BBX 24 24 0 -2
BITMAP
000000
000000
000000
000000
00FF00
00FF00
007E00
003C00
001800
000000
000000
000000
000000
000000
001800
003C00
007E00
00FF00
00FF00
000000
000000
000000
000000
000000
ENDCHAR

STARTCHAR kor_A2B1
ENCODING 41649
SWIDTH 903 0
DWIDTH 24 0
BBX 24 24 0 -2
BITMAP
000E00
001F00
003F00
003700
003000
003000
003800
003E00
007F00
00DB80
00DD80
00DD80
00DF80
007B00
003E00
000E00
000E00
000600
000600
007600
007E00
007C00
003800
000000
ENDCHAR

STARTCHAR kor_A2B2
ENCODING 41650
SWIDTH 903 0
DWIDTH 24 0
BBX 24 24 0 -2
BITMAP
000000
000000
07FFF0
07FFF0
038070
01E030
00E030
00F000
007800
003C00
001E00
000E00
001E00
003C00
007800
00F030
00E030
01E030
03C070
07BFF0
07FFF0
000000
000000
000000
ENDCHAR

STARTCHAR kor_A2B3
ENCODING 41651
SWIDTH 903 0
DWIDTH 24 0
BBX 24 24 0 -2
BITMAP
000000
000000
0FFFF8
0FFFF8
0FFFF8
01C1C0
01C1C0
01C1C0
01C1C0
01C1C0
01C1C0
01C1C0
01C1C0
01C1C0
01C1C0
01C1C0
01C1C0
01C1C0
01C1C0
01C1C0
000000
000000
000000
000000
ENDCHAR

STARTCHAR kor_A2B4
ENCODING 41652
SWIDTH 903 0
DWIDTH 24 0
BBX 24 24 0 -2
BITMAP
000000
000000
0E0038
0F0078
07BEF0
03FFE0
01FFC0
03C1E0
0380E0
0780F0
070070
070070
0780F0
0380E0
03C1E0
01FFC0
03FFE0
07BEF0
0F0078
0E0038
000000
000000
000000
000000
ENDCHAR

STARTCHAR kor_A2B5
ENCODING 41653
SWIDTH 903 0
DWIDTH 24 0
BBX 24 24 0 -2
BITMAP
000000
0E0000
1EFFFC
3BFFFC
31B81C
3BB80C
1F380C
0E380C
003860
003860
003FE0
003FE0
003860
003860
003800
003800
003800
003800
003800
00FE00
00FE00
000000
000000
000000
ENDCHAR

STARTCHAR kor_A2B6
ENCODING 41654
SWIDTH 903 0
DWIDTH 24 0
BBX 24 24 0 -2
BITMAP
000000
1E0600
3F0E00
738C00
739C00
739800
73B800
73F000
3F6000
1EE000
00C000
01FC3C
03BE7E
0366E7
06E6E7
06E6E7
0EE6E7
1CE6E7
187E7E
383C3C
300000
000000
000000
000000
ENDCHAR

STARTCHAR kor_A2B7
ENCODING 41655
SWIDTH 903 0
DWIDTH 24 0
BBX 24 24 0 -2
BITMAP
000000
000000
000018
000078
0001F8
0007D8
001F18
007C18
01F018
07C018
1F0018
1C0018
07C018
01F018
007C18
001F18
0007D8
0001F8
000078
000018
000000
000000
000000
000000
ENDCHAR

STARTCHAR kor_A2B8
ENCODING 41656
SWIDTH 903 0
DWIDTH 24 0
BBX 24 24 0 -2
BITMAP
000000
000000
000018
000078
0001F8
0007F8
001FF8
007FF8
01FFF8
07FFF8
1FFFF8
1FFFF8
07FFF8
01FFF8
007FF8
001FF8
0007F8
0001F8
000078
000018
000000
000000
000000
000000
ENDCHAR

STARTCHAR kor_A2B9
ENCODING 41657
SWIDTH 903 0
DWIDTH 24 0
BBX 24 24 0 -2
BITMAP
000000
000000
0C0000
0F0000
0FC000
0DF000
0C7C00
0C1F00
0C07C0
0C01F0
0C007C
0C001C
0C01F0
0C07C0
0C1F00
0C7C00
0DF000
0FC000
0F0000
0C0000
000000
000000
000000
000000
ENDCHAR

STARTCHAR kor_A2BA
ENCODING 41658
SWIDTH 903 0
DWIDTH 24 0
BBX 24 24 0 -2
BITMAP
000000
000000
0C0000
0F0000
0FC000
0FF000
0FFC00
0FFF00
0FFFC0
0FFFF0
0FFFFC
0FFFFC
0FFFF0
0FFFC0
0FFF00
0FFC00
0FF000
0FC000
0F0000
0C0000
000000
000000
000000
000000
ENDCHAR

STARTCHAR kor_A2BB
ENCODING 41659
SWIDTH 903 0
DWIDTH 24 0
BBX 24 24 0 -2
BITMAP
000000
001800
003C00
006E00
00E700
01C380
0381C0
0700E0
0E0070
0C0030
1C0038
180018
38001C
30000C
30180C
383C1C
1C7E38
1FD7F8
07DBE0
003C00
007E00
007E00
000000
000000
ENDCHAR

STARTCHAR kor_A2BC
ENCODING 41660
SWIDTH 903 0
DWIDTH 24 0
BBX 24 24 0 -2
BITMAP
000000
001800
003C00
007E00
00FF00
01FF80
03FFC0
07FFE0
0FFFF0
0FFFF0
1FFFF8
1FFFF8
3FFFFC
3FFFFC
3FFFFC
3FFFFC
1FFFF8
1FD7F8
07DBE0
003C00
007E00
007E00
000000
000000
ENDCHAR

STARTCHAR kor_A2BD
ENCODING 41661
SWIDTH 903 0
DWIDTH 24 0
BBX 24 24 0 -2
BITMAP
000000
07C3E0
1FE7F8
1C6E38
383C1C
30180C
30000C
30000C
30000C
38001C
180018
1C0038
0C0030
0E0070
0700E0
0381C0
01C380
00E700
006E00
003C00
001800
000000
000000
000000
ENDCHAR

STARTCHAR kor_A2BE
ENCODING 41662
SWIDTH 903 0
DWIDTH 24 0
BBX 24 24 0 -2
BITMAP
000000
07C3E0
1FE7F8
1FEFF8
3FFFFC
3FFFFC
3FFFFC
3FFFFC
3FFFFC
3FFFFC
1FFFF8
1FFFF8
0FFFF0
0FFFF0
07FFE0
03FFC0
01FF80
00FF00
007E00
003C00
001800
000000
000000
000000
ENDCHAR

STARTCHAR kor_A2BF
ENCODING 41663
SWIDTH 903 0
DWIDTH 24 0
BBX 24 24 0 -2
BITMAP
000000
003C00
00FF00
00E700
01C380
018180
018180
01C380
00C300
0FE7F0
3F66FC
39E59C
70E70E
600006
603C06
707E0E
39D79C
3FDBFC
0F18F0
003C00
007E00
007E00
000000
000000
ENDCHAR

STARTCHAR kor_A2C0
ENCODING 41664
SWIDTH 903 0
DWIDTH 24 0
BBX 24 24 0 -2
BITMAP
000000
003C00
00FF00
00FF00
01FF80
01FF80
01FF80
01FF80
00FF00
0FFFF0
3F7EFC
3FFDFC
7FFFFE
7FFFFE
7FFFFE
7FFFFE
3FD7FC
3FDBFC
0F18F0
003C00
007E00
007E00
000000
000000
ENDCHAR

STARTCHAR kor_A2C1
ENCODING 41665
SWIDTH 903 0
DWIDTH 24 0
BBX 24 24 0 -2
BITMAP
000000
007F00
01FFC0
07C1F0
0F0078
0C0018
1C001C
18000C
381C0E
303E06
307F06
307F06
307F06
303E06
381C0E
18000C
1C001C
0C0018
0F0078
07C1F0
01FFC0
007F00
000000
000000
ENDCHAR

STARTCHAR kor_A2C2
ENCODING 41666
SWIDTH 903 0
DWIDTH 24 0
BBX 24 24 0 -2
BITMAP
001800
003C00
006E00
00E700
01C380
0381C0
0718E0
0E3C70
1C7E38
38FF1C
71FF8E
61FF86
38FF1C
1C7E38
0E3C70
0718E0
0381C0
01C380
00E700
006E00
003C00
001800
000000
000000
ENDCHAR

STARTCHAR kor_A2C3
ENCODING 41667
SWIDTH 903 0
DWIDTH 24 0
BBX 24 24 0 -2
BITMAP
000000
3FFFFE
3FFFFE
300006
300006
300006
31FFC6
31FFC6
31FFC6
31FFC6
31FFC6
31FFC6
31FFC6
31FFC6
31FFC6
31FFC6
31FFC6
300006
300006
300006
3FFFFE
3FFFFE
000000
000000
ENDCHAR

STARTCHAR kor_A2C4
ENCODING 41668
SWIDTH 903 0
DWIDTH 24 0
BBX 24 24 0 -2
BITMAP
000000
007F00
01FFC0
07F9F0
0FF878
0FF818
1FF81C
1FF80C
3FF80E
3FF806
3FF806
3FF806
3FF806
3FF806
3FF80E
1FF80C
1FF81C
0FF818
0FF878
07F9F0
01FFC0
007F00
000000
000000
ENDCHAR

STARTCHAR kor_A2C5
ENCODING 41669
SWIDTH 903 0
DWIDTH 24 0
BBX 24 24 0 -2
BITMAP
000000
007F00
01FFC0
07CFF0
0F0FF8
0C0FF8
1C0FFC
180FFC
380FFE
300FFE
300FFE
300FFE
300FFE
300FFE
380FFE
180FFC
1C0FFC
0C0FF8
0F0FF8
07CFF0
01FFC0
007F00
000000
000000
ENDCHAR

STARTCHAR kor_A2C6
ENCODING 41670
SWIDTH 903 0
DWIDTH 24 0
BBX 24 24 0 -2
BITMAP
000000
3FFFFE
3FFFFE
300006
33CC36
30C186
361986
361836
30C336
30C306
3618C6
3618C6
30C306
30C306
330C36
330C36
306006
306306
360366
360066
39FF9E
3FFFFE
000000
000000
ENDCHAR

STARTCHAR kor_A2C7
ENCODING 41671
SWIDTH 903 0
DWIDTH 24 0
BBX 24 24 0 -2
BITMAP
7FFFFE
7FFFFE
600006
600006
600006
7FFFFE
7FFFFE
600006
600006
600006
7FFFFE
7FFFFE
600006
600006
600006
7FFFFE
7FFFFE
600006
600006
600006
7FFFFE
7FFFFE
000000
000000
ENDCHAR

STARTCHAR kor_A2C8
ENCODING 41672
SWIDTH 903 0
DWIDTH 24 0
BBX 24 24 0 -2
BITMAP
7FFFFE
7FFFFE
6318C6
6318C6
6318C6
6318C6
6318C6
6318C6
6318C6
6318C6
6318C6
6318C6
6318C6
6318C6
6318C6
6318C6
6318C6
6318C6
6318C6
6318C6
7FFFFE
7FFFFE
000000
000000
ENDCHAR

STARTCHAR kor_A2C9
ENCODING 41673
SWIDTH 903 0
DWIDTH 24 0
BBX 24 24 0 -2
BITMAP
000000
3FFFFE
3FFFFE
30180E
307036
30E076
31C0E6
3381C6
370386
3E0706
2C0E06
381C0E
30381E
307036
30E076
31C0E6
3381C6
370386
3E0706
2C0E06
3BFDFE
3FFFFE
000000
000000
ENDCHAR

STARTCHAR kor_A2CA
ENCODING 41674
SWIDTH 903 0
DWIDTH 24 0
BBX 24 24 0 -2
BITMAP
000000
3FFFFE
3FFFFE
380C06
2E0706
370386
3381C6
31C0E6
30E076
307036
30381E
381C0E
3C0E06
2E0706
370386
3381C6
31C0E6
30E076
307036
30381E
3FDFEE
3FFFFE
000000
000000
ENDCHAR

STARTCHAR kor_A2CB
ENCODING 41675
SWIDTH 903 0
DWIDTH 24 0
BBX 24 24 0 -2
BITMAP
7FFFFE
7FFFFE
6318C6
6318C6
6318C6
7FFFFE
7FFFFE
6318C6
6318C6
6318C6
7FFFFE
7FFFFE
6318C6
6318C6
6318C6
7FFFFE
7FFFFE
6318C6
6318C6
6318C6
7FFFFE
7FFFFE
000000
000000
ENDCHAR

STARTCHAR kor_A2CC
ENCODING 41676
SWIDTH 903 0
DWIDTH 24 0
BBX 24 24 0 -2
BITMAP
000000
3FFFFE
3FFFFE
381C0E
2E7736
36E376
33C1E6
3180C6
36E376
3E7736
2C3E1E
381C0E
3C3E1E
2E7736
36E376
33C1E6
3180C6
36E376
3E7736
2C3E1E
3BDDEE
3FFFFE
000000
000000
ENDCHAR

STARTCHAR kor_A2CD
ENCODING 41677
SWIDTH 903 0
DWIDTH 24 0
BBX 24 24 0 -2
BITMAP
000000
019980
03BB80
033300
077700
066600
066600
077700
033300
03BB80
019980
07DDE0
1ECCF8
3CCCBC
3DDDBC
39999C
39999C
3C003C
3F00FC
1FFFF8
0FFFF0
01FF80
000000
000000
ENDCHAR

STARTCHAR kor_A2CE
ENCODING 41678
SWIDTH 903 0
DWIDTH 24 0
BBX 24 24 0 -2
BITMAP
000000
000000
03FFC0
0FFFF0
1E0078
39FF9C
73FFCE
6300C6
7F00FE
7F3CFE
037EC0
07E7E0
0EC370
0CC330
0CE730
0C7E30
0C3C30
0C0030
0C0030
0FFFF0
07FFE0
000000
000000
000000
ENDCHAR

STARTCHAR kor_A2CF
ENCODING 41679
SWIDTH 903 0
DWIDTH 24 0
BBX 24 24 0 -2
BITMAP
000000
000000
03FFC0
0FFFF0
1FFFF8
3FFFFC
7F01FE
7DFF7E
7DFF7E
7FFFFE
03E7C0
07BBE0
0F7DF0
0F7DF0
0FFFF0
0FBBF0
0FE7F0
0FFFF0
0FFFF0
0FFFF0
07FFE0
000000
000000
000000
ENDCHAR

STARTCHAR kor_A2D0
ENCODING 41680
SWIDTH 903 0
DWIDTH 24 0
BBX 24 24 0 -2
BITMAP
000000
000000
000000
000000
000000
00003F
3FFFFF
7FFFEC
60002C
3FF82C
03002C
01F82C
03002C
01F9EC
0307EC
01FF3F
00003F
000000
000000
000000
000000
000000
000000
000000
ENDCHAR

STARTCHAR kor_A2D1
ENCODING 41681
SWIDTH 903 0
DWIDTH 24 0
BBX 24 24 0 -2
BITMAP
000000
000000
000000
000000
000000
7E0000
7FFFFE
17FFFF
160003
1607FE
160860
160FC0
160060
17CFC0
17F060
7E7FC0
7E0000
000000
000000
000000
000000
000000
000000
000000
ENDCHAR

STARTCHAR kor_A2D2
ENCODING 41682
SWIDTH 903 0
DWIDTH 24 0
BBX 24 24 0 -2
BITMAP
000000
03FF30
07FF30
0E0330
0C0330
0C0330
0C0330
0C0330
0E0330
07FF30
03FF30
000330
000330
000330
000330
000330
000330
000330
000330
000330
000330
000000
000000
000000
ENDCHAR

STARTCHAR kor_A2D3
ENCODING 41683
SWIDTH 903 0
DWIDTH 24 0
BBX 24 24 0 -2
BITMAP
000000
001800
001800
001800
001800
07FFE0
07FFE0
001800
001800
001800
001800
001800
001800
001800
001800
001800
001800
001800
001800
001800
001800
000000
000000
000000
ENDCHAR

STARTCHAR kor_A2D4
ENCODING 41684
SWIDTH 903 0
DWIDTH 24 0
BBX 24 24 0 -2
BITMAP
000000
001800
001800
001800
07FFE0
07FFE0
001800
001800
07FFE0
07FFE0
001800
001800
001800
001800
001800
001800
001800
001800
001800
001800
001800
000000
000000
000000
ENDCHAR

STARTCHAR kor_A2D5
ENCODING 41685
SWIDTH 903 0
DWIDTH 24 0
BBX 24 24 0 -2
BITMAP
000000
001C00
003E00
007F00
00FF80
01DBC0
01DDC0
001C00
001C00
001C00
001C00
001C00
001C00
001C00
001C00
001C00
01DDC0
01DFC0
00FB80
007F00
003E00
001C00
000000
000000
ENDCHAR

STARTCHAR kor_A2D6
ENCODING 41686
SWIDTH 903 0
DWIDTH 24 0
BBX 24 24 0 -2
BITMAP
000000
0001FE
0001FE
0001FE
00003E
0000EE
0001EE
0003CE
000780
000F00
001E00
003C00
007800
00F000
01E000
03C000
078000
0F0000
1E0000
3C0000
380000
000000
000000
000000
ENDCHAR

STARTCHAR kor_A2D7
ENCODING 41687
SWIDTH 903 0
DWIDTH 24 0
BBX 24 24 0 -2
BITMAP
000000
00000E
00001E
00003C
000078
0000F0
0001E0
0003C0
000780
000F00
001E00
003C00
007800
00F000
39E000
3BC000
3F8000
370000
3EC000
3FC000
3FC000
000000
000000
000000
ENDCHAR

STARTCHAR kor_A2D8
ENCODING 41688
SWIDTH 903 0
DWIDTH 24 0
BBX 24 24 0 -2
BITMAP
000000
3FC000
3FC000
3FC000
3E0000
378000
3BC000
39E000
00F000
007800
003C00
001E00
000F00
000780
0003C0
0001E0
0000F0
000078
00003C
00001E
00000E
000000
000000
000000
ENDCHAR

STARTCHAR kor_A2D9
ENCODING 41689
SWIDTH 903 0
DWIDTH 24 0
BBX 24 24 0 -2
BITMAP
000000
380000
3C0000
1E0000
0F0000
078000
03C000
01E000
00F000
007800
003C00
001E00
000F00
000780
0003CE
0001EE
0000EE
00007E
0003BE
0003FE
0003FE
000000
000000
000000
ENDCHAR

STARTCHAR kor_A2DA
ENCODING 41690
SWIDTH 903 0
DWIDTH 24 0
BBX 24 24 0 -2
BITMAP
000000
007000
007000
007000
007000
007000
007000
007780
007FE0
007FE0
007CF0
007870
007070
0070F0
0070E0
0071E0
0073C0
007F80
006F00
007E00
007800
000000
000000
000000
ENDCHAR

STARTCHAR kor_A2DB
ENCODING 41691
SWIDTH 903 0
DWIDTH 24 0
BBX 24 24 0 -2
BITMAP
000000
000600
000600
000600
000600
000600
000600
000600
000600
000600
000600
000600
000600
000600
001E00
003E00
007E00
00FE00
00FC00
00FC00
007000
000000
000000
000000
ENDCHAR

STARTCHAR kor_A2DC
ENCODING 41692
SWIDTH 903 0
DWIDTH 24 0
BBX 24 24 0 -2
BITMAP
001800
001C00
001E00
001F00
001780
001B80
001BC0
0019C0
0019C0
0019C0
001980
001B80
001B00
001B00
007800
00F800
01F800
03F800
03F000
03F000
01C000
000000
000000
000000
ENDCHAR

STARTCHAR kor_A2DD
ENCODING 41693
SWIDTH 903 0
DWIDTH 24 0
BBX 24 24 0 -2
BITMAP
00FFF0
00FFF0
00C030
00C030
00FFF0
00FFF0
00C030
00C030
00C030
00C030
00C030
00C030
00C030
00C030
03C0F0
07C1F0
0FC3F0
1FC7F0
1F87E0
1F87E0
0E0380
000000
000000
000000
ENDCHAR

STARTCHAR kor_A2DE
ENCODING 41694
SWIDTH 903 0
DWIDTH 24 0
BBX 24 24 0 -2
BITMAP
007F80
01FFE0
07C0F8
0F333C
0CF3EC
1C618E
186706
386607
306E03
307C00
3F587F
3F6C7F
006E03
306703
386307
186386
1C61CE
0CF2EC
0FF3FC
070038
01FFE0
007F80
000000
000000
ENDCHAR

STARTCHAR kor_A2DF
ENCODING 41695
SWIDTH 903 0
DWIDTH 24 0
BBX 24 24 0 -2
BITMAP
000000
000000
038060
07F870
0EFC38
0C0C18
1C0C18
181F1C
1837CC
1871CC
18600C
1B9FEC
1BFFEC
180C0C
180C1C
1C0C18
0C0E38
0E0E30
070670
0380E0
0180C0
000000
000000
000000
ENDCHAR

STARTCHAR kor_A2E0
ENCODING 41696
SWIDTH 903 0
DWIDTH 24 0
BBX 24 24 0 -2
BITMAP
000000
000000
70F800
78F800
383000
3C3000
3E3000
2E3000
3F3000
3731E0
37B7F8
33B738
33BE1C
31AE1C
31EE1C
30EE1C
30EE1C
307E1C
30773B
7C37F7
7C31E7
000000
000000
000000
ENDCHAR

STARTCHAR kor_A2E1
ENCODING 41697
SWIDTH 903 0
DWIDTH 24 0
BBX 24 24 0 -2
BITMAP
000000
000000
0F8000
1FE000
38E000
387000
703000
700000
700000
7001E0
7007F8
700738
700E1C
700E1C
700E1C
702E1C
706E1C
386E1C
38E73B
1FC7F7
0F81E7
000000
000000
000000
ENDCHAR

STARTCHAR kor_A2E2
ENCODING 41698
SWIDTH 903 0
DWIDTH 24 0
BBX 24 24 0 -2
BITMAP
000000
000000
7FDC07
7FFE0F
666E0E
666F1E
666B16
666FB6
060DB6
060DF6
060CE6
060CE6
060CE6
060C06
060C06
060C06
060C06
060C06
060C06
1F9E0F
1F9E0F
000000
000000
000000
ENDCHAR

STARTCHAR kor_A2E3
ENCODING 41699
SWIDTH 903 0
DWIDTH 24 0
BBX 24 24 0 -2
BITMAP
000000
000000
000000
000000
000000
000000
000000
000000
3E1770
3F3FF8
03BDD8
019998
1D9998
3F9998
739998
619998
619998
73D99F
3F5997
1D5997
000000
000000
000000
000000
ENDCHAR

STARTCHAR kor_A2E4
ENCODING 41700
SWIDTH 903 0
DWIDTH 24 0
BBX 24 24 0 -2
BITMAP
000000
000000
000000
000000
000000
000000
000000
000000
2F1770
7FBFF8
79FDD8
30D998
30D998
30D998
30D998
30D998
39D998
3F999F
2ED997
30D997
300000
300000
300000
000000
ENDCHAR

STARTCHAR kor_A2E5
ENCODING 41701
SWIDTH 903 0
DWIDTH 24 0
BBX 24 24 0 -2
BITMAP
000000
000000
3FF018
3FF038
333038
333018
333018
333018
030018
030F18
031F98
0339D8
0330D8
0330D8
033FD8
033FD8
033018
0330D8
0339D8
0FDFBC
0FCF3C
000000
000000
000000
ENDCHAR

STARTCHAR default_char
ENCODING 41702
SWIDTH 903 0
DWIDTH 24 0
BBX 24 24 0 -2
BITMAP
000000
300006
300006
000000
000000
000000
000000
000000
000000
000000
000000
000000
000000
000000
000000
000000
000000
000000
000000
000000
300006
300006
000000
000000
ENDCHAR

STARTCHAR kor_A3A1
ENCODING 41889
SWIDTH 903 0
DWIDTH 24 0
BBX 24 24 0 -2
BITMAP
000000
000000
003C00
003C00
003C00
003C00
003C00
003C00
003C00
003C00
003C00
003C00
001800
001800
001800
001800
000000
003C00
003C00
003C00
003C00
000000
000000
000000
ENDCHAR

STARTCHAR kor_A3A2
ENCODING 41890
SWIDTH 903 0
DWIDTH 24 0
BBX 24 24 0 -2
BITMAP
3DE000
3DE000
3DE000
1CE000
1CE000
39C000
318000
000000
000000
000000
000000
000000
000000
000000
000000
000000
000000
000000
000000
000000
000000
000000
000000
000000
ENDCHAR

STARTCHAR kor_A3A3
ENCODING 41891
SWIDTH 903 0
DWIDTH 24 0
BBX 24 24 0 -2
BITMAP
000000
000000
00E1C0
00E1C0
00E1C0
00E1FC
00FFFC
0FFFFC
0FFFC0
0FE1C0
00E1C0
00E1FC
00FFFC
0FFFFC
0FFFC0
0FE1C0
00E1C0
00E1C0
00E1C0
00E1C0
000000
000000
000000
000000
ENDCHAR

STARTCHAR kor_A3A4
ENCODING 41892
SWIDTH 903 0
DWIDTH 24 0
BBX 24 24 0 -2
BITMAP
000000
001C00
001C00
007F00
03FFE0
07DDF0
071C70
071C70
07DC00
03FC00
01FF00
007FC0
001FE0
001DF0
001C70
071C70
071CF0
07DDF0
03FFE0
00FF80
001C00
001C00
000000
000000
ENDCHAR

STARTCHAR kor_A3A5
ENCODING 41893
SWIDTH 903 0
DWIDTH 24 0
BBX 24 24 0 -2
BITMAP
000000
07800E
1FE01E
1CE03C
387078
3870F0
3871E0
3873C0
1CE780
1FEF00
079E00
003C00
0079E0
00F7F8
01E738
03CE1C
078E1C
0F0E1C
1E0E1C
3C0738
7807F8
7001E0
000000
000000
ENDCHAR

STARTCHAR kor_A3A6
ENCODING 41894
SWIDTH 903 0
DWIDTH 24 0
BBX 24 24 0 -2
BITMAP
000000
007C00
01FE00
01CF00
038700
038700
038F00
03DE00
01FCFC
00F0FC
03F030
077870
0F3860
0E3CE0
1E1EC0
1C0FC0
1C0786
1E07CE
0F1DFE
07FCFC
01F078
000000
000000
000000
ENDCHAR

STARTCHAR kor_A3A7
ENCODING 41895
SWIDTH 903 0
DWIDTH 24 0
BBX 24 24 0 -2
BITMAP
0F0000
0F0000
0F0000
070000
070000
0E0000
0C0000
000000
000000
000000
000000
000000
000000
000000
000000
000000
000000
000000
000000
000000
000000
000000
000000
000000
ENDCHAR

STARTCHAR kor_A3A8
ENCODING 41896
SWIDTH 903 0
DWIDTH 24 0
BBX 24 24 0 -2
BITMAP
000018
000078
0000F0
0001E0
0001C0
0003C0
000380
000380
000780
000700
000700
000700
000700
000700
000780
000380
000380
0003C0
0001C0
0001E0
0000F0
000078
000018
000000
ENDCHAR

STARTCHAR kor_A3A9
ENCODING 41897
SWIDTH 903 0
DWIDTH 24 0
BBX 24 24 0 -2
BITMAP
0C0000
0F0000
078000
03C000
01C000
01E000
00E000
00E000
00F000
007000
007000
007000
007000
007000
00F000
00E000
00E000
01E000
01C000
03C000
078000
0F0000
0C0000
000000
ENDCHAR

STARTCHAR kor_A3AA
ENCODING 41898
SWIDTH 903 0
DWIDTH 24 0
BBX 24 24 0 -2
BITMAP
000000
000000
000000
000000
001800
003C00
003C00
073CE0
0799E0
07DFE0
01F780
003C00
01FF80
07D7E0
0799E0
073CE0
003C00
003C00
001800
000000
000000
000000
000000
000000
ENDCHAR

STARTCHAR kor_A3AB
ENCODING 41899
SWIDTH 903 0
DWIDTH 24 0
BBX 24 24 0 -2
BITMAP
000000
000000
000000
000000
001C00
001C00
001C00
001C00
001C00
001C00
07FFF0
07FFF0
07FFF0
001C00
001C00
001C00
001C00
001C00
001C00
000000
000000
000000
000000
000000
ENDCHAR

STARTCHAR kor_A3AC
ENCODING 41900
SWIDTH 903 0
DWIDTH 24 0
BBX 24 24 0 -2
BITMAP
000000
000000
000000
000000
000000
000000
000000
000000
000000
000000
000000
000000
000000
000000
000000
000000
000000
0F0000
0F0000
0F0000
070000
0E0000
0C0000
000000
ENDCHAR

STARTCHAR kor_A3AD
ENCODING 41901
SWIDTH 903 0
DWIDTH 24 0
BBX 24 24 0 -2
BITMAP
000000
000000
000000
000000
000000
000000
000000
000000
000000
000000
07FFF0
07FFF0
07FFF0
000000
000000
000000
000000
000000
000000
000000
000000
000000
000000
000000
ENDCHAR

STARTCHAR kor_A3AE
ENCODING 41902
SWIDTH 903 0
DWIDTH 24 0
BBX 24 24 0 -2
BITMAP
000000
000000
000000
000000
000000
000000
000000
000000
000000
000000
000000
000000
000000
000000
000000
000000
000000
000000
0F0000
0F0000
0F0000
0F0000
000000
000000
ENDCHAR

STARTCHAR kor_A3AF
ENCODING 41903
SWIDTH 903 0
DWIDTH 24 0
BBX 24 24 0 -2
BITMAP
000007
00000F
00001E
00003C
000078
0000F0
0001E0
0003C0
000780
000F00
001E00
003C00
007800
00F000
01E000
03C000
078000
0F0000
1E0000
3C0000
780000
700000
000000
000000
ENDCHAR

STARTCHAR kor_A3B0
ENCODING 41904
SWIDTH 903 0
DWIDTH 24 0
BBX 24 24 0 -2
BITMAP
000000
000000
003E00
00FF80
01E3C0
03C1E0
0380E0
0780F0
070070
070070
070070
070070
070070
070070
070070
0780F0
0380E0
03C1E0
01E3C0
00FF80
003E00
000000
000000
000000
ENDCHAR

STARTCHAR kor_A3B1
ENCODING 41905
SWIDTH 903 0
DWIDTH 24 0
BBX 24 24 0 -2
BITMAP
000000
000000
001C00
007C00
01FC00
01FC00
001C00
001C00
001C00
001C00
001C00
001C00
001C00
001C00
001C00
001C00
001C00
001C00
001C00
01FFC0
01FFC0
000000
000000
000000
ENDCHAR

STARTCHAR kor_A3B2
ENCODING 41906
SWIDTH 903 0
DWIDTH 24 0
BBX 24 24 0 -2
BITMAP
000000
000000
007F00
01FFC0
03E1E0
0380F0
070070
0600F0
0000E0
0001E0
0003C0
000780
000F00
001E00
003C00
007030
00E030
01C070
03BFF0
07FFF0
07FFF0
000000
000000
000000
ENDCHAR

STARTCHAR kor_A3B3
ENCODING 41907
SWIDTH 903 0
DWIDTH 24 0
BBX 24 24 0 -2
BITMAP
000000
000000
007F00
01FFC0
03E7E0
0781E0
0601E0
0000E0
0001E0
0007C0
007F80
007F40
0007E0
0001F0
0000F0
000070
0000F0
0003E0
000FC0
07FF00
07F800
000000
000000
000000
ENDCHAR

STARTCHAR kor_A3B4
ENCODING 41908
SWIDTH 903 0
DWIDTH 24 0
BBX 24 24 0 -2
BITMAP
000000
000000
0001C0
0003C0
0007C0
0005C0
000DC0
001DC0
0039C0
0071C0
00E1C0
00C1C0
01C1C0
0381C0
0701C0
0EFFF8
0FFFF8
0001C0
0001C0
000FF8
000FF8
000000
000000
000000
ENDCHAR

STARTCHAR kor_A3B5
ENCODING 41909
SWIDTH 903 0
DWIDTH 24 0
BBX 24 24 0 -2
BITMAP
000000
000000
03FFF0
03FFF0
03FFE0
030000
030000
030000
033F00
03FFC0
02FFE0
03C1E0
0300F0
000070
000070
0000E0
0001E0
0003C0
001F80
03FE00
03F000
000000
000000
000000
ENDCHAR

STARTCHAR kor_A3B6
ENCODING 41910
SWIDTH 903 0
DWIDTH 24 0
BBX 24 24 0 -2
BITMAP
000000
000000
000F80
003F80
00F800
01E000
03C000
038000
078000
077F00
07FFC0
07C1E0
0700E0
0700F0
070070
0780F0
0380E0
03C1E0
01E3C0
00FF80
003E00
000000
000000
000000
ENDCHAR

STARTCHAR kor_A3B7
ENCODING 41911
SWIDTH 903 0
DWIDTH 24 0
BBX 24 24 0 -2
BITMAP
000000
000000
07FFF0
07FFF0
07FFF0
070030
0600E0
0601C0
000380
000700
000700
000E00
000E00
001C00
001C00
001C00
003C00
003800
003800
003800
003800
000000
000000
000000
ENDCHAR

STARTCHAR kor_A3B8
ENCODING 41912
SWIDTH 903 0
DWIDTH 24 0
BBX 24 24 0 -2
BITMAP
000000
000000
007E00
01FF80
03C3C0
0781E0
0700E0
0780E0
07C1E0
03F7C0
01FF00
007E80
03EFC0
0783E0
0F01F0
0E00F0
0E0070
0F00F0
0781E0
03FFC0
00FF00
000000
000000
000000
ENDCHAR

STARTCHAR kor_A3B9
ENCODING 41913
SWIDTH 903 0
DWIDTH 24 0
BBX 24 24 0 -2
BITMAP
000000
000000
003E00
00FF80
01E3C0
03C1E0
0380E0
0780F0
070070
078070
038070
03C1F0
01FFF0
007F70
0000E0
0001E0
0003C0
000780
003F00
03FC00
03E000
000000
000000
000000
ENDCHAR

STARTCHAR kor_A3BA
ENCODING 41914
SWIDTH 903 0
DWIDTH 24 0
BBX 24 24 0 -2
BITMAP
000000
000000
000000
000000
000000
003C00
003C00
003C00
003C00
000000
000000
000000
000000
000000
000000
003C00
003C00
003C00
003C00
000000
000000
000000
000000
000000
ENDCHAR

STARTCHAR kor_A3BB
ENCODING 41915
SWIDTH 903 0
DWIDTH 24 0
BBX 24 24 0 -2
BITMAP
000000
000000
000000
000000
000000
003C00
003C00
003C00
003C00
000000
000000
000000
000000
000000
000000
003C00
003C00
003C00
001C00
003800
003000
000000
000000
000000
ENDCHAR

STARTCHAR kor_A3BC
ENCODING 41916
SWIDTH 903 0
DWIDTH 24 0
BBX 24 24 0 -2
BITMAP
000000
000000
000018
000078
0001F8
0007E0
001F80
007E00
01F800
07E000
1F8000
1E0000
07E000
01F800
007E00
001F80
0007E0
0001F8
000078
000018
000000
000000
000000
000000
ENDCHAR

STARTCHAR kor_A3BD
ENCODING 41917
SWIDTH 903 0
DWIDTH 24 0
BBX 24 24 0 -2
BITMAP
000000
000000
000000
000000
000000
000000
000000
0FFFF0
0FFFF0
0FFFF0
000000
000000
0FFFF0
0FFFF0
0FFFF0
000000
000000
000000
000000
000000
000000
000000
000000
000000
ENDCHAR

STARTCHAR kor_A3BE
ENCODING 41918
SWIDTH 903 0
DWIDTH 24 0
BBX 24 24 0 -2
BITMAP
000000
000000
0C0000
0F0000
0FC000
03F000
00FC00
003F00
000FC0
0003F0
0000FC
00003C
0003F0
000FC0
003F00
00FC00
03F000
0FC000
0F0000
0C0000
000000
000000
000000
000000
ENDCHAR

STARTCHAR kor_A3BF
ENCODING 41919
SWIDTH 903 0
DWIDTH 24 0
BBX 24 24 0 -2
BITMAP
000000
000000
003E00
00FF80
01E3C0
03C1E0
0380E0
03C0E0
01C1E0
0003C0
000780
000F00
000E00
001C00
001800
001800
000000
003C00
003C00
003C00
003C00
000000
000000
000000
ENDCHAR

STARTCHAR kor_A3C0
ENCODING 41920
SWIDTH 903 0
DWIDTH 24 0
BBX 24 24 0 -2
BITMAP
000000
000000
007F00
01FFC0
03F1E0
07C070
0F9DB8
0F3FD8
1E7BDC
1CF1CC
1CE3CC
19E39C
19C398
19C7B8
1DCFF0
0CFB60
0E79D8
070038
03C0F0
01FFE0
007F80
000000
000000
000000
ENDCHAR

STARTCHAR kor_A3C1
ENCODING 41921
SWIDTH 903 0
DWIDTH 24 0
BBX 24 24 0 -2
BITMAP
000000
000000
001800
001C00
003C00
003E00
002E00
006F00
006700
00E780
00C380
01C3C0
0181C0
01FFC0
03FFE0
0300E0
0700F0
060070
0E0078
3F81FE
3F81FE
000000
000000
000000
ENDCHAR

STARTCHAR kor_A3C2
ENCODING 41922
SWIDTH 903 0
DWIDTH 24 0
BBX 24 24 0 -2
BITMAP
000000
000000
0FFF00
0FFFC0
0381E0
0380F0
038070
038070
0380F0
0380E0
03FFC0
03FFA0
0380F0
038078
038038
038038
038038
038078
0380F0
0FFFE0
0FFF80
000000
000000
000000
ENDCHAR

STARTCHAR kor_A3C3
ENCODING 41923
SWIDTH 903 0
DWIDTH 24 0
BBX 24 24 0 -2
BITMAP
000000
000000
003E00
00FFB0
01E3F0
03C0F0
078070
070030
0F0030
0E0000
0E0000
0E0000
0E0000
0E0000
0F0000
070018
078038
03C070
01E1E0
00FFC0
003F00
000000
000000
000000
ENDCHAR

STARTCHAR kor_A3C4
ENCODING 41924
SWIDTH 903 0
DWIDTH 24 0
BBX 24 24 0 -2
BITMAP
000000
000000
0FFC00
0FFF00
0387C0
0381E0
0380F0
038070
038078
038038
038038
038038
038038
038038
038078
038070
0380F0
0381E0
0387C0
0FFF00
0FFC00
000000
000000
000000
ENDCHAR

STARTCHAR kor_A3C5
ENCODING 41925
SWIDTH 903 0
DWIDTH 24 0
BBX 24 24 0 -2
BITMAP
000000
000000
0FFFF0
0FFFF0
038070
038030
038030
038300
038300
038700
03FF00
03FF00
038700
038300
038300
038030
038030
038030
038070
0FFFF0
0FFFF0
000000
000000
000000
ENDCHAR

STARTCHAR kor_A3C6
ENCODING 41926
SWIDTH 903 0
DWIDTH 24 0
BBX 24 24 0 -2
BITMAP
000000
000000
0FFFF0
0FFFF0
038070
038030
038030
038330
038300
038700
03FF00
03FF00
038700
038300
038300
038000
038000
038000
038000
0FE000
0FE000
000000
000000
000000
ENDCHAR

STARTCHAR kor_A3C7
ENCODING 41927
SWIDTH 903 0
DWIDTH 24 0
BBX 24 24 0 -2
BITMAP
000000
000000
003E00
00FFB0
01E3F0
03C0F0
078070
070030
0F0030
0E0000
0E0000
0E03FE
0E03FE
0E0070
0F0070
070070
078070
03C0F0
01E3F0
00FFB0
003E30
000000
000000
000000
ENDCHAR

STARTCHAR kor_A3C8
ENCODING 41928
SWIDTH 903 0
DWIDTH 24 0
BBX 24 24 0 -2
BITMAP
000000
000000
0FE1FC
0FE1FC
038070
038070
038070
038070
038070
038070
03FFF0
03FFF0
038070
038070
038070
038070
038070
038070
038070
0FE1FC
0FE1FC
000000
000000
000000
ENDCHAR

STARTCHAR kor_A3C9
ENCODING 41929
SWIDTH 903 0
DWIDTH 24 0
BBX 24 24 0 -2
BITMAP
000000
000000
00FF80
00FF80
001C00
001C00
001C00
001C00
001C00
001C00
001C00
001C00
001C00
001C00
001C00
001C00
001C00
001C00
001C00
00FF80
00FF80
000000
000000
000000
ENDCHAR

STARTCHAR kor_A3CA
ENCODING 41930
SWIDTH 903 0
DWIDTH 24 0
BBX 24 24 0 -2
BITMAP
000000
000000
001FF0
001FF0
000380
000380
000380
000380
000380
000380
000380
000380
000380
000380
000380
070380
070380
078780
03C700
01FF00
007C00
000000
000000
000000
ENDCHAR

STARTCHAR kor_A3CB
ENCODING 41931
SWIDTH 903 0
DWIDTH 24 0
BBX 24 24 0 -2
BITMAP
000000
000000
1FC7F0
1FC7F0
0701C0
070380
070700
070E00
071C00
073800
077000
07E000
06F800
07BC00
071E00
070F00
070780
0703C0
0701E0
1FC2FC
1FC3FC
000000
000000
000000
ENDCHAR

STARTCHAR kor_A3CC
ENCODING 41932
SWIDTH 903 0
DWIDTH 24 0
BBX 24 24 0 -2
BITMAP
000000
000000
0FE000
0FE000
038000
038000
038000
038000
038000
038000
038000
038000
038000
038000
038000
038030
038030
038030
038070
0FFFF0
0FFFF0
000000
000000
000000
ENDCHAR

STARTCHAR kor_A3CD
ENCODING 41933
SWIDTH 903 0
DWIDTH 24 0
BBX 24 24 0 -2
BITMAP
000000
000000
3F80FE
3F80FE
0B80B8
0B80B8
0FC1B8
0DC1B8
0DC1B8
0DE3B8
0CE338
0CE338
0CF738
0C7638
0C7638
0C7E38
0C2C38
0C3C38
0C3C38
3F18FE
3F18FE
000000
000000
000000
ENDCHAR

STARTCHAR kor_A3CE
ENCODING 41934
SWIDTH 903 0
DWIDTH 24 0
BBX 24 24 0 -2
BITMAP
000000
000000
0F80FC
0F80FC
03C030
03C030
03E030
02F030
037830
037830
033C30
031E30
030F30
0307B0
0307B0
0303F0
0301F0
0300F0
0300F0
0FC070
0FC030
000000
000000
000000
ENDCHAR

STARTCHAR kor_A3CF
ENCODING 41935
SWIDTH 903 0
DWIDTH 24 0
BBX 24 24 0 -2
BITMAP
000000
000000
007F00
01FFC0
03C1E0
0780F0
070070
0F0078
0E0038
0E0038
0E0038
0E0038
0E0038
0E0038
0E0038
0F0078
070070
0780F0
03C1E0
01FFC0
007F00
000000
000000
000000
ENDCHAR

STARTCHAR kor_A3D0
ENCODING 41936
SWIDTH 903 0
DWIDTH 24 0
BBX 24 24 0 -2
BITMAP
000000
000000
07FF80
07FFE0
01C0F0
01C078
01C038
01C038
01C038
01C078
01C0F0
01FFE0
01FF80
01C000
01C000
01C000
01C000
01C000
01C000
07F000
07F000
000000
000000
000000
ENDCHAR

STARTCHAR kor_A3D1
ENCODING 41937
SWIDTH 903 0
DWIDTH 24 0
BBX 24 24 0 -2
BITMAP
000000
000000
007F00
01FFC0
03C1E0
0780F0
070070
0F0078
0E0038
0E0038
0E0038
0E0038
0E0038
0E0038
0E0038
0F3C78
077F70
07E770
03C3E0
00FFCC
003FCC
0001FC
000078
000000
ENDCHAR

STARTCHAR kor_A3D2
ENCODING 41938
SWIDTH 903 0
DWIDTH 24 0
BBX 24 24 0 -2
BITMAP
000000
000000
0FFF00
0FFFC0
0381E0
0380F0
038070
038070
0380F0
0383E0
03FF80
03FE00
038380
0381C0
0381C0
0381C0
0381C0
0381C6
0381EE
0FE1FC
0FE0F8
000000
000000
000000
ENDCHAR

STARTCHAR kor_A3D3
ENCODING 41939
SWIDTH 903 0
DWIDTH 24 0
BBX 24 24 0 -2
BITMAP
000000
000000
007C60
01FFE0
03C7E0
0781E0
0700E0
078060
07E000
03F800
00FF00
003FC0
000FE0
0001F0
0600F0
060070
070070
0780F0
07E1E0
07FFC0
063F00
000000
000000
000000
ENDCHAR

STARTCHAR kor_A3D4
ENCODING 41940
SWIDTH 903 0
DWIDTH 24 0
BBX 24 24 0 -2
BITMAP
000000
000000
0FFFF8
0FFFF8
0E1C38
0C1C18
0C1C18
0C1C18
001C00
001C00
001C00
001C00
001C00
001C00
001C00
001C00
001C00
001C00
001C00
007F00
007F00
000000
000000
000000
ENDCHAR

STARTCHAR kor_A3D5
ENCODING 41941
SWIDTH 903 0
DWIDTH 24 0
BBX 24 24 0 -2
BITMAP
000000
000000
0FE0FC
0FE0FC
038030
038030
038030
038030
038030
038030
038030
038030
038030
038030
038030
038030
03C070
01C060
01F1E0
00FFC0
003F00
000000
000000
000000
ENDCHAR

STARTCHAR kor_A3D6
ENCODING 41942
SWIDTH 903 0
DWIDTH 24 0
BBX 24 24 0 -2
BITMAP
000000
000000
3FC0FE
3FC0FE
0F0038
070030
078070
038060
038060
03C0E0
01C0C0
01E1C0
00E180
00F380
007300
007700
003600
003E00
001E00
001C00
000C00
000000
000000
000000
ENDCHAR

STARTCHAR kor_A3D7
ENCODING 41943
SWIDTH 903 0
DWIDTH 24 0
BBX 24 24 0 -2
BITMAP
000000
000000
7F7F7E
7F7F7E
1C1C18
1C1C18
1C3E18
1E2E38
0E2E30
0E2E30
0E6F30
0F6770
076760
076760
076760
07E7E0
03C3C0
03C3C0
03C3C0
018180
018180
000000
000000
000000
ENDCHAR

STARTCHAR kor_A3D8
ENCODING 41944
SWIDTH 903 0
DWIDTH 24 0
BBX 24 24 0 -2
BITMAP
000000
000000
1FC0FC
1FC0FC
078070
03C0E0
01E1C0
01E180
00F380
007F00
003E00
001C00
003F00
007780
00E3C0
00C3C0
01C1E0
0380F0
070078
1F80FE
1F80FE
000000
000000
000000
ENDCHAR

STARTCHAR kor_A3D9
ENCODING 41945
SWIDTH 903 0
DWIDTH 24 0
BBX 24 24 0 -2
BITMAP
000000
000000
1FE0FC
1FE0FC
078030
03C0E0
03C0C0
01E1C0
00F380
00F300
007700
003E00
003C00
001C00
001C00
001C00
001C00
001C00
001C00
007F00
007F00
000000
000000
000000
ENDCHAR

STARTCHAR kor_A3DA
ENCODING 41946
SWIDTH 903 0
DWIDTH 24 0
BBX 24 24 0 -2
BITMAP
000000
000000
07FFF0
07FFF0
0701E0
0603C0
060780
060F00
000F00
001E00
003C00
007800
007800
00F000
01E000
01E030
03C030
078030
078070
0F7FF0
0FFFF0
000000
000000
000000
ENDCHAR

STARTCHAR kor_A3DB
ENCODING 41947
SWIDTH 903 0
DWIDTH 24 0
BBX 24 24 0 -2
BITMAP
0007F8
0007F8
000700
000700
000700
000700
000700
000700
000700
000700
000700
000700
000700
000700
000700
000700
000700
000700
000700
000700
000700
0007F8
0007F8
000000
ENDCHAR

STARTCHAR kor_A3DC
ENCODING 41948
SWIDTH 903 0
DWIDTH 24 0
BBX 24 24 0 -2
BITMAP
000000
000000
7F7F7E
7F7F7E
1C1C18
1C1C18
1C3E18
7FEFFE
7FFFFE
0E2E30
0E6F30
7FF7FE
7FFFFE
076760
076760
07E7E0
03C3C0
03C3C0
03C3C0
018180
018180
000000
000000
000000
ENDCHAR

STARTCHAR kor_A3DD
ENCODING 41949
SWIDTH 903 0
DWIDTH 24 0
BBX 24 24 0 -2
BITMAP
0FF000
0FF000
007000
007000
007000
007000
007000
007000
007000
007000
007000
007000
007000
007000
007000
007000
007000
007000
007000
007000
007000
0FF000
0FF000
000000
ENDCHAR

STARTCHAR kor_A3DE
ENCODING 41950
SWIDTH 903 0
DWIDTH 24 0
BBX 24 24 0 -2
BITMAP
003C00
007E00
00EF00
00E700
000000
000000
000000
000000
000000
000000
000000
000000
000000
000000
000000
000000
000000
000000
000000
000000
000000
000000
000000
000000
ENDCHAR

STARTCHAR kor_A3DF
ENCODING 41951
SWIDTH 903 0
DWIDTH 24 0
BBX 24 24 0 -2
BITMAP
000000
000000
000000
000000
000000
000000
000000
000000
000000
000000
000000
000000
000000
000000
000000
000000
000000
000000
000000
000000
000000
7FFFFF
7FFFFF
000000
ENDCHAR

STARTCHAR kor_A3E0
ENCODING 41952
SWIDTH 903 0
DWIDTH 24 0
BBX 24 24 0 -2
BITMAP
007C00
003E00
000F00
000300
000000
000000
000000
000000
000000
000000
000000
000000
000000
000000
000000
000000
000000
000000
000000
000000
000000
000000
000000
000000
ENDCHAR

STARTCHAR kor_A3E1
ENCODING 41953
SWIDTH 903 0
DWIDTH 24 0
BBX 24 24 0 -2
BITMAP
000000
000000
000000
000000
000000
000000
000000
00FE00
03FF80
03C3C0
0381C0
0001C0
001FC0
00FFC0
03F1C0
0781C0
0701C0
0701D8
0787D8
03FFF8
00FCF0
000000
000000
000000
ENDCHAR

STARTCHAR kor_A3E2
ENCODING 41954
SWIDTH 903 0
DWIDTH 24 0
BBX 24 24 0 -2
BITMAP
000000
000000
038000
0F8000
0F8000
038000
038000
038000
039F00
03FFC0
0371E0
03C0E0
0380F0
038070
038070
038070
0380F0
0380E0
03E1E0
03FFC0
033F00
000000
000000
000000
ENDCHAR

STARTCHAR kor_A3E3
ENCODING 41955
SWIDTH 903 0
DWIDTH 24 0
BBX 24 24 0 -2
BITMAP
000000
000000
000000
000000
000000
000000
000000
003F00
00FFC0
01E1E0
03C0E0
0380E0
078000
070000
070000
078000
038000
03C060
01E1E0
00FFC0
003F00
000000
000000
000000
ENDCHAR

STARTCHAR kor_A3E4
ENCODING 41956
SWIDTH 903 0
DWIDTH 24 0
BBX 24 24 0 -2
BITMAP
000000
000000
0000E0
0003E0
0003E0
0000E0
0000E0
0000E0
007CE0
01FEE0
03C7E0
0381E0
0780E0
0700E0
0700E0
0700E0
0780E0
0380E0
03C3E0
01FFF8
007EF8
000000
000000
000000
ENDCHAR

STARTCHAR kor_A3E5
ENCODING 41957
SWIDTH 903 0
DWIDTH 24 0
BBX 24 24 0 -2
BITMAP
000000
000000
000000
000000
000000
000000
000000
003E00
00FF80
01E3C0
03C1C0
0381E0
07FEE0
07FFE0
070000
078000
038060
03C0E0
01E3C0
00FF80
003E00
000000
000000
000000
ENDCHAR

STARTCHAR kor_A3E6
ENCODING 41958
SWIDTH 903 0
DWIDTH 24 0
BBX 24 24 0 -2
BITMAP
000000
000000
000780
001FE0
003CE0
0038E0
003800
003800
03FF80
03FF80
003800
003800
003800
003800
003800
003800
003800
003800
003800
01FF00
01FF00
000000
000000
000000
ENDCHAR

STARTCHAR kor_A3E7
ENCODING 41959
SWIDTH 903 0
DWIDTH 24 0
BBX 24 24 0 -2
BITMAP
000000
000000
000000
000000
000000
000000
000070
007EF8
01FFF8
03C3B8
0381C0
03C3C0
01FF80
007E00
01C000
01FF80
00FFE0
03BFF0
0700F0
070070
0780F0
03FFE0
00FF80
000000
ENDCHAR

STARTCHAR kor_A3E8
ENCODING 41960
SWIDTH 903 0
DWIDTH 24 0
BBX 24 24 0 -2
BITMAP
000000
000000
038000
0F8000
0F8000
038000
038000
038000
039F00
03FFC0
0371E0
03C0E0
0380E0
0380E0
0380E0
0380E0
0380E0
0380E0
0380E0
0FE3F8
0FE3F8
000000
000000
000000
ENDCHAR

STARTCHAR kor_A3E9
ENCODING 41961
SWIDTH 903 0
DWIDTH 24 0
BBX 24 24 0 -2
BITMAP
000000
000000
003C00
003C00
003C00
003C00
000000
000000
001C00
007C00
007C00
001C00
001C00
001C00
001C00
001C00
001C00
001C00
001C00
00FF80
00FF80
000000
000000
000000
ENDCHAR

STARTCHAR kor_A3EA
ENCODING 41962
SWIDTH 903 0
DWIDTH 24 0
BBX 24 24 0 -2
BITMAP
000000
000000
000F00
000F00
000F00
000F00
000000
000000
000700
001F00
001F00
000700
000700
000700
000700
000700
000700
000700
070700
070700
078F00
03FE00
00FC00
000000
ENDCHAR

STARTCHAR kor_A3EB
ENCODING 41963
SWIDTH 903 0
DWIDTH 24 0
BBX 24 24 0 -2
BITMAP
000000
000000
038000
0F8000
0F8000
038000
038000
038000
0387F0
0387F0
038180
038700
038E00
03BC00
03F800
037E00
03CF00
038780
0383C0
0FE5F8
0FE7F8
000000
000000
000000
ENDCHAR

STARTCHAR kor_A3EC
ENCODING 41964
SWIDTH 903 0
DWIDTH 24 0
BBX 24 24 0 -2
BITMAP
000000
000000
001C00
007C00
007C00
001C00
001C00
001C00
001C00
001C00
001C00
001C00
001C00
001C00
001C00
001C00
001C00
001C00
001C00
007F00
007F00
000000
000000
000000
ENDCHAR

STARTCHAR kor_A3ED
ENCODING 41965
SWIDTH 903 0
DWIDTH 24 0
BBX 24 24 0 -2
BITMAP
000000
000000
000000
000000
000000
000000
000000
0EF1E0
3FF7F0
3F9F38
0E1C38
0E1C38
0E1C38
0E1C38
0E1C38
0E1C38
0E1C38
0E1C38
0E1C38
3F3E7E
3F3E7E
000000
000000
000000
ENDCHAR

STARTCHAR kor_A3EE
ENCODING 41966
SWIDTH 903 0
DWIDTH 24 0
BBX 24 24 0 -2
BITMAP
000000
000000
000000
000000
000000
000000
000000
01DF00
07FFC0
07F1E0
01C0E0
01C0E0
01C0E0
01C0E0
01C0E0
01C0E0
01C0E0
01C0E0
01C0E0
07F3F8
07F3F8
000000
000000
000000
ENDCHAR

STARTCHAR kor_A3EF
ENCODING 41967
SWIDTH 903 0
DWIDTH 24 0
BBX 24 24 0 -2
BITMAP
000000
000000
000000
000000
000000
000000
000000
003E00
00FF80
01E3C0
03C1E0
0380E0
0780F0
070070
070070
0780F0
0380E0
03C1E0
01E3C0
00FF80
003E00
000000
000000
000000
ENDCHAR

STARTCHAR kor_A3F0
ENCODING 41968
SWIDTH 903 0
DWIDTH 24 0
BBX 24 24 0 -2
BITMAP
000000
000000
000000
000000
000000
000000
000000
039F00
0FFFC0
0F71E0
03C0E0
0380F0
038070
038070
0380F0
0380E0
03E1E0
03FFC0
03BF00
038000
038000
0FE000
0FE000
000000
ENDCHAR

STARTCHAR kor_A3F1
ENCODING 41969
SWIDTH 903 0
DWIDTH 24 0
BBX 24 24 0 -2
BITMAP
000000
000000
000000
000000
000000
000000
000000
007E60
01FFE0
03C3E0
0380E0
0780E0
0700E0
0700E0
0780E0
0380E0
03C3E0
01FFE0
007EE0
0000E0
0000E0
0003F8
0003F8
000000
ENDCHAR

STARTCHAR kor_A3F2
ENCODING 41970
SWIDTH 903 0
DWIDTH 24 0
BBX 24 24 0 -2
BITMAP
000000
000000
000000
000000
000000
000000
000000
00E1E0
03E7F0
03EFF0
00FE70
00D800
00F000
00E000
00E000
00E000
00E000
00E000
00E000
03F800
03F800
000000
000000
000000
ENDCHAR

STARTCHAR kor_A3F3
ENCODING 41971
SWIDTH 903 0
DWIDTH 24 0
BBX 24 24 0 -2
BITMAP
000000
000000
000000
000000
000000
000000
000000
007EC0
01FFC0
03C3C0
0381C0
03C0C0
03FC00
01FF80
007FC0
0007E0
0301E0
0380E0
03C1E0
03FFC0
037F00
000000
000000
000000
ENDCHAR

STARTCHAR kor_A3F4
ENCODING 41972
SWIDTH 903 0
DWIDTH 24 0
BBX 24 24 0 -2
BITMAP
000000
000000
007000
007000
007000
007000
007000
07FF80
07FF80
007000
007000
007000
007000
007000
007000
007000
007060
007060
0078E0
003FC0
000F80
000000
000000
000000
ENDCHAR

STARTCHAR kor_A3F5
ENCODING 41973
SWIDTH 903 0
DWIDTH 24 0
BBX 24 24 0 -2
BITMAP
000000
000000
000000
000000
000000
000000
000000
0381C0
0F87C0
0F87C0
0381C0
0381C0
0381C0
0381C0
0381C0
0381C0
0381C0
0381C0
03C7C0
01FFF0
007DF0
000000
000000
000000
ENDCHAR

STARTCHAR kor_A3F6
ENCODING 41974
SWIDTH 903 0
DWIDTH 24 0
BBX 24 24 0 -2
BITMAP
000000
000000
000000
000000
000000
000000
000000
0FE1F8
0FE1F8
038060
01C0E0
01E0C0
00E1C0
00F180
007380
007B00
003F00
003600
001E00
001C00
000C00
000000
000000
000000
ENDCHAR

STARTCHAR kor_A3F7
ENCODING 41975
SWIDTH 903 0
DWIDTH 24 0
BBX 24 24 0 -2
BITMAP
000000
000000
000000
000000
000000
000000
000000
7F7F7F
7F7F7F
1C1C1C
1E3E18
0E2E18
0E3F38
0F7730
0767B0
0763F0
07E360
02C1E0
03C1E0
0180C0
0180C0
000000
000000
000000
ENDCHAR

STARTCHAR kor_A3F8
ENCODING 41976
SWIDTH 903 0
DWIDTH 24 0
BBX 24 24 0 -2
BITMAP
000000
000000
000000
000000
000000
000000
000000
0FF3F8
0FF3F8
03C0C0
01F380
00F700
007E00
003C00
001F00
006F80
00E7C0
01C3E0
0381F0
0F42FC
0FC3FC
000000
000000
000000
ENDCHAR

STARTCHAR kor_A3F9
ENCODING 41977
SWIDTH 903 0
DWIDTH 24 0
BBX 24 24 0 -2
BITMAP
000000
000000
000000
000000
000000
000000
000000
07F1F8
07F1F8
01C060
01E0C0
00E1C0
00F180
007380
007B00
003F00
003600
001E00
000C00
071800
073800
07F000
03E000
000000
ENDCHAR

STARTCHAR kor_A3FA
ENCODING 41978
SWIDTH 903 0
DWIDTH 24 0
BBX 24 24 0 -2
BITMAP
000000
000000
000000
000000
000000
000000
000000
03FFE0
03FFE0
0383C0
070780
060F00
001F00
003E00
007C00
007800
00F030
01F070
03E0E0
07DFE0
07FFE0
000000
000000
000000
ENDCHAR

STARTCHAR kor_A3FB
ENCODING 41979
SWIDTH 903 0
DWIDTH 24 0
BBX 24 24 0 -2
BITMAP
000060
0000E0
0000C0
0001C0
0001C0
0001C0
0001C0
0001C0
0001C0
000380
000700
000600
000380
0001C0
0001C0
0001C0
0001C0
0001C0
0001C0
0001C0
0000C0
0000E0
000060
000000
ENDCHAR

STARTCHAR kor_A3FC
ENCODING 41980
SWIDTH 903 0
DWIDTH 24 0
BBX 24 24 0 -2
BITMAP
001C00
001C00
001C00
001C00
001C00
001C00
001C00
001C00
001C00
001C00
001C00
001C00
001C00
001C00
001C00
001C00
001C00
001C00
001C00
001C00
001C00
001C00
001C00
000000
ENDCHAR

STARTCHAR kor_A3FD
ENCODING 41981
SWIDTH 903 0
DWIDTH 24 0
BBX 24 24 0 -2
BITMAP
030000
038000
018000
01C000
01C000
01C000
01C000
01C000
01C000
00E000
007000
003000
00E000
01C000
01C000
01C000
01C000
01C000
01C000
01C000
018000
038000
030000
000000
ENDCHAR

STARTCHAR kor_A3FE
ENCODING 41982
SWIDTH 903 0
DWIDTH 24 0
BBX 24 24 0 -2
BITMAP
01FFC0
01FFC0
000000
000000
000000
000000
000000
000000
000000
000000
000000
000000
000000
000000
000000
000000
000000
000000
000000
000000
000000
000000
000000
000000
ENDCHAR

STARTCHAR kor_A4A1
ENCODING 42145
SWIDTH 903 0
DWIDTH 24 0
BBX 24 24 0 -2
BITMAP
000000
000000
000000
000000
000000
000000
000000
01FF00
01FF80
0001C0
0000C0
0000C0
0000C0
0001C0
000180
000380
000300
000000
000000
000000
000000
000000
000000
000000
ENDCHAR

STARTCHAR kor_A4A2
ENCODING 42146
SWIDTH 903 0
DWIDTH 24 0
BBX 24 24 0 -2
BITMAP
000000
000000
000000
000000
000000
000000
000000
03F7E0
03FFE0
000C70
001C30
001830
003870
007060
00E060
00C060
000000
000000
000000
000000
000000
000000
000000
000000
ENDCHAR

STARTCHAR kor_A4A3
ENCODING 42147
SWIDTH 903 0
DWIDTH 24 0
BBX 24 24 0 -2
BITMAP
000000
000000
000000
000000
000000
000000
000000
07F180
07F980
003980
001980
001980
003BC0
007AF0
007778
006618
000000
000000
000000
000000
000000
000000
000000
000000
ENDCHAR

STARTCHAR kor_A4A4
ENCODING 42148
SWIDTH 903 0
DWIDTH 24 0
BBX 24 24 0 -2
BITMAP
000000
000000
000000
000000
000000
000000
000000
018000
018000
018000
018000
018070
01C3F0
00FFC0
007E00
000000
000000
000000
000000
000000
000000
000000
000000
000000
ENDCHAR

STARTCHAR kor_A4A5
ENCODING 42149
SWIDTH 903 0
DWIDTH 24 0
BBX 24 24 0 -2
BITMAP
000000
000000
000000
000000
000000
000000
000000
0303E0
0303F0
030030
030070
0300E0
038DF0
03FFB8
01FB18
000000
000000
000000
000000
000000
000000
000000
000000
000000
ENDCHAR

STARTCHAR kor_A4A6
ENCODING 42150
SWIDTH 903 0
DWIDTH 24 0
BBX 24 24 0 -2
BITMAP
000000
000000
000000
000000
000000
000000
000700
030780
0301E0
030EE0
030F90
0300F8
0381D8
03DBB8
01FBF8
0071E0
000000
000000
000000
000000
000000
000000
000000
000000
ENDCHAR

STARTCHAR kor_A4A7
ENCODING 42151
SWIDTH 903 0
DWIDTH 24 0
BBX 24 24 0 -2
BITMAP
000000
000000
000000
000000
000000
000000
000000
07FFC0
07FFC0
018000
018000
018000
01FFC0
00FFC0
000000
000000
000000
000000
000000
000000
000000
000000
000000
000000
ENDCHAR

STARTCHAR kor_A4A8
ENCODING 42152
SWIDTH 903 0
DWIDTH 24 0
BBX 24 24 0 -2
BITMAP
000000
000000
000000
000000
000000
000000
000000
07F7F8
07F7F8
030300
030300
038380
01F9F8
00F8F8
000000
000000
000000
000000
000000
000000
000000
000000
000000
000000
ENDCHAR

STARTCHAR kor_A4A9
ENCODING 42153
SWIDTH 903 0
DWIDTH 24 0
BBX 24 24 0 -2
BITMAP
000000
000000
000000
000000
000000
000000
000000
03FC00
03FE00
000600
000E60
001CE0
0039C0
003780
001F00
000000
000000
000000
000000
000000
000000
000000
000000
000000
ENDCHAR

STARTCHAR kor_A4AA
ENCODING 42154
SWIDTH 903 0
DWIDTH 24 0
BBX 24 24 0 -2
BITMAP
000000
000000
000000
000000
000000
000000
000000
03FBE0
03FFF0
000C38
003818
00F018
01EE38
019E70
00F860
000000
000000
000000
000000
000000
000000
000000
000000
000000
ENDCHAR

STARTCHAR kor_A4AB
ENCODING 42155
SWIDTH 903 0
DWIDTH 24 0
BBX 24 24 0 -2
BITMAP
000000
000000
000000
000000
000000
000000
000000
07E5F8
07F7F8
003618
00F638
01E670
039668
037638
01E000
000000
000000
000000
000000
000000
000000
000000
000000
000000
ENDCHAR

STARTCHAR kor_A4AC
ENCODING 42156
SWIDTH 903 0
DWIDTH 24 0
BBX 24 24 0 -2
BITMAP
000000
000000
000000
000000
000000
000000
000000
07E630
07F630
003630
0076B0
01E7F0
03D570
0337B0
01F5E0
000000
000000
000000
000000
000000
000000
000000
000000
000000
ENDCHAR

STARTCHAR kor_A4AD
ENCODING 42157
SWIDTH 903 0
DWIDTH 24 0
BBX 24 24 0 -2
BITMAP
000000
000000
000000
000000
000000
000000
0000C0
07E1C0
07F180
003380
00F300
01E7E0
0396F0
037E38
01EC18
000000
000000
000000
000000
000000
000000
000000
000000
000000
ENDCHAR

STARTCHAR kor_A4AE
ENCODING 42158
SWIDTH 903 0
DWIDTH 24 0
BBX 24 24 0 -2
BITMAP
000000
000000
000000
000000
000000
000000
000000
07E3E0
07F7E0
003600
00E7E0
01C600
03B600
0377F0
01E3F0
000000
000000
000000
000000
000000
000000
000000
000000
000000
ENDCHAR

STARTCHAR kor_A4AF
ENCODING 42159
SWIDTH 903 0
DWIDTH 24 0
BBX 24 24 0 -2
BITMAP
000000
000000
000000
000000
000000
000000
000000
0FEFF0
0FFFF0
003600
01E660
03C6E0
072FD8
06EFF8
03C000
000000
000000
000000
000000
000000
000000
000000
000000
000000
ENDCHAR

STARTCHAR kor_A4B0
ENCODING 42160
SWIDTH 903 0
DWIDTH 24 0
BBX 24 24 0 -2
BITMAP
000000
000000
000000
000000
000000
000380
0003E0
1FC1E0
1FEE60
006FD0
01C0F8
078198
0F79B8
0CF9F0
07C0E0
000000
000000
000000
000000
000000
000000
000000
000000
000000
ENDCHAR

STARTCHAR kor_A4B1
ENCODING 42161
SWIDTH 903 0
DWIDTH 24 0
BBX 24 24 0 -2
BITMAP
000000
000000
000000
000000
000000
000000
019E00
01FF00
017380
01C180
018300
0187E0
0186E0
018780
018000
000000
000000
000000
000000
000000
000000
000000
000000
000000
ENDCHAR

STARTCHAR kor_A4B2
ENCODING 42162
SWIDTH 903 0
DWIDTH 24 0
BBX 24 24 0 -2
BITMAP
000000
000000
000000
000000
000000
000000
00C0C0
01C0C0
0180C0
018EC0
019EC0
01BBC0
00B1C0
00FF80
005F00
000000
000000
000000
000000
000000
000000
000000
000000
000000
ENDCHAR

STARTCHAR kor_A4B3
ENCODING 42163
SWIDTH 903 0
DWIDTH 24 0
BBX 24 24 0 -2
BITMAP
000000
000000
000000
000000
000000
030C60
030C60
030C60
030C60
036F60
03FBE0
02DEE0
03BC60
01FFE0
00F7C0
000000
000000
000000
000000
000000
000000
000000
000000
000000
ENDCHAR

STARTCHAR kor_A4B4
ENCODING 42164
SWIDTH 903 0
DWIDTH 24 0
BBX 24 24 0 -2
BITMAP
000000
000000
000000
000000
000000
060000
061800
0618C0
0659C0
06F980
07BBC0
059EF0
07F678
02EC18
000000
000000
000000
000000
000000
000000
000000
000000
000000
000000
ENDCHAR

STARTCHAR kor_A4B5
ENCODING 42165
SWIDTH 903 0
DWIDTH 24 0
BBX 24 24 0 -2
BITMAP
000000
000000
000000
000000
000000
000000
000C00
001C00
003800
007C00
00EF00
01C7C0
0381E0
030060
000000
000000
000000
000000
000000
000000
000000
000000
000000
000000
ENDCHAR

STARTCHAR kor_A4B6
ENCODING 42166
SWIDTH 903 0
DWIDTH 24 0
BBX 24 24 0 -2
BITMAP
000000
000000
000000
000000
000000
000000
000000
0030C0
0071C0
01E380
03B6E0
071E70
0E0C38
0C1818
000000
000000
000000
000000
000000
000000
000000
000000
000000
000000
ENDCHAR

STARTCHAR kor_A4B7
ENCODING 42167
SWIDTH 903 0
DWIDTH 24 0
BBX 24 24 0 -2
BITMAP
000000
000000
000000
000000
000000
000000
001C00
003E00
007700
00E380
00C180
00E380
007F00
003E00
000000
000000
000000
000000
000000
000000
000000
000000
000000
000000
ENDCHAR

STARTCHAR kor_A4B8
ENCODING 42168
SWIDTH 903 0
DWIDTH 24 0
BBX 24 24 0 -2
BITMAP
000000
000000
000000
000000
000000
03F800
03FC00
000E00
000600
000C00
001F00
003BC0
0071C0
006000
000000
000000
000000
000000
000000
000000
000000
000000
000000
000000
ENDCHAR

STARTCHAR kor_A4B9
ENCODING 42169
SWIDTH 903 0
DWIDTH 24 0
BBX 24 24 0 -2
BITMAP
000000
000000
000000
000000
000000
000000
0FCF80
0FEFC0
0060C0
00E1C0
01C380
03E7C0
076EF0
063C78
001818
000000
000000
000000
000000
000000
000000
000000
000000
000000
ENDCHAR

STARTCHAR kor_A4BA
ENCODING 42170
SWIDTH 903 0
DWIDTH 24 0
BBX 24 24 0 -2
BITMAP
000000
000000
000000
000000
000000
007000
007800
019C00
01FE00
000600
000F00
001B80
0039C0
0070C0
006000
000000
000000
000000
000000
000000
000000
000000
000000
000000
ENDCHAR

STARTCHAR kor_A4BB
ENCODING 42171
SWIDTH 903 0
DWIDTH 24 0
BBX 24 24 0 -2
BITMAP
000000
000000
000000
000000
000000
000000
07FC00
07FE00
000700
000300
01FF00
01FF00
000300
000600
000600
000000
000000
000000
000000
000000
000000
000000
000000
000000
ENDCHAR

STARTCHAR kor_A4BC
ENCODING 42172
SWIDTH 903 0
DWIDTH 24 0
BBX 24 24 0 -2
BITMAP
000000
000000
000000
000000
000000
000000
07FF00
07FF00
018000
01FF00
01FF00
018000
01C380
00FF80
007E00
000000
000000
000000
000000
000000
000000
000000
000000
000000
ENDCHAR

STARTCHAR kor_A4BD
ENCODING 42173
SWIDTH 903 0
DWIDTH 24 0
BBX 24 24 0 -2
BITMAP
000000
000000
000000
000000
000000
000000
000000
0FFFC0
0FFFC0
006000
006380
006700
00FEE0
00FFE0
000000
000000
000000
000000
000000
000000
000000
000000
000000
000000
ENDCHAR

STARTCHAR kor_A4BE
ENCODING 42174
SWIDTH 903 0
DWIDTH 24 0
BBX 24 24 0 -2
BITMAP
000000
000000
000000
000000
007800
007C00
001E00
03E600
03F800
002E00
006700
00E300
00C600
00FE00
007C00
000000
000000
000000
000000
000000
000000
000000
000000
000000
ENDCHAR

STARTCHAR kor_A4BF
ENCODING 42175
SWIDTH 903 0
DWIDTH 24 0
BBX 24 24 0 -2
BITMAP
000000
000000
000C00
000C00
000C00
000C00
000C00
000C00
000C00
000F80
000F80
000C00
000C00
000C00
000C00
000C00
000C00
000C00
000C00
000C00
000000
000000
000000
000000
ENDCHAR

STARTCHAR kor_A4C0
ENCODING 42176
SWIDTH 903 0
DWIDTH 24 0
BBX 24 24 0 -2
BITMAP
000000
000000
000C00
001D80
001980
001980
001980
001980
001980
001F80
001F80
001980
001980
001980
001980
001980
001980
0019C0
0018C0
000000
000000
000000
000000
000000
ENDCHAR

STARTCHAR kor_A4C1
ENCODING 42177
SWIDTH 903 0
DWIDTH 24 0
BBX 24 24 0 -2
BITMAP
000000
000000
000C00
000C00
000C00
000C00
000C00
000F80
000F80
000C00
000FC0
000FC0
000C00
000C00
000C00
000C00
000C00
000E00
000600
000000
000000
000000
000000
000000
ENDCHAR

STARTCHAR kor_A4C2
ENCODING 42178
SWIDTH 903 0
DWIDTH 24 0
BBX 24 24 0 -2
BITMAP
000000
000180
001980
001980
003980
003180
003180
003F80
003F80
003180
003F80
003F00
003300
003300
003300
003380
003180
003980
0019C0
0000C0
000000
000000
000000
000000
ENDCHAR

STARTCHAR kor_A4C3
ENCODING 42179
SWIDTH 903 0
DWIDTH 24 0
BBX 24 24 0 -2
BITMAP
000000
000000
000180
000180
000380
000300
000300
000300
007F00
007F00
000300
000300
000300
000300
000300
000300
000300
000380
000180
000180
000000
000000
000000
000000
ENDCHAR

STARTCHAR kor_A4C4
ENCODING 42180
SWIDTH 903 0
DWIDTH 24 0
BBX 24 24 0 -2
BITMAP
000000
0000C0
0018C0
0018C0
0018C0
0018C0
0018C0
0018C0
01F8C0
01F8C0
0018C0
0018C0
0018C0
0018C0
0018C0
0018C0
0018C0
0018C0
001CC0
000CE0
000060
000000
000000
000000
ENDCHAR

STARTCHAR kor_A4C5
ENCODING 42181
SWIDTH 903 0
DWIDTH 24 0
BBX 24 24 0 -2
BITMAP
000000
000000
0000C0
0001C0
0001C0
000180
00FF80
00FF00
000300
000300
00FF00
00FF00
000300
000300
000300
000380
000180
000180
000180
000180
000000
000000
000000
000000
ENDCHAR

STARTCHAR kor_A4C6
ENCODING 42182
SWIDTH 903 0
DWIDTH 24 0
BBX 24 24 0 -2
BITMAP
000000
000000
000060
000C60
000CE0
001CC0
0018C0
00F8C0
00F8C0
0018C0
01F8C0
01F8C0
0018C0
0018C0
0018C0
001CC0
000CC0
000CC0
000CC0
000CE0
000060
000000
000000
000000
ENDCHAR

STARTCHAR kor_A4C7
ENCODING 42183
SWIDTH 903 0
DWIDTH 24 0
BBX 24 24 0 -2
BITMAP
000000
000000
000000
000000
000000
000000
000000
000C00
000C00
000C00
000C00
000C00
07FFF8
07FFF8
000000
000000
000000
000000
000000
000000
000000
000000
000000
000000
ENDCHAR

STARTCHAR kor_A4C8
ENCODING 42184
SWIDTH 903 0
DWIDTH 24 0
BBX 24 24 0 -2
BITMAP
000000
000000
000030
000030
000030
000030
000070
00006C
0000FC
0301E0
070360
060760
070E60
031C60
03F860
01F070
000030
000038
000018
000000
000000
000000
000000
000000
ENDCHAR

STARTCHAR kor_A4C9
ENCODING 42185
SWIDTH 903 0
DWIDTH 24 0
BBX 24 24 0 -2
BITMAP
000000
000000
000000
000198
000198
000198
000198
0001F8
0001F8
0C01B0
0C03B0
0C07B0
0E0DB0
063DB0
07FBB0
03E330
0003B0
0001B0
000030
000000
000000
000000
000000
000000
ENDCHAR

STARTCHAR kor_A4CA
ENCODING 42186
SWIDTH 903 0
DWIDTH 24 0
BBX 24 24 0 -2
BITMAP
000000
000000
000030
000030
000030
000030
000030
000070
0300F0
0701B0
0603B0
060730
070E30
031C30
03F830
01F030
000030
000030
000030
000000
000000
000000
000000
000000
ENDCHAR

STARTCHAR kor_A4CB
ENCODING 42187
SWIDTH 903 0
DWIDTH 24 0
BBX 24 24 0 -2
BITMAP
000000
000000
000000
000000
000000
000000
000000
018C00
018C00
019C00
019800
01D800
00D838
00DCF8
00CFE0
000780
000000
000000
000000
000000
000000
000000
000000
000000
ENDCHAR

STARTCHAR kor_A4CC
ENCODING 42188
SWIDTH 903 0
DWIDTH 24 0
BBX 24 24 0 -2
BITMAP
000000
000000
000000
000000
000000
000000
000000
0FFFFC
0FFFFC
000600
000600
000600
000600
000600
000600
000600
000600
000600
000000
000000
000000
000000
000000
000000
ENDCHAR

STARTCHAR kor_A4CD
ENCODING 42189
SWIDTH 903 0
DWIDTH 24 0
BBX 24 24 0 -2
BITMAP
000000
00000C
00001C
000038
000030
000030
000030
000030
000030
1FE030
1FF030
0037F0
001FF0
001830
003830
007030
00E038
00C018
000018
000000
000000
000000
000000
000000
ENDCHAR

STARTCHAR kor_A4CE
ENCODING 42190
SWIDTH 903 0
DWIDTH 24 0
BBX 24 24 0 -2
BITMAP
000000
000000
000000
00000C
00005C
0000D8
0000D8
0000D8
1C00D8
1FFED8
07FED8
0060D8
0037D8
0037D8
0030D8
0070D8
00601C
00600C
000000
000000
000000
000000
000000
000000
ENDCHAR

STARTCHAR kor_A4CF
ENCODING 42191
SWIDTH 903 0
DWIDTH 24 0
BBX 24 24 0 -2
BITMAP
000000
000000
000000
00000C
00001C
00001C
000018
000018
000018
003FD8
0FFFD8
1FE018
1C6018
006018
007018
003018
003818
00181C
00000C
000000
000000
000000
000000
000000
ENDCHAR

STARTCHAR kor_A4D0
ENCODING 42192
SWIDTH 903 0
DWIDTH 24 0
BBX 24 24 0 -2
BITMAP
000000
000000
000000
000000
000000
000000
000000
03FFFC
0FFFFC
0F3180
003300
007300
006300
006300
006300
007300
003380
000180
000000
000000
000000
000000
000000
000000
ENDCHAR

STARTCHAR kor_A4D1
ENCODING 42193
SWIDTH 903 0
DWIDTH 24 0
BBX 24 24 0 -2
BITMAP
000000
000000
000000
000000
000000
000000
000000
000000
000000
000000
0C0018
0FFFF8
07FFF0
000000
000000
000000
000000
000000
000000
000000
000000
000000
000000
000000
ENDCHAR

STARTCHAR kor_A4D2
ENCODING 42194
SWIDTH 903 0
DWIDTH 24 0
BBX 24 24 0 -2
BITMAP
000000
000000
00000C
00000C
00000C
00000C
00000C
00000C
00001C
000018
000018
000018
000038
0003F8
003FDC
3FFE0C
3FE00C
00000C
00000E
000006
000000
000000
000000
000000
ENDCHAR

STARTCHAR kor_A4D3
ENCODING 42195
SWIDTH 903 0
DWIDTH 24 0
BBX 24 24 0 -2
BITMAP
000000
000000
000300
000700
000600
000600
000600
000600
000600
000600
000600
000600
000600
000600
000600
000600
000700
000300
000300
000300
000000
000000
000000
000000
ENDCHAR

STARTCHAR kor_A4D4
ENCODING 42196
SWIDTH 903 0
DWIDTH 24 0
BBX 24 24 0 -2
BITMAP
000000
000000
000000
000000
000000
000000
000000
000000
000000
000000
000000
000000
000000
000000
000000
000000
000000
000000
000000
000000
000000
000000
000000
000000
ENDCHAR

STARTCHAR kor_A4D5
ENCODING 42197
SWIDTH 903 0
DWIDTH 24 0
BBX 24 24 0 -2
BITMAP
000000
000000
000000
000000
000000
000000
018000
038300
030700
030600
038600
018F18
01FBF8
00F9F0
000000
000000
000000
000000
000000
000000
000000
000000
000000
000000
ENDCHAR

STARTCHAR kor_A4D6
ENCODING 42198
SWIDTH 903 0
DWIDTH 24 0
BBX 24 24 0 -2
BITMAP
000000
000000
000000
000000
000000
000000
000000
0187FC
0187FC
018180
018380
018F80
01FDF8
00F8F8
000000
000000
000000
000000
000000
000000
000000
000000
000000
000000
ENDCHAR

STARTCHAR kor_A4D7
ENCODING 42199
SWIDTH 903 0
DWIDTH 24 0
BBX 24 24 0 -2
BITMAP
000000
000000
000000
000000
000000
000000
060300
060300
0E0300
0C0300
0C0780
0E35C0
067EE0
07EC70
03D830
000000
000000
000000
000000
000000
000000
000000
000000
000000
ENDCHAR

STARTCHAR kor_A4D8
ENCODING 42200
SWIDTH 903 0
DWIDTH 24 0
BBX 24 24 0 -2
BITMAP
000000
000000
000000
000000
000000
000000
000000
0301C0
0703E0
060360
060770
070630
036E38
03EDD8
01C7F0
000000
000000
000000
000000
000000
000000
000000
000000
000000
ENDCHAR

STARTCHAR kor_A4D9
ENCODING 42201
SWIDTH 903 0
DWIDTH 24 0
BBX 24 24 0 -2
BITMAP
000000
000000
000000
000000
000000
000000
000000
1FBE30
1FFF30
00C330
01C370
0387E0
0706B8
0E6D9C
0DEF8E
07C306
000000
000000
000000
000000
000000
000000
000000
000000
ENDCHAR

STARTCHAR kor_A4DA
ENCODING 42202
SWIDTH 903 0
DWIDTH 24 0
BBX 24 24 0 -2
BITMAP
000000
000000
000000
000000
000000
000000
000000
0FEFF8
0FEFF8
006300
01C600
038718
077BF8
06F9F0
03C000
000000
000000
000000
000000
000000
000000
000000
000000
000000
ENDCHAR

STARTCHAR kor_A4DB
ENCODING 42203
SWIDTH 903 0
DWIDTH 24 0
BBX 24 24 0 -2
BITMAP
000000
000000
000000
000000
000000
000000
1FB330
1FB330
00B370
01B360
03BFF0
073EB8
0E73DC
0DFF8E
07DE06
000000
000000
000000
000000
000000
000000
000000
000000
000000
ENDCHAR

STARTCHAR kor_A4DC
ENCODING 42204
SWIDTH 903 0
DWIDTH 24 0
BBX 24 24 0 -2
BITMAP
000000
000000
000000
000000
000000
000000
000000
000000
0FC0C0
0FE1C0
0063E0
01C360
038770
077E38
06FDD8
03CFF8
000000
000000
000000
000000
000000
000000
000000
000000
ENDCHAR

STARTCHAR kor_A4DD
ENCODING 42205
SWIDTH 903 0
DWIDTH 24 0
BBX 24 24 0 -2
BITMAP
000000
000000
000000
000000
000000
000000
000000
07EFF8
07FFF8
003000
00E3E0
01C770
039E30
037FF0
01F3E0
000000
000000
000000
000000
000000
000000
000000
000000
000000
ENDCHAR

STARTCHAR kor_A4DE
ENCODING 42206
SWIDTH 903 0
DWIDTH 24 0
BBX 24 24 0 -2
BITMAP
000000
000000
000000
000000
000000
000000
000600
03EE30
0FEC30
0C2DF0
0C2FF0
0C6B30
0CEB30
0FDFF0
0BF5E0
000000
000000
000000
000000
000000
000000
000000
000000
000000
ENDCHAR

STARTCHAR kor_A4DF
ENCODING 42207
SWIDTH 903 0
DWIDTH 24 0
BBX 24 24 0 -2
BITMAP
000000
000000
000000
000000
000000
000000
000000
05F060
07F860
0718E0
0618C0
0639E0
067360
07E770
05F638
000018
000000
000000
000000
000000
000000
000000
000000
000000
ENDCHAR

STARTCHAR kor_A4E0
ENCODING 42208
SWIDTH 903 0
DWIDTH 24 0
BBX 24 24 0 -2
BITMAP
000000
000000
000000
000000
000000
000000
000060
0BF0E0
0FF8F0
0C19B8
0C1B98
0C3B1C
0CF70E
0DE6F6
0DF7FC
000000
000000
000000
000000
000000
000000
000000
000000
000000
ENDCHAR

STARTCHAR kor_A4E1
ENCODING 42209
SWIDTH 903 0
DWIDTH 24 0
BBX 24 24 0 -2
BITMAP
000000
000000
000000
00BF00
00FF80
00C180
00C180
00C380
00C700
00CE80
00DF80
001C00
002200
007F00
00E380
00C180
00C180
00E380
007F00
003E00
000000
000000
000000
000000
ENDCHAR

STARTCHAR kor_A4E2
ENCODING 42210
SWIDTH 903 0
DWIDTH 24 0
BBX 24 24 0 -2
BITMAP
000000
000000
000000
000000
000000
000000
000000
060000
0E17F0
0C1FF8
0C1818
0CD818
0DF838
0FB830
0B1870
0B19E0
0BFFC0
01F700
000000
000000
000000
000000
000000
000000
ENDCHAR

STARTCHAR kor_A4E3
ENCODING 42211
SWIDTH 903 0
DWIDTH 24 0
BBX 24 24 0 -2
BITMAP
000000
000000
000000
000000
000000
000000
0C0000
1C17FC
181FFC
181B00
181B00
19FB00
1BFB00
1B1B0C
1B3BFC
0FF1F8
05E000
000000
000000
000000
000000
000000
000000
000000
ENDCHAR

STARTCHAR kor_A4E4
ENCODING 42212
SWIDTH 903 0
DWIDTH 24 0
BBX 24 24 0 -2
BITMAP
000000
000000
000000
000000
000000
0C0000
1C3180
1831FE
18337F
19B303
1BF703
1F7783
163DC3
162CE7
17FC6E
03D82C
000000
000000
000000
000000
000000
000000
000000
000000
ENDCHAR

STARTCHAR kor_A4E5
ENCODING 42213
SWIDTH 903 0
DWIDTH 24 0
BBX 24 24 0 -2
BITMAP
000000
000000
000000
000000
000000
000000
0C62FF
1C66FF
186660
186E60
1FEC60
17FF60
1C5B60
18F9F3
0FB0BF
07705E
000000
000000
000000
000000
000000
000000
000000
000000
ENDCHAR

STARTCHAR kor_A4E6
ENCODING 42214
SWIDTH 903 0
DWIDTH 24 0
BBX 24 24 0 -2
BITMAP
000000
000000
000000
000000
000000
060000
060C00
060FE0
060FF0
066C30
06FC70
07DCE0
058FB8
07DB9C
06FF0C
037000
000000
000000
000000
000000
000000
000000
000000
000000
ENDCHAR

STARTCHAR kor_A4E7
ENCODING 42215
SWIDTH 903 0
DWIDTH 24 0
BBX 24 24 0 -2
BITMAP
000000
000000
000000
000000
000000
000000
030000
070FFC
060FFC
060B00
067BFC
07FBFC
05CB00
058B0C
059FFC
07FDF8
02F000
000000
000000
000000
000000
000000
000000
000000
ENDCHAR

STARTCHAR kor_A4E8
ENCODING 42216
SWIDTH 903 0
DWIDTH 24 0
BBX 24 24 0 -2
BITMAP
000000
006000
00E000
00C180
00C180
00C180
00DF80
00FF80
00B180
00B380
00FF00
005E00
002000
007F00
00E380
00C180
00C180
00E380
007F00
003E00
000000
000000
000000
000000
ENDCHAR

STARTCHAR kor_A4E9
ENCODING 42217
SWIDTH 903 0
DWIDTH 24 0
BBX 24 24 0 -2
BITMAP
000000
000000
000000
000C00
030C60
030C60
03FFE0
03FFE0
030C60
039E60
01F7E0
00F3C0
000C00
007F80
00E1C0
00C0C0
00C0C0
00E1C0
007F80
003F00
000000
000000
000000
000000
ENDCHAR

STARTCHAR kor_A4EA
ENCODING 42218
SWIDTH 903 0
DWIDTH 24 0
BBX 24 24 0 -2
BITMAP
000000
000000
000000
000000
000000
00CFE0
00CFF0
00C038
01C018
038018
02E038
077070
0E39E0
1C1FC0
180700
000000
000000
000000
000000
000000
000000
000000
000000
000000
ENDCHAR

STARTCHAR kor_A4EB
ENCODING 42219
SWIDTH 903 0
DWIDTH 24 0
BBX 24 24 0 -2
BITMAP
000000
000000
000000
000000
000000
006300
006700
006600
00E600
00C600
01E600
037600
073F1C
0E1BFC
0C0DF0
000000
000000
000000
000000
000000
000000
000000
000000
000000
ENDCHAR

STARTCHAR kor_A4EC
ENCODING 42220
SWIDTH 903 0
DWIDTH 24 0
BBX 24 24 0 -2
BITMAP
000000
000000
000000
000000
000000
006000
006FF8
006FF8
00E600
00E600
01E600
037600
073F18
0E1BF8
0C0DF0
000000
000000
000000
000000
000000
000000
000000
000000
000000
ENDCHAR

STARTCHAR kor_A4ED
ENCODING 42221
SWIDTH 903 0
DWIDTH 24 0
BBX 24 24 0 -2
BITMAP
000000
000000
000000
000000
000000
006018
00EC18
00CC18
01CC18
018DF8
03CFF8
06CB18
0EEB18
1C7FF8
1835F0
000000
000000
000000
000000
000000
000000
000000
000000
000000
ENDCHAR

STARTCHAR kor_A4EE
ENCODING 42222
SWIDTH 903 0
DWIDTH 24 0
BBX 24 24 0 -2
BITMAP
000000
000000
000000
000000
000000
00C000
01DFC0
019FE0
038060
0300E0
0781C0
0DC780
1CDEE0
387C60
303000
000000
000000
000000
000000
000000
000000
000000
000000
000000
ENDCHAR

STARTCHAR kor_A4EF
ENCODING 42223
SWIDTH 903 0
DWIDTH 24 0
BBX 24 24 0 -2
BITMAP
000000
000000
000000
000000
000000
000000
000C00
001C00
003E00
007600
006700
00E300
00C380
01C1C0
01BEC0
00FF80
000000
000000
000000
000000
000000
000000
000000
000000
ENDCHAR

STARTCHAR kor_A4F0
ENCODING 42224
SWIDTH 903 0
DWIDTH 24 0
BBX 24 24 0 -2
BITMAP
000000
000000
000000
000000
000000
000000
01C1C0
03E3E0
077770
073630
063630
063630
063670
07F7E0
03E3C0
000000
000000
000000
000000
000000
000000
000000
000000
000000
ENDCHAR

STARTCHAR kor_A4F1
ENCODING 42225
SWIDTH 903 0
DWIDTH 24 0
BBX 24 24 0 -2
BITMAP
000000
000000
000000
000000
000000
000000
000000
003F00
007F80
00E1C0
00C0C0
00C0C0
00E1C0
007F80
003F00
000000
000000
000000
000000
000000
000000
000000
000000
000000
ENDCHAR

STARTCHAR kor_A4F2
ENCODING 42226
SWIDTH 903 0
DWIDTH 24 0
BBX 24 24 0 -2
BITMAP
000000
000000
000000
000000
000000
01C000
03E180
077180
063180
063380
063300
0637C0
077EE0
03EC70
01D838
003018
000000
000000
000000
000000
000000
000000
000000
000000
ENDCHAR

STARTCHAR kor_A4F3
ENCODING 42227
SWIDTH 903 0
DWIDTH 24 0
BBX 24 24 0 -2
BITMAP
000000
000000
000000
000000
000000
000000
03C000
07E380
0673C0
0E36E0
0C3660
0C3E70
0E6C30
07EFF0
03C7E0
000000
000000
000000
000000
000000
000000
000000
000000
000000
ENDCHAR

STARTCHAR kor_A4F4
ENCODING 42228
SWIDTH 903 0
DWIDTH 24 0
BBX 24 24 0 -2
BITMAP
000000
000000
000000
01FFC0
01FFC0
006300
006300
006700
006600
006EC0
01FDC0
01FF80
000000
007F00
00E380
00C180
00C180
00E380
007F00
003E00
000000
000000
000000
000000
ENDCHAR

STARTCHAR kor_A4F5
ENCODING 42229
SWIDTH 903 0
DWIDTH 24 0
BBX 24 24 0 -2
BITMAP
000000
000000
000000
000000
01C300
01E3C0
00F1E0
073E60
07EFC0
0071E0
03FB60
031F70
071630
063670
07F7E0
03E3C0
000000
000000
000000
000000
000000
000000
000000
000000
ENDCHAR

STARTCHAR kor_A4F6
ENCODING 42230
SWIDTH 903 0
DWIDTH 24 0
BBX 24 24 0 -2
BITMAP
000000
000000
000000
000000
000000
000000
07FFF0
07FFF0
000000
007F00
00E380
00C180
00C180
00E380
007F00
003E00
000000
000000
000000
000000
000000
000000
000000
000000
ENDCHAR

STARTCHAR kor_A4F7
ENCODING 42231
SWIDTH 903 0
DWIDTH 24 0
BBX 24 24 0 -2
BITMAP
000000
000000
000000
000060
000060
000060
000060
000060
000060
00007C
00007E
006C66
006C78
007C7E
0FDBE0
0FFFE0
000060
000070
000030
000030
000000
000000
000000
000000
ENDCHAR

STARTCHAR kor_A4F8
ENCODING 42232
SWIDTH 903 0
DWIDTH 24 0
BBX 24 24 0 -2
BITMAP
000000
000000
000000
00006C
00006C
00006C
00006C
00006C
00006C
00007C
00007C
006C6C
006C7C
006C6C
0E6C6C
0FBFEC
03FFEC
00006C
00006C
000000
000000
000000
000000
000000
ENDCHAR

STARTCHAR kor_A4F9
ENCODING 42233
SWIDTH 903 0
DWIDTH 24 0
BBX 24 24 0 -2
BITMAP
000000
000000
000000
000018
000038
000030
000030
000030
000030
000030
000030
006C30
006C30
006C30
0F6C30
0FFFF0
01FFF0
000030
000038
000018
000000
000000
000000
000000
ENDCHAR

STARTCHAR kor_A4FA
ENCODING 42234
SWIDTH 903 0
DWIDTH 24 0
BBX 24 24 0 -2
BITMAP
000000
000000
000018
000018
000018
000018
000018
0007F8
0007F8
000018
0007F8
0007F8
000018
007FF8
0FFFF8
0FE618
006C18
006C18
006C18
000018
000000
000000
000000
000000
ENDCHAR

STARTCHAR kor_A4FB
ENCODING 42235
SWIDTH 903 0
DWIDTH 24 0
BBX 24 24 0 -2
BITMAP
000000
000000
00006C
00006C
00006C
00006C
00006C
0007EC
0007EC
00006C
000FEC
000FEC
00006C
1FFF6C
1FFF6C
01986C
00D86C
00D86C
00006C
000000
000000
000000
000000
000000
ENDCHAR

STARTCHAR kor_A4FC
ENCODING 42236
SWIDTH 903 0
DWIDTH 24 0
BBX 24 24 0 -2
BITMAP
000000
000000
000030
000030
000030
000030
000030
000030
000030
000030
000030
000030
000030
000030
1FFFF0
1FFFF0
00CC30
00DC30
00D800
000000
000000
000000
000000
000000
ENDCHAR

STARTCHAR kor_A4FD
ENCODING 42237
SWIDTH 903 0
DWIDTH 24 0
BBX 24 24 0 -2
BITMAP
000000
000000
000000
000000
000000
000000
000000
000000
000000
000C00
001E00
001E00
001E00
000C00
000000
000000
000000
000000
000000
000000
000000
000000
000000
000000
ENDCHAR

STARTCHAR kor_A4FE
ENCODING 42238
SWIDTH 903 0
DWIDTH 24 0
BBX 24 24 0 -2
BITMAP
000000
000000
000000
0000C0
0000C0
0000C0
0000C0
0000C0
0000C0
0060C0
00F0C0
00F0C0
00F0C0
0060C0
0000C0
0000C0
0000C0
0000C0
0000C0
0000C0
000000
000000
000000
000000
ENDCHAR

STARTCHAR kor_A5A1
ENCODING 42401
SWIDTH 903 0
DWIDTH 24 0
BBX 24 24 0 -2
BITMAP
000000
000000
001C00
001C00
001C00
000000
000000
000C00
003C00
003C00
001C00
001C00
001C00
001C00
001C00
001C00
001C00
001C00
001C00
007F00
007F00
000000
000000
000000
ENDCHAR

STARTCHAR kor_A5A2
ENCODING 42402
SWIDTH 903 0
DWIDTH 24 0
BBX 24 24 0 -2
BITMAP
000000
000000
00E380
00E380
00E380
000000
000000
006180
01E780
01E780
00E380
00E380
00E380
00E380
00E380
00E380
00E380
00E380
00E380
03EFE0
03EFE0
000000
000000
000000
ENDCHAR

STARTCHAR kor_A5A3
ENCODING 42403
SWIDTH 903 0
DWIDTH 24 0
BBX 24 24 0 -2
BITMAP
000000
000000
039CE0
039CE0
039CE0
000000
000000
018C60
07BDE0
07BDE0
039CE0
039CE0
039CE0
039CE0
039CE0
039CE0
039CE0
039CE0
039CE0
0FBDF8
0FBDF8
000000
000000
000000
ENDCHAR

STARTCHAR kor_A5A4
ENCODING 42404
SWIDTH 903 0
DWIDTH 24 0
BBX 24 24 0 -2
BITMAP
000000
000000
038000
038000
038000
000000
000000
018000
07BE78
07BE78
039C30
039C30
039E70
038E60
038E60
038EE0
0386C0
0386C0
0387C0
0FE380
0FE380
000000
000000
000000
ENDCHAR

STARTCHAR kor_A5A5
ENCODING 42405
SWIDTH 903 0
DWIDTH 24 0
BBX 24 24 0 -2
BITMAP
000000
000000
000000
000000
000000
000000
000000
000000
01F3C0
01F3C0
00E180
00E180
00F380
007300
007300
007700
003600
003600
003E00
001C00
001C00
000000
000000
000000
ENDCHAR

STARTCHAR kor_A5A6
ENCODING 42406
SWIDTH 903 0
DWIDTH 24 0
BBX 24 24 0 -2
BITMAP
000000
000000
0000E0
0000E0
0000E0
000000
000000
000060
0F9DE0
0F9DE0
070CE0
070CE0
079CE0
0398E0
0398E0
03B8E0
01B0E0
01B0E0
01F0E0
00E3F8
00E3F8
000000
000000
000000
ENDCHAR

STARTCHAR kor_A5A7
ENCODING 42407
SWIDTH 903 0
DWIDTH 24 0
BBX 24 24 0 -2
BITMAP
000000
000000
00039C
00039C
00039C
000000
000000
00018C
3E77BC
3E77BC
1C339C
1C339C
1E739C
0E639C
0E639C
0EE39C
06C39C
06C39C
07C39C
038FBF
038FBF
000000
000000
000000
ENDCHAR

STARTCHAR kor_A5A8
ENCODING 42408
SWIDTH 903 0
DWIDTH 24 0
BBX 24 24 0 -2
BITMAP
000000
000000
000EEE
000EEE
000EEE
000000
000000
000666
7CFFFE
7CFDDE
386EEE
386EEE
3CEEEE
1CCEEE
1CCEEE
1DCEEE
0D8EEE
0D8EEE
0F8EEE
071FFF
071DDF
000000
000000
000000
ENDCHAR

STARTCHAR kor_A5A9
ENCODING 42409
SWIDTH 903 0
DWIDTH 24 0
BBX 24 24 0 -2
BITMAP
000000
000000
038000
038000
038000
000000
000000
018000
07BE78
07BE78
039C30
038E60
038EE0
0387C0
038380
0387C0
038DE0
038CE0
039CF0
0FB878
0FBCF8
000000
000000
000000
ENDCHAR

STARTCHAR kor_A5AA
ENCODING 42410
SWIDTH 903 0
DWIDTH 24 0
BBX 24 24 0 -2
BITMAP
000000
000000
000000
000000
000000
000000
000000
000000
01F3C0
01F3C0
00E180
007300
007700
003E00
001C00
003E00
006F00
006700
00E780
01C3C0
01E7C0
000000
000000
000000
ENDCHAR

STARTCHAR kor_A5B0
ENCODING 42416
SWIDTH 903 0
DWIDTH 24 0
BBX 24 24 0 -2
BITMAP
000000
007F00
007F00
001C00
001C00
001C00
001C00
001C00
001C00
001C00
001C00
001C00
001C00
001C00
001C00
001C00
001C00
001C00
001C00
007F00
007F00
000000
000000
000000
ENDCHAR

STARTCHAR kor_A5B1
ENCODING 42417
SWIDTH 903 0
DWIDTH 24 0
BBX 24 24 0 -2
BITMAP
000000
03FFE0
03FFE0
00E380
00E380
00E380
00E380
00E380
00E380
00E380
00E380
00E380
00E380
00E380
00E380
00E380
00E380
00E380
00E380
03FFE0
03FFE0
000000
000000
000000
ENDCHAR

STARTCHAR kor_A5B2
ENCODING 42418
SWIDTH 903 0
DWIDTH 24 0
BBX 24 24 0 -2
BITMAP
000000
07FFF0
07FFF0
01DDC0
01DDC0
01DDC0
01DDC0
01DDC0
01DDC0
01DDC0
01DDC0
01DDC0
01DDC0
01DDC0
01DDC0
01DDC0
01DDC0
01DDC0
01DDC0
07FFF0
07FFF0
000000
000000
000000
ENDCHAR

STARTCHAR kor_A5B3
ENCODING 42419
SWIDTH 903 0
DWIDTH 24 0
BBX 24 24 0 -2
BITMAP
000000
0FFC3E
0FFC3E
037818
03B838
03BC30
039C30
039C30
039C70
039E60
038E60
038E60
038EE0
038EC0
0386C0
0387C0
038780
038780
038380
0FE300
0FE300
000000
000000
000000
ENDCHAR

STARTCHAR kor_A5B4
ENCODING 42420
SWIDTH 903 0
DWIDTH 24 0
BBX 24 24 0 -2
BITMAP
000000
0FC0F8
0FC0F8
078060
0380C0
03C0C0
01C1C0
01C180
01E180
00E380
00E300
00F300
007700
007600
007600
003E00
003C00
001C00
001C00
001800
001800
000000
000000
000000
ENDCHAR

STARTCHAR kor_A5B5
ENCODING 42421
SWIDTH 903 0
DWIDTH 24 0
BBX 24 24 0 -2
BITMAP
000000
1F87FC
1F87FC
0F0370
070770
078670
038670
038670
038E70
03CC70
01CC70
01CC70
01DC70
01D870
00D870
00F870
00F070
00F070
007070
0061FC
0061FC
000000
000000
000000
ENDCHAR

STARTCHAR kor_A5B6
ENCODING 42422
SWIDTH 903 0
DWIDTH 24 0
BBX 24 24 0 -2
BITMAP
000000
3F3FFC
3F3FFC
1E1770
0E1770
0E3770
0E3770
0F3770
073770
077770
076770
076770
076770
036770
03E770
03C770
03C770
03C770
018770
019FFC
019FFC
000000
000000
000000
ENDCHAR

STARTCHAR kor_A5B7
ENCODING 42423
SWIDTH 903 0
DWIDTH 24 0
BBX 24 24 0 -2
BITMAP
000000
3F3FFF
3F3FFF
1E16DC
0E16DC
0E36DC
0E36DC
0F36DC
0736DC
0776DC
0766DC
0766DC
0766DC
0366DC
03E6DC
03C6DC
03C6DC
03C6DC
0186DC
019FFF
019FFF
000000
000000
000000
ENDCHAR

STARTCHAR kor_A5B8
ENCODING 42424
SWIDTH 903 0
DWIDTH 24 0
BBX 24 24 0 -2
BITMAP
000000
0FFC7C
0FFC7C
03B830
03BC70
039C60
039EE0
038EC0
038FC0
038580
038780
038700
038F80
038DC0
038DC0
039DE0
0398E0
03B8F0
03B070
0FF8FC
0FF8FC
000000
000000
000000
ENDCHAR

STARTCHAR kor_A5B9
ENCODING 42425
SWIDTH 903 0
DWIDTH 24 0
BBX 24 24 0 -2
BITMAP
000000
07E0F0
07E0F0
03C060
01E0C0
00E1C0
00F380
007300
007700
003600
003E00
001C00
003E00
006E00
006F00
00E700
01C780
0183C0
0383E0
0701F0
0783F0
000000
000000
000000
ENDCHAR

STARTCHAR kor_A5C1
ENCODING 42433
SWIDTH 903 0
DWIDTH 24 0
BBX 24 24 0 -2
BITMAP
000000
001800
001800
003C00
003C00
003E00
006E00
006F00
00E700
00C780
00C380
01C3C0
0181C0
03FFE0
03FFE0
0700F0
060070
0E0078
0C0038
3F00FE
3F00FE
000000
000000
000000
ENDCHAR

STARTCHAR kor_A5C2
ENCODING 42434
SWIDTH 903 0
DWIDTH 24 0
BBX 24 24 0 -2
BITMAP
000000
000000
0FFF00
0FFFC0
0381E0
0380F0
038070
038070
0380F0
0380E0
03FFC0
03FFA0
0380F0
038078
038038
038038
038038
038078
0380F0
0FFFE0
0FFF80
000000
000000
000000
ENDCHAR

STARTCHAR kor_A5C3
ENCODING 42435
SWIDTH 903 0
DWIDTH 24 0
BBX 24 24 0 -2
BITMAP
000000
000000
0FFFF8
0FFFF8
038038
038018
038018
038018
038000
038000
038000
038000
038000
038000
038000
038000
038000
038000
038000
0FE000
0FE000
000000
000000
000000
ENDCHAR

STARTCHAR kor_A5C4
ENCODING 42436
SWIDTH 903 0
DWIDTH 24 0
BBX 24 24 0 -2
BITMAP
000000
001800
001800
003C00
003C00
003E00
006E00
006F00
00E700
00C780
00C380
01C3C0
0181C0
0381E0
0300E0
0700F0
060070
0E0078
0DFFB8
1FFFFC
1FFFFC
000000
000000
000000
ENDCHAR

STARTCHAR kor_A5C5
ENCODING 42437
SWIDTH 903 0
DWIDTH 24 0
BBX 24 24 0 -2
BITMAP
000000
000000
1FFFE0
1FFFE0
0700E0
070060
070060
070300
070300
070700
07FF00
07FF00
070700
070300
070300
070030
070030
070030
070070
1FFFF0
1FFFF0
000000
000000
000000
ENDCHAR

STARTCHAR kor_A5C6
ENCODING 42438
SWIDTH 903 0
DWIDTH 24 0
BBX 24 24 0 -2
BITMAP
000000
000000
07FFF8
07FFF8
0700F0
0601E0
0603C0
0603C0
000780
000F00
001F00
001E00
003C00
007800
00F800
00F018
01E018
03C018
07C038
0FBFF8
0FFFF8
000000
000000
000000
ENDCHAR

STARTCHAR kor_A5C7
ENCODING 42439
SWIDTH 903 0
DWIDTH 24 0
BBX 24 24 0 -2
BITMAP
000000
000000
1FC1FC
1FC1FC
070070
070070
070070
070070
070070
070070
07FFF0
07FFF0
070070
070070
070070
070070
070070
070070
070070
1FC1FC
1FC1FC
000000
000000
000000
ENDCHAR

STARTCHAR kor_A5C8
ENCODING 42440
SWIDTH 903 0
DWIDTH 24 0
BBX 24 24 0 -2
BITMAP
000000
000000
007F00
01FFC0
03C1E0
0780F0
0F0078
0E0038
1E003C
1CC19C
1CFF9C
1CFF9C
1CFF9C
1CC19C
1E003C
0E0038
0F0078
0780F0
03C1E0
01FFC0
007F00
000000
000000
000000
ENDCHAR

STARTCHAR kor_A5C9
ENCODING 42441
SWIDTH 903 0
DWIDTH 24 0
BBX 24 24 0 -2
BITMAP
000000
000000
007F00
007F00
001C00
001C00
001C00
001C00
001C00
001C00
001C00
001C00
001C00
001C00
001C00
001C00
001C00
001C00
001C00
007F00
007F00
000000
000000
000000
ENDCHAR

STARTCHAR kor_A5CA
ENCODING 42442
SWIDTH 903 0
DWIDTH 24 0
BBX 24 24 0 -2
BITMAP
000000
000000
1FC7F0
1FC7F0
0701C0
070380
070700
070E00
071C00
073800
077000
07F800
06FC00
07BE00
071F00
070F80
0707C0
0703E0
0701F0
1FC2FC
1FC3FC
000000
000000
000000
ENDCHAR

STARTCHAR kor_A5CB
ENCODING 42443
SWIDTH 903 0
DWIDTH 24 0
BBX 24 24 0 -2
BITMAP
000000
001800
001800
003C00
003C00
003E00
006E00
006F00
00E700
00C780
00C380
01C3C0
0181C0
0381E0
0300E0
0700F0
060070
0E0078
0C0038
3F00FE
3F00FE
000000
000000
000000
ENDCHAR

STARTCHAR kor_A5CC
ENCODING 42444
SWIDTH 903 0
DWIDTH 24 0
BBX 24 24 0 -2
BITMAP
000000
000000
3F80FE
3F80FE
0B80B8
0FC1B8
0DC1B8
0DC1B8
0DE3B8
0CE338
0CE338
0CE738
0CF638
0C7638
0C7E38
0C6C38
0C3C38
0C3C38
0C3C38
3F18FE
3F18FE
000000
000000
000000
ENDCHAR

STARTCHAR kor_A5CD
ENCODING 42445
SWIDTH 903 0
DWIDTH 24 0
BBX 24 24 0 -2
BITMAP
000000
000000
1F80FC
1F80FC
07C030
05E030
07E030
06F030
067830
067830
063C30
061E30
060F30
060F30
0607B0
0603B0
0601F0
0600F0
0600F0
1F8070
1F8030
000000
000000
000000
ENDCHAR

STARTCHAR kor_A5CE
ENCODING 42446
SWIDTH 903 0
DWIDTH 24 0
BBX 24 24 0 -2
BITMAP
000000
000000
07FFF8
07FFF8
0FFFF8
0E0038
0C0030
0C0030
000000
018060
01FFE0
03FFE0
03FFC0
0300C0
000000
060018
060018
0E0038
0FFFF8
0FFFF0
0FFFF0
000000
000000
000000
ENDCHAR

STARTCHAR kor_A5CF
ENCODING 42447
SWIDTH 903 0
DWIDTH 24 0
BBX 24 24 0 -2
BITMAP
000000
000000
007F00
01FFC0
03C1E0
0780F0
0F0078
0E0038
1E003C
1C001C
1C001C
1C001C
1C001C
1C001C
1E003C
0E0038
0F0078
0780F0
03C1E0
01FFC0
007F00
000000
000000
000000
ENDCHAR

STARTCHAR kor_A5D0
ENCODING 42448
SWIDTH 903 0
DWIDTH 24 0
BBX 24 24 0 -2
BITMAP
000000
000000
1FFFFC
1FFFFC
0380E0
0380E0
0380E0
0380E0
0380E0
0380E0
0380E0
0380E0
0380E0
0380E0
0380E0
0380E0
0380E0
0380E0
0380E0
1FE3FC
1FE3FC
000000
000000
000000
ENDCHAR

STARTCHAR kor_A5D1
ENCODING 42449
SWIDTH 903 0
DWIDTH 24 0
BBX 24 24 0 -2
BITMAP
000000
000000
0FFF80
0FFFE0
0380F0
038078
038038
038038
038038
038038
038078
0380F0
03FFE0
03FF80
038000
038000
038000
038000
038000
0FE000
0FE000
000000
000000
000000
ENDCHAR

STARTCHAR kor_A5D2
ENCODING 42450
SWIDTH 903 0
DWIDTH 24 0
BBX 24 24 0 -2
BITMAP
000000
000060
1FFFF0
1FFFF0
0F0038
07C018
03E018
01F000
00F800
007C00
003E00
001E00
003C00
007800
00F000
01E00C
03C00C
07801C
0F7FFC
1FFFF8
1FFFF8
000018
000000
000000
ENDCHAR

STARTCHAR kor_A5D3
ENCODING 42451
SWIDTH 903 0
DWIDTH 24 0
BBX 24 24 0 -2
BITMAP
000000
000000
1FFFFC
1FFFFC
1C1C1C
381C0E
301C06
301C06
001C00
001C00
001C00
001C00
001C00
001C00
001C00
001C00
001C00
001C00
001C00
007F00
007F00
000000
000000
000000
ENDCHAR

STARTCHAR kor_A5D4
ENCODING 42452
SWIDTH 903 0
DWIDTH 24 0
BBX 24 24 0 -2
BITMAP
000000
000000
07C1F0
0FE3F8
1EF7BC
1C7F1C
383E0E
303E06
001C00
001C00
001C00
001C00
001C00
001C00
001C00
001C00
001C00
001C00
001C00
007F00
007F00
000000
000000
000000
ENDCHAR

STARTCHAR kor_A5D5
ENCODING 42453
SWIDTH 903 0
DWIDTH 24 0
BBX 24 24 0 -2
BITMAP
000000
000000
00FF80
00FF80
001C00
00FF80
03FFE0
079CF0
0F1C78
1E1C3C
1C1C1C
1C1C1C
1C1C1C
1E1C3C
0F1C78
079CF0
03FFE0
00FF80
001C00
00FF80
00FF80
000000
000000
000000
ENDCHAR

STARTCHAR kor_A5D6
ENCODING 42454
SWIDTH 903 0
DWIDTH 24 0
BBX 24 24 0 -2
BITMAP
000000
000000
1FC0FC
1FC0FC
078070
03C0E0
01E1C0
01E180
00F380
007700
003E00
001E00
003F00
006F00
00E780
00C3C0
01C1E0
0381F0
0700F8
1F807E
1F80FE
000000
000000
000000
ENDCHAR

STARTCHAR kor_A5D7
ENCODING 42455
SWIDTH 903 0
DWIDTH 24 0
BBX 24 24 0 -2
BITMAP
000000
000000
007F00
007F00
1E1C3C
3F1C7E
3F1C7E
371C76
071C70
071C70
079CF0
039CE0
039CE0
01DDC0
01DFC0
00FB80
003E00
001C00
001C00
007F00
007F00
000000
000000
000000
ENDCHAR

STARTCHAR kor_A5D8
ENCODING 42456
SWIDTH 903 0
DWIDTH 24 0
BBX 24 24 0 -2
BITMAP
000000
000000
007F00
01FFC0
03C1E0
0780F0
0F0078
0E0038
1E003C
1C001C
1C001C
1E003C
0E0038
0F0078
0780F0
03C1E0
19E3CC
18630C
1FE3FC
1FE3FC
1FE3FC
000000
000000
000000
ENDCHAR

STARTCHAR kor_A5E1
ENCODING 42465
SWIDTH 903 0
DWIDTH 24 0
BBX 24 24 0 -2
BITMAP
000000
000000
000000
000000
000000
000000
000000
003C70
00FE70
01E770
03C3F0
0782E0
0783E0
0F03C0
0F0780
0E0700
0E0F00
0E1F60
0F3BE0
07FBE0
03E1C0
000000
000000
000000
ENDCHAR

STARTCHAR kor_A5E2
ENCODING 42466
SWIDTH 903 0
DWIDTH 24 0
BBX 24 24 0 -2
BITMAP
000000
000000
000780
001FE0
003CF0
007870
007070
00E070
00E0F0
01DDE0
01DFC0
03DF00
0381E0
0380E0
0780E0
0700E0
07C1E0
0EF3C0
0E7F80
0E3E00
1E0000
1C0000
1C0000
000000
ENDCHAR

STARTCHAR kor_A5E3
ENCODING 42467
SWIDTH 903 0
DWIDTH 24 0
BBX 24 24 0 -2
BITMAP
000000
000000
000000
000000
000000
000000
000000
01F038
03F8F8
07BDF8
0E1FC0
0C1B00
001E00
001C00
003C00
003800
007800
007800
007000
00F000
00F000
00F000
00E000
000000
ENDCHAR

STARTCHAR kor_A5E4
ENCODING 42468
SWIDTH 903 0
DWIDTH 24 0
BBX 24 24 0 -2
BITMAP
000000
000000
003E00
007F80
0063C0
0071F0
0038F8
001C78
000E38
003700
00FB80
01E380
03C1C0
0381C0
0781C0
0703C0
070380
070780
038F00
03FE00
00F800
000000
000000
000000
ENDCHAR

STARTCHAR kor_A5E5
ENCODING 42469
SWIDTH 903 0
DWIDTH 24 0
BBX 24 24 0 -2
BITMAP
000000
000000
000000
000000
000000
000000
000000
003F00
00FFC0
01F3E0
01C0E0
01E060
01FE00
02FE00
07DC00
078000
070060
0781E0
07FFC0
03FF80
01FE00
000000
000000
000000
ENDCHAR

STARTCHAR kor_A5E6
ENCODING 42470
SWIDTH 903 0
DWIDTH 24 0
BBX 24 24 0 -2
BITMAP
000000
000000
007000
00F000
01C1E0
0187E0
01FFE0
00FF80
001C00
007800
00F000
01E000
03C000
038000
078000
070000
07E000
07FC00
03FF00
003F80
000780
01E380
01FF00
01FC00
ENDCHAR

STARTCHAR kor_A5E7
ENCODING 42471
SWIDTH 903 0
DWIDTH 24 0
BBX 24 24 0 -2
BITMAP
000000
000000
000000
000000
000000
000000
000000
01E3E0
07EFF0
0F7E38
0C7838
00F038
00E078
01E070
01C0F0
03C0E0
0381E0
0781C0
0703C0
070380
000780
000700
000700
000000
ENDCHAR

STARTCHAR kor_A5E8
ENCODING 42472
SWIDTH 903 0
DWIDTH 24 0
BBX 24 24 0 -2
BITMAP
000000
000000
0007C0
001FF0
003C70
007838
00F038
01E038
01C038
03C078
03BFF0
07FFF0
0700E0
0F01E0
0E01C0
0E03C0
0E0380
0E0700
071E00
07FC00
01F000
000000
000000
000000
ENDCHAR

STARTCHAR kor_A5E9
ENCODING 42473
SWIDTH 903 0
DWIDTH 24 0
BBX 24 24 0 -2
BITMAP
000000
000000
000000
000000
000000
000000
000000
007000
007000
007000
00F000
00E000
01E000
01C000
01C000
03C060
0380E0
0387C0
03FF80
01FE00
00F800
000000
000000
000000
ENDCHAR

STARTCHAR kor_A5EA
ENCODING 42474
SWIDTH 903 0
DWIDTH 24 0
BBX 24 24 0 -2
BITMAP
000000
000000
000000
000000
000000
000000
000000
00E0F0
00E1F8
00E3F8
01E7B8
01DF00
03FC00
03F000
07BC00
071C00
0F1C60
0E1CE0
1E1FC0
1C1F80
1C0F00
000000
000000
000000
ENDCHAR

STARTCHAR kor_A5EB
ENCODING 42475
SWIDTH 903 0
DWIDTH 24 0
BBX 24 24 0 -2
BITMAP
000000
000000
007800
007C00
007C00
001E00
000E00
000E00
000600
000E00
001E00
003E00
007600
00F700
01E700
03C780
03C380
0783C0
0F03F0
0F01F0
0E00F0
000000
000000
000000
ENDCHAR

STARTCHAR kor_A5EC
ENCODING 42476
SWIDTH 903 0
DWIDTH 24 0
BBX 24 24 0 -2
BITMAP
000000
000000
000000
000000
000000
000000
000000
00E070
00E070
01E0F0
01E0F0
01C0E0
03C1E0
03C1E0
0381C0
0381C0
038380
0783D8
07C6F8
0DFEF8
1E7C70
1C0000
1C0000
000000
ENDCHAR

STARTCHAR kor_A5ED
ENCODING 42477
SWIDTH 903 0
DWIDTH 24 0
BBX 24 24 0 -2
BITMAP
000000
000000
000000
000000
000000
000000
000000
000000
038030
03C030
03C070
01C060
01C0E0
01C1C0
0183C0
038F80
033F00
07FE00
07F800
07E000
070000
000000
000000
000000
ENDCHAR

STARTCHAR kor_A5EE
ENCODING 42478
SWIDTH 903 0
DWIDTH 24 0
BBX 24 24 0 -2
BITMAP
000000
000000
001FC0
007FC0
007000
006FF0
00BFF0
01FFE0
038000
034000
01FFF0
007FF0
03FFE0
078000
0E0000
0C0000
0FC000
0FFC00
07FF00
007F80
038380
03FF00
03FC00
000000
ENDCHAR

STARTCHAR kor_A5EF
ENCODING 42479
SWIDTH 903 0
DWIDTH 24 0
BBX 24 24 0 -2
BITMAP
000000
000000
000000
000000
000000
000000
000000
003F00
00FFC0
01E1C0
03C0E0
0380E0
0780E0
0700E0
0700E0
0701E0
0701C0
0703C0
038780
03FF00
00FC00
000000
000000
000000
ENDCHAR

STARTCHAR kor_A5F0
ENCODING 42480
SWIDTH 903 0
DWIDTH 24 0
BBX 24 24 0 -2
BITMAP
000000
000000
000000
000000
000000
000000
000018
03FFF8
07FFF8
07FFF0
0E7380
0CF780
00E700
01EF00
01CE00
03CE00
039C60
079CE0
0F1FC0
0F1F80
0E0F00
000000
000000
000000
ENDCHAR

STARTCHAR kor_A5F1
ENCODING 42481
SWIDTH 903 0
DWIDTH 24 0
BBX 24 24 0 -2
BITMAP
000000
000000
000000
000000
000000
000000
000000
000F80
003FE0
0078E0
00F070
00E070
01C070
01C070
0380F0
03C0E0
02C1E0
07E3C0
077F80
0F3E00
0F0000
0E0000
0E0000
000000
ENDCHAR

STARTCHAR kor_A5F2
ENCODING 42482
SWIDTH 903 0
DWIDTH 24 0
BBX 24 24 0 -2
BITMAP
000000
000000
000000
000000
000000
000030
000038
001FF8
007FF8
00FFF0
01E300
03C1C0
0380E0
0780E0
0700E0
0701E0
0701C0
0703C0
038780
03FF00
00FC00
000000
000000
000000
ENDCHAR

STARTCHAR kor_A5F3
ENCODING 42483
SWIDTH 903 0
DWIDTH 24 0
BBX 24 24 0 -2
BITMAP
000000
000000
000000
000000
000000
000000
000018
03FFF8
07FFF8
07FFF0
0E3800
0C7800
007000
00F000
00E000
01E0C0
01C1C0
01C780
01FF00
00FE00
007800
000000
000000
000000
ENDCHAR

STARTCHAR kor_A5F4
ENCODING 42484
SWIDTH 903 0
DWIDTH 24 0
BBX 24 24 0 -2
BITMAP
000000
000000
000000
000000
000000
000000
000000
000000
01C0E0
01C0F0
01C070
01C070
03C0F0
0380E0
0381E0
0781C0
0703C0
070780
071F00
03FC00
01F000
000000
000000
000000
ENDCHAR

STARTCHAR kor_A5F5
ENCODING 42485
SWIDTH 903 0
DWIDTH 24 0
BBX 24 24 0 -2
BITMAP
000000
000000
000380
000380
000780
000700
000700
000600
007F80
01FFE0
03CEF0
078C78
0F1C38
0E1C38
0E3878
0F38F0
07B1E0
03FFC0
00FF00
007000
00F000
00E000
00E000
000000
ENDCHAR

STARTCHAR kor_A5F6
ENCODING 42486
SWIDTH 903 0
DWIDTH 24 0
BBX 24 24 0 -2
BITMAP
000000
000000
000000
000000
000000
000000
000000
000000
01E070
03F0F0
03F9F0
073BE0
061FC0
001780
001E00
003C00
00F800
01F800
07D860
0F9CE0
1F1FC0
1E0FC0
1C0780
000000
ENDCHAR

STARTCHAR kor_A5F7
ENCODING 42487
SWIDTH 903 0
DWIDTH 24 0
BBX 24 24 0 -2
BITMAP
000000
000000
000380
000380
000380
000780
000700
078770
0FC678
0DCE78
01CE38
03CC38
039C78
079C70
0718F0
0739E0
073BC0
03F780
01FE00
007000
00F000
00E000
00E000
000000
ENDCHAR

STARTCHAR kor_A5F8
ENCODING 42488
SWIDTH 903 0
DWIDTH 24 0
BBX 24 24 0 -2
BITMAP
000000
000000
000000
000000
000000
000000
000000
007060
01F070
03C038
078038
0F0E1C
0E0E1C
1E1E1C
1C1E1C
1C1C1C
1C3C3C
1C3E38
0E7678
0FF7F0
03C3C0
000000
000000
000000
ENDCHAR

STARTCHAR kor_A6A1
ENCODING 42657
SWIDTH 903 0
DWIDTH 24 0
BBX 24 24 0 -2
BITMAP
000000
000000
000000
000000
000000
000000
000000
000000
000000
000000
FFFFFF
FFFFFF
000000
000000
000000
000000
000000
000000
000000
000000
000000
000000
000000
000000
ENDCHAR

STARTCHAR kor_A6A2
ENCODING 42658
SWIDTH 903 0
DWIDTH 24 0
BBX 24 24 0 -2
BITMAP
000600
000600
000600
000600
000600
000600
000600
000600
000600
000600
000600
000600
000600
000600
000600
000600
000600
000600
000600
000600
000600
000600
000600
000600
ENDCHAR

STARTCHAR kor_A6A3
ENCODING 42659
SWIDTH 903 0
DWIDTH 24 0
BBX 24 24 0 -2
BITMAP
000000
000000
000000
000000
000000
000000
000000
000000
000000
000000
0007FF
0007FF
000600
000600
000600
000600
000600
000600
000600
000600
000600
000600
000600
000600
ENDCHAR

STARTCHAR kor_A6A4
ENCODING 42660
SWIDTH 903 0
DWIDTH 24 0
BBX 24 24 0 -2
BITMAP
000000
000000
000000
000000
000000
000000
000000
000000
000000
000000
FFFE00
FFFE00
000600
000600
000600
000600
000600
000600
000600
000600
000600
000600
000600
000600
ENDCHAR

STARTCHAR kor_A6A5
ENCODING 42661
SWIDTH 903 0
DWIDTH 24 0
BBX 24 24 0 -2
BITMAP
000600
000600
000600
000600
000600
000600
000600
000600
000600
000600
FFFE00
FFFE00
000000
000000
000000
000000
000000
000000
000000
000000
000000
000000
000000
000000
ENDCHAR

STARTCHAR kor_A6A6
ENCODING 42662
SWIDTH 903 0
DWIDTH 24 0
BBX 24 24 0 -2
BITMAP
000600
000600
000600
000600
000600
000600
000600
000600
000600
000600
0007FF
0007FF
000000
000000
000000
000000
000000
000000
000000
000000
000000
000000
000000
000000
ENDCHAR

STARTCHAR kor_A6A7
ENCODING 42663
SWIDTH 903 0
DWIDTH 24 0
BBX 24 24 0 -2
BITMAP
000600
000600
000600
000600
000600
000600
000600
000600
000600
000600
0007FF
0007FF
000600
000600
000600
000600
000600
000600
000600
000600
000600
000600
000600
000600
ENDCHAR

STARTCHAR kor_A6A8
ENCODING 42664
SWIDTH 903 0
DWIDTH 24 0
BBX 24 24 0 -2
BITMAP
000000
000000
000000
000000
000000
000000
000000
000000
000000
000000
FFFFFF
FFFFFF
000600
000600
000600
000600
000600
000600
000600
000600
000600
000600
000600
000600
ENDCHAR

STARTCHAR kor_A6A9
ENCODING 42665
SWIDTH 903 0
DWIDTH 24 0
BBX 24 24 0 -2
BITMAP
000600
000600
000600
000600
000600
000600
000600
000600
000600
000600
FFFE00
FFFE00
000600
000600
000600
000600
000600
000600
000600
000600
000600
000600
000600
000600
ENDCHAR

STARTCHAR kor_A6AA
ENCODING 42666
SWIDTH 903 0
DWIDTH 24 0
BBX 24 24 0 -2
BITMAP
000600
000600
000600
000600
000600
000600
000600
000600
000600
000600
FFFFFF
FFFFFF
000000
000000
000000
000000
000000
000000
000000
000000
000000
000000
000000
000000
ENDCHAR

STARTCHAR kor_A6AB
ENCODING 42667
SWIDTH 903 0
DWIDTH 24 0
BBX 24 24 0 -2
BITMAP
000600
000600
000600
000600
000600
000600
000600
000600
000600
000600
FFFFFF
FFFFFF
000600
000600
000600
000600
000600
000600
000600
000600
000600
000600
000600
000600
ENDCHAR

STARTCHAR kor_A6AC
ENCODING 42668
SWIDTH 903 0
DWIDTH 24 0
BBX 24 24 0 -2
BITMAP
000000
000000
000000
000000
000000
000000
000000
000000
000000
FFFFFF
FFFFFF
FFFFFF
FFFFFF
000000
000000
000000
000000
000000
000000
000000
000000
000000
000000
000000
ENDCHAR

STARTCHAR kor_A6AD
ENCODING 42669
SWIDTH 903 0
DWIDTH 24 0
BBX 24 24 0 -2
BITMAP
000F00
000F00
000F00
000F00
000F00
000F00
000F00
000F00
000F00
000F00
000F00
000F00
000F00
000F00
000F00
000F00
000F00
000F00
000F00
000F00
000F00
000F00
000F00
000F00
ENDCHAR

STARTCHAR kor_A6AE
ENCODING 42670
SWIDTH 903 0
DWIDTH 24 0
BBX 24 24 0 -2
BITMAP
000000
000000
000000
000000
000000
000000
000000
000000
000000
000FFF
000FFF
000FFF
000FFF
000F00
000F00
000F00
000F00
000F00
000F00
000F00
000F00
000F00
000F00
000F00
ENDCHAR

STARTCHAR kor_A6AF
ENCODING 42671
SWIDTH 903 0
DWIDTH 24 0
BBX 24 24 0 -2
BITMAP
000000
000000
000000
000000
000000
000000
000000
000000
000000
FFFF00
FFFF00
FFFF00
FFFF00
000F00
000F00
000F00
000F00
000F00
000F00
000F00
000F00
000F00
000F00
000F00
ENDCHAR

STARTCHAR kor_A6B0
ENCODING 42672
SWIDTH 903 0
DWIDTH 24 0
BBX 24 24 0 -2
BITMAP
000F00
000F00
000F00
000F00
000F00
000F00
000F00
000F00
000F00
FFFF00
FFFF00
FFFF00
FFFF00
000000
000000
000000
000000
000000
000000
000000
000000
000000
000000
000000
ENDCHAR

STARTCHAR kor_A6B1
ENCODING 42673
SWIDTH 903 0
DWIDTH 24 0
BBX 24 24 0 -2
BITMAP
000F00
000F00
000F00
000F00
000F00
000F00
000F00
000F00
000F00
000FFF
000FFF
000FFF
000FFF
000000
000000
000000
000000
000000
000000
000000
000000
000000
000000
000000
ENDCHAR

STARTCHAR kor_A6B2
ENCODING 42674
SWIDTH 903 0
DWIDTH 24 0
BBX 24 24 0 -2
BITMAP
000F00
000F00
000F00
000F00
000F00
000F00
000F00
000F00
000F00
000FFF
000FFF
000FFF
000FFF
000F00
000F00
000F00
000F00
000F00
000F00
000F00
000F00
000F00
000F00
000F00
ENDCHAR

STARTCHAR kor_A6B3
ENCODING 42675
SWIDTH 903 0
DWIDTH 24 0
BBX 24 24 0 -2
BITMAP
000000
000000
000000
000000
000000
000000
000000
000000
000000
FFFFFF
FFFFFF
FFFFFF
FFFFFF
000F00
000F00
000F00
000F00
000F00
000F00
000F00
000F00
000F00
000F00
000F00
ENDCHAR

STARTCHAR kor_A6B4
ENCODING 42676
SWIDTH 903 0
DWIDTH 24 0
BBX 24 24 0 -2
BITMAP
000F00
000F00
000F00
000F00
000F00
000F00
000F00
000F00
000F00
FFFF00
FFFF00
FFFF00
FFFF00
000F00
000F00
000F00
000F00
000F00
000F00
000F00
000F00
000F00
000F00
000F00
ENDCHAR

STARTCHAR kor_A6B5
ENCODING 42677
SWIDTH 903 0
DWIDTH 24 0
BBX 24 24 0 -2
BITMAP
000F00
000F00
000F00
000F00
000F00
000F00
000F00
000F00
000F00
FFFFFF
FFFFFF
FFFFFF
FFFFFF
000000
000000
000000
000000
000000
000000
000000
000000
000000
000000
000000
ENDCHAR

STARTCHAR kor_A6B6
ENCODING 42678
SWIDTH 903 0
DWIDTH 24 0
BBX 24 24 0 -2
BITMAP
000F00
000F00
000F00
000F00
000F00
000F00
000F00
000F00
000F00
FFFFFF
FFFFFF
FFFFFF
FFFFFF
000F00
000F00
000F00
000F00
000F00
000F00
000F00
000F00
000F00
000F00
000F00
ENDCHAR

STARTCHAR kor_A6B7
ENCODING 42679
SWIDTH 903 0
DWIDTH 24 0
BBX 24 24 0 -2
BITMAP
000F00
000F00
000F00
000F00
000F00
000F00
000F00
000F00
000F00
000F00
000FFF
000FFF
000F00
000F00
000F00
000F00
000F00
000F00
000F00
000F00
000F00
000F00
000F00
000F00
ENDCHAR

STARTCHAR kor_A6B8
ENCODING 42680
SWIDTH 903 0
DWIDTH 24 0
BBX 24 24 0 -2
BITMAP
000000
000000
000000
000000
000000
000000
000000
000000
000000
FFFFFF
FFFFFF
FFFFFF
FFFFFF
000600
000600
000600
000600
000600
000600
000600
000600
000600
000600
000600
ENDCHAR

STARTCHAR kor_A6B9
ENCODING 42681
SWIDTH 903 0
DWIDTH 24 0
BBX 24 24 0 -2
BITMAP
000F00
000F00
000F00
000F00
000F00
000F00
000F00
000F00
000F00
000F00
FFFF00
FFFF00
000F00
000F00
000F00
000F00
000F00
000F00
000F00
000F00
000F00
000F00
000F00
000F00
ENDCHAR

STARTCHAR kor_A6BA
ENCODING 42682
SWIDTH 903 0
DWIDTH 24 0
BBX 24 24 0 -2
BITMAP
000600
000600
000600
000600
000600
000600
000600
000600
000600
FFFFFF
FFFFFF
FFFFFF
FFFFFF
000000
000000
000000
000000
000000
000000
000000
000000
000000
000000
000000
ENDCHAR

STARTCHAR kor_A6BB
ENCODING 42683
SWIDTH 903 0
DWIDTH 24 0
BBX 24 24 0 -2
BITMAP
000600
000600
000600
000600
000600
000600
000600
000600
000600
FFFFFF
FFFFFF
FFFFFF
FFFFFF
000600
000600
000600
000600
000600
000600
000600
000600
000600
000600
000600
ENDCHAR

STARTCHAR kor_A6BC
ENCODING 42684
SWIDTH 903 0
DWIDTH 24 0
BBX 24 24 0 -2
BITMAP
000600
000600
000600
000600
000600
000600
000600
000600
000600
0007FF
0007FF
0007FF
0007FF
000600
000600
000600
000600
000600
000600
000600
000600
000600
000600
000600
ENDCHAR

STARTCHAR kor_A6BD
ENCODING 42685
SWIDTH 903 0
DWIDTH 24 0
BBX 24 24 0 -2
BITMAP
000000
000000
000000
000000
000000
000000
000000
000000
000000
000000
FFFFFF
FFFFFF
000F00
000F00
000F00
000F00
000F00
000F00
000F00
000F00
000F00
000F00
000F00
000F00
ENDCHAR

STARTCHAR kor_A6BE
ENCODING 42686
SWIDTH 903 0
DWIDTH 24 0
BBX 24 24 0 -2
BITMAP
000600
000600
000600
000600
000600
000600
000600
000600
000600
FFFE00
FFFE00
FFFE00
FFFE00
000600
000600
000600
000600
000600
000600
000600
000600
000600
000600
000600
ENDCHAR

STARTCHAR kor_A6BF
ENCODING 42687
SWIDTH 903 0
DWIDTH 24 0
BBX 24 24 0 -2
BITMAP
000F00
000F00
000F00
000F00
000F00
000F00
000F00
000F00
000F00
000F00
FFFFFF
FFFFFF
000000
000000
000000
000000
000000
000000
000000
000000
000000
000000
000000
000000
ENDCHAR

STARTCHAR kor_A6C0
ENCODING 42688
SWIDTH 903 0
DWIDTH 24 0
BBX 24 24 0 -2
BITMAP
000F00
000F00
000F00
000F00
000F00
000F00
000F00
000F00
000F00
000F00
FFFFFF
FFFFFF
000F00
000F00
000F00
000F00
000F00
000F00
000F00
000F00
000F00
000F00
000F00
000F00
ENDCHAR

STARTCHAR kor_A6C1
ENCODING 42689
SWIDTH 903 0
DWIDTH 24 0
BBX 24 24 0 -2
BITMAP
000000
000000
000000
000000
000000
000000
000000
000000
000000
000000
FFFF00
FFFF00
000F00
000F00
000F00
000F00
000F00
000F00
000F00
000F00
000F00
000F00
000F00
000F00
ENDCHAR

STARTCHAR kor_A6C2
ENCODING 42690
SWIDTH 903 0
DWIDTH 24 0
BBX 24 24 0 -2
BITMAP
000000
000000
000000
000000
000000
000000
000000
000000
000000
FFFE00
FFFE00
FFFE00
FFFE00
000600
000600
000600
000600
000600
000600
000600
000600
000600
000600
000600
ENDCHAR

STARTCHAR kor_A6C3
ENCODING 42691
SWIDTH 903 0
DWIDTH 24 0
BBX 24 24 0 -2
BITMAP
000F00
000F00
000F00
000F00
000F00
000F00
000F00
000F00
000F00
000F00
FFFF00
FFFF00
000000
000000
000000
000000
000000
000000
000000
000000
000000
000000
000000
000000
ENDCHAR

STARTCHAR kor_A6C4
ENCODING 42692
SWIDTH 903 0
DWIDTH 24 0
BBX 24 24 0 -2
BITMAP
000600
000600
000600
000600
000600
000600
000600
000600
000600
FFFE00
FFFE00
FFFE00
FFFE00
000000
000000
000000
000000
000000
000000
000000
000000
000000
000000
000000
ENDCHAR

STARTCHAR kor_A6C5
ENCODING 42693
SWIDTH 903 0
DWIDTH 24 0
BBX 24 24 0 -2
BITMAP
000F00
000F00
000F00
000F00
000F00
000F00
000F00
000F00
000F00
000F00
000FFF
000FFF
000000
000000
000000
000000
000000
000000
000000
000000
000000
000000
000000
000000
ENDCHAR

STARTCHAR kor_A6C6
ENCODING 42694
SWIDTH 903 0
DWIDTH 24 0
BBX 24 24 0 -2
BITMAP
000600
000600
000600
000600
000600
000600
000600
000600
000600
0007FF
0007FF
0007FF
0007FF
000000
000000
000000
000000
000000
000000
000000
000000
000000
000000
000000
ENDCHAR

STARTCHAR kor_A6C7
ENCODING 42695
SWIDTH 903 0
DWIDTH 24 0
BBX 24 24 0 -2
BITMAP
000000
000000
000000
000000
000000
000000
000000
000000
000000
000000
000FFF
000FFF
000F00
000F00
000F00
000F00
000F00
000F00
000F00
000F00
000F00
000F00
000F00
000F00
ENDCHAR

STARTCHAR kor_A6C8
ENCODING 42696
SWIDTH 903 0
DWIDTH 24 0
BBX 24 24 0 -2
BITMAP
000000
000000
000000
000000
000000
000000
000000
000000
000000
0007FF
0007FF
0007FF
0007FF
000600
000600
000600
000600
000600
000600
000600
000600
000600
000600
000600
ENDCHAR

STARTCHAR kor_A6C9
ENCODING 42697
SWIDTH 903 0
DWIDTH 24 0
BBX 24 24 0 -2
BITMAP
000F00
000F00
000F00
000F00
000F00
000F00
000F00
000F00
000F00
000F00
000FFF
000FFF
000600
000600
000600
000600
000600
000600
000600
000600
000600
000600
000600
000600
ENDCHAR

STARTCHAR kor_A6CA
ENCODING 42698
SWIDTH 903 0
DWIDTH 24 0
BBX 24 24 0 -2
BITMAP
000600
000600
000600
000600
000600
000600
000600
000600
000600
000600
000FFF
000FFF
000F00
000F00
000F00
000F00
000F00
000F00
000F00
000F00
000F00
000F00
000F00
000F00
ENDCHAR

STARTCHAR kor_A6CB
ENCODING 42699
SWIDTH 903 0
DWIDTH 24 0
BBX 24 24 0 -2
BITMAP
000F00
000F00
000F00
000F00
000F00
000F00
000F00
000F00
000F00
000FFF
000FFF
000FFF
000FFF
000600
000600
000600
000600
000600
000600
000600
000600
000600
000600
000600
ENDCHAR

STARTCHAR kor_A6CC
ENCODING 42700
SWIDTH 903 0
DWIDTH 24 0
BBX 24 24 0 -2
BITMAP
000600
000600
000600
000600
000600
000600
000600
000600
000600
000FFF
000FFF
000FFF
000FFF
000F00
000F00
000F00
000F00
000F00
000F00
000F00
000F00
000F00
000F00
000F00
ENDCHAR

STARTCHAR kor_A6CD
ENCODING 42701
SWIDTH 903 0
DWIDTH 24 0
BBX 24 24 0 -2
BITMAP
000F00
000F00
000F00
000F00
000F00
000F00
000F00
000F00
000F00
000F00
FFFF00
FFFF00
000600
000600
000600
000600
000600
000600
000600
000600
000600
000600
000600
000600
ENDCHAR

STARTCHAR kor_A6CE
ENCODING 42702
SWIDTH 903 0
DWIDTH 24 0
BBX 24 24 0 -2
BITMAP
000600
000600
000600
000600
000600
000600
000600
000600
000600
000600
FFFF00
FFFF00
000F00
000F00
000F00
000F00
000F00
000F00
000F00
000F00
000F00
000F00
000F00
000F00
ENDCHAR

STARTCHAR kor_A6CF
ENCODING 42703
SWIDTH 903 0
DWIDTH 24 0
BBX 24 24 0 -2
BITMAP
000F00
000F00
000F00
000F00
000F00
000F00
000F00
000F00
000F00
FFFF00
FFFF00
FFFF00
FFFF00
000600
000600
000600
000600
000600
000600
000600
000600
000600
000600
000600
ENDCHAR

STARTCHAR kor_A6D0
ENCODING 42704
SWIDTH 903 0
DWIDTH 24 0
BBX 24 24 0 -2
BITMAP
000600
000600
000600
000600
000600
000600
000600
000600
000600
FFFF00
FFFF00
FFFF00
FFFF00
000F00
000F00
000F00
000F00
000F00
000F00
000F00
000F00
000F00
000F00
000F00
ENDCHAR

STARTCHAR kor_A6D1
ENCODING 42705
SWIDTH 903 0
DWIDTH 24 0
BBX 24 24 0 -2
BITMAP
000000
000000
000000
000000
000000
000000
000000
000000
000000
FFFE00
FFFFFF
FFFFFF
FFFE00
000600
000600
000600
000600
000600
000600
000600
000600
000600
000600
000600
ENDCHAR

STARTCHAR kor_A6D2
ENCODING 42706
SWIDTH 903 0
DWIDTH 24 0
BBX 24 24 0 -2
BITMAP
000000
000000
000000
000000
000000
000000
000000
000000
000000
0007FF
FFFFFF
FFFFFF
0007FF
000600
000600
000600
000600
000600
000600
000600
000600
000600
000600
000600
ENDCHAR

STARTCHAR kor_A6D3
ENCODING 42707
SWIDTH 903 0
DWIDTH 24 0
BBX 24 24 0 -2
BITMAP
000000
000000
000000
000000
000000
000000
000000
000000
000000
FFFF00
FFFFFF
FFFFFF
FFFF00
000F00
000F00
000F00
000F00
000F00
000F00
000F00
000F00
000F00
000F00
000F00
ENDCHAR

STARTCHAR kor_A6D4
ENCODING 42708
SWIDTH 903 0
DWIDTH 24 0
BBX 24 24 0 -2
BITMAP
000000
000000
000000
000000
000000
000000
000000
000000
000000
000FFF
FFFFFF
FFFFFF
000FFF
000F00
000F00
000F00
000F00
000F00
000F00
000F00
000F00
000F00
000F00
000F00
ENDCHAR

STARTCHAR kor_A6D5
ENCODING 42709
SWIDTH 903 0
DWIDTH 24 0
BBX 24 24 0 -2
BITMAP
000600
000600
000600
000600
000600
000600
000600
000600
000600
FFFE00
FFFFFF
FFFFFF
FFFE00
000000
000000
000000
000000
000000
000000
000000
000000
000000
000000
000000
ENDCHAR

STARTCHAR kor_A6D6
ENCODING 42710
SWIDTH 903 0
DWIDTH 24 0
BBX 24 24 0 -2
BITMAP
000600
000600
000600
000600
000600
000600
000600
000600
000600
0007FF
FFFFFF
FFFFFF
0007FF
000000
000000
000000
000000
000000
000000
000000
000000
000000
000000
000000
ENDCHAR

STARTCHAR kor_A6D7
ENCODING 42711
SWIDTH 903 0
DWIDTH 24 0
BBX 24 24 0 -2
BITMAP
000F00
000F00
000F00
000F00
000F00
000F00
000F00
000F00
000F00
FFFF00
FFFFFF
FFFFFF
FFFF00
000000
000000
000000
000000
000000
000000
000000
000000
000000
000000
000000
ENDCHAR

STARTCHAR kor_A6D8
ENCODING 42712
SWIDTH 903 0
DWIDTH 24 0
BBX 24 24 0 -2
BITMAP
000F00
000F00
000F00
000F00
000F00
000F00
000F00
000F00
000F00
000FFF
FFFFFF
FFFFFF
000FFF
000000
000000
000000
000000
000000
000000
000000
000000
000000
000000
000000
ENDCHAR

STARTCHAR kor_A6D9
ENCODING 42713
SWIDTH 903 0
DWIDTH 24 0
BBX 24 24 0 -2
BITMAP
000600
000600
000600
000600
000600
000600
000600
000600
000600
FFFE00
FFFFFF
FFFFFF
FFFE00
000600
000600
000600
000600
000600
000600
000600
000600
000600
000600
000600
ENDCHAR

STARTCHAR kor_A6DA
ENCODING 42714
SWIDTH 903 0
DWIDTH 24 0
BBX 24 24 0 -2
BITMAP
000600
000600
000600
000600
000600
000600
000600
000600
000600
0007FF
FFFFFF
FFFFFF
0007FF
000600
000600
000600
000600
000600
000600
000600
000600
000600
000600
000600
ENDCHAR

STARTCHAR kor_A6DB
ENCODING 42715
SWIDTH 903 0
DWIDTH 24 0
BBX 24 24 0 -2
BITMAP
000F00
000F00
000F00
000F00
000F00
000F00
000F00
000F00
000F00
000F00
FFFFFF
FFFFFF
000600
000600
000600
000600
000600
000600
000600
000600
000600
000600
000600
000600
ENDCHAR

STARTCHAR kor_A6DC
ENCODING 42716
SWIDTH 903 0
DWIDTH 24 0
BBX 24 24 0 -2
BITMAP
000600
000600
000600
000600
000600
000600
000600
000600
000600
000600
FFFFFF
FFFFFF
000F00
000F00
000F00
000F00
000F00
000F00
000F00
000F00
000F00
000F00
000F00
000F00
ENDCHAR

STARTCHAR kor_A6DD
ENCODING 42717
SWIDTH 903 0
DWIDTH 24 0
BBX 24 24 0 -2
BITMAP
000F00
000F00
000F00
000F00
000F00
000F00
000F00
000F00
000F00
FFFF00
FFFFFF
FFFFFF
FFFF00
000600
000600
000600
000600
000600
000600
000600
000600
000600
000600
000600
ENDCHAR

STARTCHAR kor_A6DE
ENCODING 42718
SWIDTH 903 0
DWIDTH 24 0
BBX 24 24 0 -2
BITMAP
000F00
000F00
000F00
000F00
000F00
000F00
000F00
000F00
000F00
000FFF
FFFFFF
FFFFFF
000FFF
000600
000600
000600
000600
000600
000600
000600
000600
000600
000600
000600
ENDCHAR

STARTCHAR kor_A6DF
ENCODING 42719
SWIDTH 903 0
DWIDTH 24 0
BBX 24 24 0 -2
BITMAP
000600
000600
000600
000600
000600
000600
000600
000600
000600
FFFF00
FFFFFF
FFFFFF
FFFF00
000F00
000F00
000F00
000F00
000F00
000F00
000F00
000F00
000F00
000F00
000F00
ENDCHAR

STARTCHAR kor_A6E0
ENCODING 42720
SWIDTH 903 0
DWIDTH 24 0
BBX 24 24 0 -2
BITMAP
000600
000600
000600
000600
000600
000600
000600
000600
000600
000FFF
FFFFFF
FFFFFF
000FFF
000F00
000F00
000F00
000F00
000F00
000F00
000F00
000F00
000F00
000F00
000F00
ENDCHAR

STARTCHAR kor_A6E1
ENCODING 42721
SWIDTH 903 0
DWIDTH 24 0
BBX 24 24 0 -2
BITMAP
000F00
000F00
000F00
000F00
000F00
000F00
000F00
000F00
000F00
FFFFFF
FFFFFF
FFFFFF
FFFFFF
000600
000600
000600
000600
000600
000600
000600
000600
000600
000600
000600
ENDCHAR

STARTCHAR kor_A6E2
ENCODING 42722
SWIDTH 903 0
DWIDTH 24 0
BBX 24 24 0 -2
BITMAP
000600
000600
000600
000600
000600
000600
000600
000600
000600
FFFFFF
FFFFFF
FFFFFF
FFFFFF
000F00
000F00
000F00
000F00
000F00
000F00
000F00
000F00
000F00
000F00
000F00
ENDCHAR

STARTCHAR kor_A6E3
ENCODING 42723
SWIDTH 903 0
DWIDTH 24 0
BBX 24 24 0 -2
BITMAP
000F00
000F00
000F00
000F00
000F00
000F00
000F00
000F00
000F00
FFFF00
FFFFFF
FFFFFF
FFFF00
000F00
000F00
000F00
000F00
000F00
000F00
000F00
000F00
000F00
000F00
000F00
ENDCHAR

STARTCHAR kor_A6E4
ENCODING 42724
SWIDTH 903 0
DWIDTH 24 0
BBX 24 24 0 -2
BITMAP
000F00
000F00
000F00
000F00
000F00
000F00
000F00
000F00
000F00
000FFF
FFFFFF
FFFFFF
000FFF
000F00
000F00
000F00
000F00
000F00
000F00
000F00
000F00
000F00
000F00
000F00
ENDCHAR

STARTCHAR kor_A7A1
ENCODING 42913
SWIDTH 903 0
DWIDTH 24 0
BBX 24 24 0 -2
BITMAP
000000
000000
00001C
00003E
000076
000066
0000E6
0000CE
030CCC
030DCC
071D9C
061998
0619B8
0E38F0
0C30E0
0C31C0
1C7B63
1E5B67
17DC7E
3BCE3C
300000
300000
300000
000000
ENDCHAR

STARTCHAR kor_A7A2
ENCODING 42914
SWIDTH 903 0
DWIDTH 24 0
BBX 24 24 0 -2
BITMAP
000000
000000
00001C
00003E
000076
000066
0000E6
0000CE
2F78CC
7FFDCC
79CD9C
318D98
318DB8
318CF0
318CE0
318DC0
318F63
318B67
7BDC7E
7BDE3C
000000
000000
000000
000000
ENDCHAR

STARTCHAR kor_A7A3
ENCODING 42915
SWIDTH 903 0
DWIDTH 24 0
BBX 24 24 0 -2
BITMAP
000000
000000
003070
0070F8
0071D8
003198
003398
003338
07B330
0FB730
0CF670
1C7660
1836E0
1833C0
183380
183700
1C7D8C
0CED9C
0FB1F8
07B0F0
000000
000000
000000
000000
ENDCHAR

STARTCHAR kor_A7A4
ENCODING 42916
SWIDTH 903 0
DWIDTH 24 0
BBX 24 24 0 -2
BITMAP
000000
000000
000700
000F80
001D80
001980
003980
003380
003300
007300
006700
006600
006E00
003C00
003800
007000
00D8C0
00D9C0
001F80
000F00
000000
000000
000000
000000
ENDCHAR

STARTCHAR kor_A7A5
ENCODING 42917
SWIDTH 903 0
DWIDTH 24 0
BBX 24 24 0 -2
BITMAP
000000
000000
180070
3800F8
3801D8
180198
180398
181B38
183B30
187730
18E670
19C660
1B86E0
1F03C0
178380
1DC700
18ED8C
187D9C
3C31F8
3C18F0
000000
000000
000000
000000
ENDCHAR

STARTCHAR kor_A7A6
ENCODING 42918
SWIDTH 903 0
DWIDTH 24 0
BBX 24 24 0 -2
BITMAP
000000
000000
000000
000000
000000
000000
000000
000000
07B0F6
0FF1FE
1C738E
183306
383706
300600
300600
380700
183306
1C738E
0FE1FC
07C0F8
000000
000000
000000
000000
ENDCHAR

STARTCHAR kor_A7A7
ENCODING 42919
SWIDTH 903 0
DWIDTH 24 0
BBX 24 24 0 -2
BITMAP
000000
00001E
00001F
000003
00000E
000003
00001F
00001E
2EE5C0
7FEFFE
7BBF76
333666
333666
333666
333666
333666
333666
333666
777EEF
776EEF
000000
000000
000000
000000
ENDCHAR

STARTCHAR kor_A7A8
ENCODING 42920
SWIDTH 903 0
DWIDTH 24 0
BBX 24 24 0 -2
BITMAP
000000
00001E
00001F
000003
00000E
000003
00001F
00001E
0F6BA0
1FFFFC
38DEEC
306CCC
706CCC
600CCC
600CCC
700CCC
306CCC
38ECCC
1FDDDE
0F9DDE
000000
000000
000000
000000
ENDCHAR

STARTCHAR kor_A7A9
ENCODING 42921
SWIDTH 903 0
DWIDTH 24 0
BBX 24 24 0 -2
BITMAP
000000
0000F0
0000F8
000018
000070
000018
0000F8
0000F0
02F700
07FFC0
079CC0
0318C0
0318C0
0318C0
0318C0
0318C0
0318C0
0318C0
07BDE0
07BDE0
000000
000000
000000
000000
ENDCHAR

STARTCHAR kor_A7AA
ENCODING 42922
SWIDTH 903 0
DWIDTH 24 0
BBX 24 24 0 -2
BITMAP
000000
00001E
30001F
700003
70000E
300003
30001F
30001E
306BA0
30FFFC
31DEEC
338CCC
370CCC
3E0CCC
2C0CCC
370CCC
338CCC
31CCCC
78DDDE
785DDE
000000
000000
000000
000000
ENDCHAR

STARTCHAR kor_A7AB
ENCODING 42923
SWIDTH 903 0
DWIDTH 24 0
BBX 24 24 0 -2
BITMAP
000000
000000
03C000
07E000
066000
066000
060000
060000
3FD770
3FFFF8
063DD8
061998
061998
061998
061998
061998
061998
061998
1FBBBC
1FBBBC
000000
000000
000000
000000
ENDCHAR

STARTCHAR kor_A7AC
ENCODING 42924
SWIDTH 903 0
DWIDTH 24 0
BBX 24 24 0 -2
BITMAP
000000
000000
000000
000000
000000
000000
000000
000000
378BB8
7FDFFC
6CFEEC
386CCC
306CCC
306CCC
306CCC
306CCC
306CCC
306CCC
78FDDE
78DDDE
000000
000000
000000
000000
ENDCHAR

STARTCHAR kor_A7AD
ENCODING 42925
SWIDTH 903 0
DWIDTH 24 0
BBX 24 24 0 -2
BITMAP
000000
000000
000000
000000
000000
000000
000000
000000
0C35DC
0C3FFE
0C2F76
1C7666
186666
186666
38E666
30C666
30C666
39D666
7F7EEF
6F2EEF
600000
600000
600000
000000
ENDCHAR

STARTCHAR kor_A7AE
ENCODING 42926
SWIDTH 903 0
DWIDTH 24 0
BBX 24 24 0 -2
BITMAP
000000
000000
000000
000000
000000
000000
000000
000000
2EE5DC
7FEFFE
7BBF76
333666
333666
333666
333666
333666
333666
333666
777EEF
776EEF
000000
000000
000000
000000
ENDCHAR

STARTCHAR kor_A7AF
ENCODING 42927
SWIDTH 903 0
DWIDTH 24 0
BBX 24 24 0 -2
BITMAP
000000
000000
000000
000000
000000
000000
000000
000000
0F6BB8
1FFFFC
38DEEC
306CCC
706CCC
600CCC
600CCC
700CCC
306CCC
38ECCC
1FDDDE
0F9DDE
000000
000000
000000
000000
ENDCHAR

STARTCHAR kor_A7B0
ENCODING 42928
SWIDTH 903 0
DWIDTH 24 0
BBX 24 24 0 -2
BITMAP
000000
000000
300000
700000
700000
300000
300000
300000
306BB8
30FFFC
31DEEC
338CCC
370CCC
3E0CCC
2C0CCC
370CCC
338CCC
31CCCC
78DDDE
785DDE
000000
000000
000000
000000
ENDCHAR

STARTCHAR kor_A7B1
ENCODING 42929
SWIDTH 903 0
DWIDTH 24 0
BBX 24 24 0 -2
BITMAP
000000
00001E
00001F
000003
00000E
00001C
00001B
00001F
2EE5C0
7FEFFE
7BBF76
333666
333666
333666
333666
333666
333666
333666
777EEF
776EEF
000000
000000
000000
000000
ENDCHAR

STARTCHAR kor_A7B2
ENCODING 42930
SWIDTH 903 0
DWIDTH 24 0
BBX 24 24 0 -2
BITMAP
000000
00001E
00001F
000003
00000E
00001C
00001B
00001F
0F6BA0
1FFFFC
38DEEC
306CCC
706CCC
600CCC
600CCC
700CCC
306CCC
38ECCC
1FDDDE
0F9DDE
000000
000000
000000
000000
ENDCHAR

STARTCHAR kor_A7B3
ENCODING 42931
SWIDTH 903 0
DWIDTH 24 0
BBX 24 24 0 -2
BITMAP
000000
0000F0
0000F8
000018
000070
0000E0
0000D8
0000F8
02F700
07FFC0
079CC0
0318C0
0318C0
0318C0
0318C0
0318C0
0318C0
0318C0
07BDE0
07BDE0
000000
000000
000000
000000
ENDCHAR

STARTCHAR kor_A7B4
ENCODING 42932
SWIDTH 903 0
DWIDTH 24 0
BBX 24 24 0 -2
BITMAP
000000
00001E
30001F
700003
70000E
30001C
30001B
30001F
306BA0
30FFFC
31DEEC
338CCC
370CCC
3E0CCC
2C0CCC
370CCC
338CCC
31CCCC
78DDDE
785DDE
000000
000000
000000
000000
ENDCHAR

STARTCHAR kor_A7B5
ENCODING 42933
SWIDTH 903 0
DWIDTH 24 0
BBX 24 24 0 -2
BITMAP
000000
000000
180000
380000
380000
180000
180000
1803F0
1FC3F8
17E01C
1C700C
1831EC
1833FC
18371C
18360C
18360C
18360C
18371C
3C7BFF
3C79F7
000000
000000
000000
000000
ENDCHAR

STARTCHAR kor_A7B6
ENCODING 42934
SWIDTH 903 0
DWIDTH 24 0
BBX 24 24 0 -2
BITMAP
000000
000000
000000
000000
000000
000000
00000E
0001DE
0C33F8
0C373C
0C360C
1C760C
18671C
1863F8
38E1F0
30C700
30C6FC
39D3FE
7F7606
6F3606
60060E
6007FC
6003F8
000000
ENDCHAR

STARTCHAR kor_A7B7
ENCODING 42935
SWIDTH 903 0
DWIDTH 24 0
BBX 24 24 0 -2
BITMAP
000000
000000
000000
000000
000000
000000
00000E
0001DE
2EE3F8
7FF73C
7BB60C
33360C
33371C
3333F8
3331F0
333700
3336FC
3333FE
777606
777606
00060E
0007FC
0003F8
000000
ENDCHAR

STARTCHAR kor_A7B8
ENCODING 42936
SWIDTH 903 0
DWIDTH 24 0
BBX 24 24 0 -2
BITMAP
000000
000000
180000
380000
380000
180000
18000E
1801DE
1833F8
18773C
18E60C
19C60C
1B871C
1F03F8
1601F0
1B8700
19C6FC
18E3FE
3C7606
3C3606
00060E
0007FC
0003F8
000000
ENDCHAR

STARTCHAR kor_A7B9
ENCODING 42937
SWIDTH 903 0
DWIDTH 24 0
BBX 24 24 0 -2
BITMAP
000000
000000
0C0180
1C0380
1C0380
0C0180
0C0180
0C07F0
0C1FF0
0C3980
0C7180
0CE180
0DC180
0F8180
0B0180
0DC180
0CE180
0C7198
1E39F8
1E18F0
000000
000000
000000
000000
ENDCHAR

STARTCHAR kor_A7BA
ENCODING 42938
SWIDTH 903 0
DWIDTH 24 0
BBX 24 24 0 -2
BITMAP
000000
000000
00000C
00001C
00001C
00000C
00000C
00000C
0EDF0C
1FDF8C
39C1CC
30C0CC
30CECC
301FCC
3039CC
3030CC
30B0CC
39B9EC
1F9FBE
0F0F5E
000000
000000
000000
000000
ENDCHAR

STARTCHAR kor_A7BB
ENCODING 42939
SWIDTH 903 0
DWIDTH 24 0
BBX 24 24 0 -2
BITMAP
000000
000000
300006
70000E
70000E
300006
300006
300006
31BBE6
33FFF6
336C36
36C036
3EC1B6
2CC3F6
3EC776
36C636
36C636
33EF76
7B7BFF
79B9DF
000000
000000
000000
000000
ENDCHAR

STARTCHAR kor_A7BC
ENCODING 42940
SWIDTH 903 0
DWIDTH 24 0
BBX 24 24 0 -2
BITMAP
000000
000000
006000
00EFF0
00EFF8
00661C
00660C
00660C
0F660C
1F661C
19E7F8
38E7FC
30660E
306606
306606
306606
38E606
19E60E
1F6FFC
0F6FF8
000000
000000
000000
000000
ENDCHAR

STARTCHAR kor_A7BD
ENCODING 42941
SWIDTH 903 0
DWIDTH 24 0
BBX 24 24 0 -2
BITMAP
000000
0000C0
0000C0
0000C0
0001C0
000180
000180
2EE3BB
7FF37F
7BB3E7
3332C3
3336F0
33367C
33361E
333EC7
332CC3
332CE3
777CFF
7778BE
001800
001800
000000
000000
000000
ENDCHAR

STARTCHAR kor_A7BE
ENCODING 42942
SWIDTH 903 0
DWIDTH 24 0
BBX 24 24 0 -2
BITMAP
000000
0000C0
0000CE
0000CF
0001C3
00018E
00018F
2EE3B0
7FF37E
7BB3EE
3332C6
3336F0
333678
33361C
333ECE
332CC6
332CE6
777CFE
7778BC
001800
001800
000000
000000
000000
ENDCHAR

STARTCHAR kor_A7BF
ENCODING 42943
SWIDTH 903 0
DWIDTH 24 0
BBX 24 24 0 -2
BITMAP
000000
000000
000000
000000
000000
000000
000000
17C1EC
3FE3FC
3C771C
18360C
18378C
1833F0
1830F8
18361C
1C760C
1FE71C
17C7F8
1805F0
180000
180000
3C0000
3C0000
000000
ENDCHAR

STARTCHAR kor_A7C0
ENCODING 42944
SWIDTH 903 0
DWIDTH 24 0
BBX 24 24 0 -2
BITMAP
000000
000000
000000
000000
000000
000000
000000
000000
1BC1EC
3FE3FC
36771C
1C360C
18378C
1833F0
1830F8
18361C
18360C
18371C
3C77F8
3C75F0
000000
000000
000000
000000
ENDCHAR

STARTCHAR kor_A7C1
ENCODING 42945
SWIDTH 903 0
DWIDTH 24 0
BBX 24 24 0 -2
BITMAP
000000
000000
000000
000000
000000
000000
000000
000000
0C31EC
0C33FC
0C371C
1C760C
18678C
1863F0
38E0F8
30C61C
30C60C
39D71C
7F77F8
6F35F0
600000
600000
600000
000000
ENDCHAR

STARTCHAR kor_A7C2
ENCODING 42946
SWIDTH 903 0
DWIDTH 24 0
BBX 24 24 0 -2
BITMAP
000000
000000
000000
000000
000000
000000
000000
000000
1770F6
3FF9FE
3DDB8E
199B06
199BC6
1999F8
19987C
199B0E
199B06
199B8E
3BBBFC
3BBAF8
000000
000000
000000
000000
ENDCHAR

STARTCHAR kor_A7C3
ENCODING 42947
SWIDTH 903 0
DWIDTH 24 0
BBX 24 24 0 -2
BITMAP
000000
000000
003C0F
003C0F
001806
001C0E
000C0C
2F8C0C
7FCE1C
78E618
306618
306738
306330
306330
306370
38E160
3FC160
2F81E0
3000C0
3000C0
300000
780000
780000
000000
ENDCHAR

STARTCHAR kor_A7C4
ENCODING 42948
SWIDTH 903 0
DWIDTH 24 0
BBX 24 24 0 -2
BITMAP
000000
000000
003C0F
003C0F
001806
001C0E
000C0C
000C0C
1BCE1C
3FE618
367618
1C3738
183330
183330
183370
183160
183160
1831E0
3C78C0
3C78C0
000000
000000
000000
000000
ENDCHAR

STARTCHAR kor_A7C5
ENCODING 42949
SWIDTH 903 0
DWIDTH 24 0
BBX 24 24 0 -2
BITMAP
000000
000000
003C0F
003C0F
001806
001C0E
000C0C
000C0C
0C3E1C
0C3618
0C3618
1C7738
186330
186330
38E370
30C160
30C160
39D9E0
7F78C0
6F30C0
600000
600000
600000
000000
ENDCHAR

STARTCHAR kor_A7C6
ENCODING 42950
SWIDTH 903 0
DWIDTH 24 0
BBX 24 24 0 -2
BITMAP
000000
000000
003C0F
003C0F
001806
001C0E
000C0C
000C0C
2EEE1C
7FF618
7BB618
333738
333330
333330
333370
333160
333160
3331E0
7778C0
7778C0
000000
000000
000000
000000
ENDCHAR

STARTCHAR kor_A7C7
ENCODING 42951
SWIDTH 903 0
DWIDTH 24 0
BBX 24 24 0 -2
BITMAP
000000
000000
183C0F
383C0F
381806
181C0E
180C0C
180C0C
183E1C
187618
18E618
19C738
1B8330
1F0330
160370
1B8160
19C160
18E1E0
3C70C0
3C30C0
000000
000000
000000
000000
ENDCHAR

STARTCHAR kor_A7C8
ENCODING 42952
SWIDTH 903 0
DWIDTH 24 0
BBX 24 24 0 -2
BITMAP
000000
000000
703F0F
703F0F
387606
387606
3CF606
2CB70E
3DB30C
35B30C
37B39C
333198
333198
303198
3031B8
3030B0
3030B0
3030F0
787860
787860
000000
000000
000000
000000
ENDCHAR

STARTCHAR kor_A7C9
ENCODING 42953
SWIDTH 903 0
DWIDTH 24 0
BBX 24 24 0 -2
BITMAP
000000
000000
0000C0
0000C0
0000C0
0001E0
000160
17C160
3FE370
3C7330
183738
183618
183618
183FFC
182FFC
1C6C0C
1FFC0E
17D806
183C0F
183C0F
180000
3C0000
3C0000
000000
ENDCHAR

STARTCHAR kor_A7CA
ENCODING 42954
SWIDTH 903 0
DWIDTH 24 0
BBX 24 24 0 -2
BITMAP
000000
000000
0000C0
0000C0
0000C0
0001E0
000160
000160
378370
7FC330
6CE738
386618
306618
306FFC
306FFC
306C0C
307C0E
305806
78FC0F
78FC0F
000000
000000
000000
000000
ENDCHAR

STARTCHAR kor_A7CB
ENCODING 42955
SWIDTH 903 0
DWIDTH 24 0
BBX 24 24 0 -2
BITMAP
000000
000000
0000C0
0000C0
0000C0
0001E0
000160
000160
0C3370
0C3330
0C3738
1C7618
186618
186FFC
38EFFC
30CC0C
30DC0E
39D806
7F7C0F
6F3C0F
600000
600000
600000
000000
ENDCHAR

STARTCHAR kor_A7CC
ENCODING 42956
SWIDTH 903 0
DWIDTH 24 0
BBX 24 24 0 -2
BITMAP
000000
000000
000060
000060
000060
0000F0
0000B0
0000B0
2EE1B8
7FF198
7BB198
33339C
33330C
3333FC
3333FC
33370E
333606
333606
777F0F
777F0F
000000
000000
000000
000000
ENDCHAR

STARTCHAR kor_A7CD
ENCODING 42957
SWIDTH 903 0
DWIDTH 24 0
BBX 24 24 0 -2
BITMAP
000000
000000
3000C0
7000C0
7000C0
3001E0
300160
300160
30F370
30F330
31C738
338618
370618
3E0FFC
2C0FFC
370C0C
339C0E
31D806
78FC0F
78FC0F
000000
000000
000000
000000
ENDCHAR

STARTCHAR kor_A7CE
ENCODING 42958
SWIDTH 903 0
DWIDTH 24 0
BBX 24 24 0 -2
BITMAP
000000
000000
003C0F
003C0F
001806
0018C6
0018C6
2F98C6
7FD8C6
78FDEE
306D6C
306D6C
306F6C
306B2C
306B2C
38EF3C
3FC618
2F8618
300618
300618
300000
780000
780000
000000
ENDCHAR

STARTCHAR kor_A7CF
ENCODING 42959
SWIDTH 903 0
DWIDTH 24 0
BBX 24 24 0 -2
BITMAP
000000
000000
003C0F
003C0F
001806
0018C6
0018C6
0018C6
3798C6
7FDDEE
6CED6C
386D6C
306F6C
306B2C
306B2C
306F3C
306618
306618
78F618
78F618
000000
000000
000000
000000
ENDCHAR

STARTCHAR kor_A7D0
ENCODING 42960
SWIDTH 903 0
DWIDTH 24 0
BBX 24 24 0 -2
BITMAP
000000
000000
003C0F
003C0F
001806
0018C6
0018C6
0018C6
0C58C6
0C7DEE
0C6D6C
1CED6C
18CF6C
18CB2C
39CB2C
318F3C
318618
3BB618
7EF618
6E6618
600000
600000
600000
000000
ENDCHAR

STARTCHAR kor_A7D1
ENCODING 42961
SWIDTH 903 0
DWIDTH 24 0
BBX 24 24 0 -2
BITMAP
000000
000000
001E0F
001E0F
000C06
000C06
000CE6
000CE6
2EECE6
7FECE6
7BBEEE
3337EC
3335AC
3335AC
3335AC
3337BC
333318
333318
777B18
777B18
000000
000000
000000
000000
ENDCHAR

STARTCHAR kor_A7D2
ENCODING 42962
SWIDTH 903 0
DWIDTH 24 0
BBX 24 24 0 -2
BITMAP
000000
000000
303C0F
703C0F
701806
3018C6
3018C6
3018C6
30D8C6
30DDEE
31CD6C
338D6C
370F6C
3E0B2C
2C0B2C
370F3C
338618
31C618
78F618
78F618
000000
000000
000000
000000
ENDCHAR

STARTCHAR kor_A7D3
ENCODING 42963
SWIDTH 903 0
DWIDTH 24 0
BBX 24 24 0 -2
BITMAP
000000
000000
707E0F
707E0F
38EC06
38ECE6
3DECE6
2D6CE6
2D6CE6
3F6CE6
376DEE
3765AC
3765AC
3065AC
3065AC
3067BC
306318
306318
78F318
78F318
000000
000000
000000
000000
ENDCHAR

STARTCHAR kor_A7D4
ENCODING 42964
SWIDTH 903 0
DWIDTH 24 0
BBX 24 24 0 -2
BITMAP
000000
000000
1E1E00
1E1E00
0C0C00
0C0C00
0C0C00
0C0C00
0C0DFE
0C0DFE
0FFD8C
0FFD9C
0C0C38
0C0C30
0C0C70
0C0CE0
0C0CC6
0C0DC6
1E1DBE
1E1DFE
000000
000000
000000
000000
ENDCHAR

STARTCHAR kor_A7D5
ENCODING 42965
SWIDTH 903 0
DWIDTH 24 0
BBX 24 24 0 -2
BITMAP
000000
000000
30F3C0
70F3C0
706180
306180
306180
306180
3161FF
33617F
337F66
377FEE
3E618C
2C619C
3C6198
3E61B8
3761B3
3361F3
7BF36F
79F3FF
000000
000000
000000
000000
ENDCHAR

STARTCHAR kor_A7D6
ENCODING 42966
SWIDTH 903 0
DWIDTH 24 0
BBX 24 24 0 -2
BITMAP
000000
000000
70BDE0
70FDE0
39D8C0
39D8C0
3BD8C0
2AD8C0
2AD8FF
3ED8BF
36DFB3
36DFF6
36D8CE
30D8CC
30D8CC
30D8DC
30D8DB
30D8FB
79FDB7
79BDFF
000000
000000
000000
000000
ENDCHAR

STARTCHAR kor_A7D7
ENCODING 42967
SWIDTH 903 0
DWIDTH 24 0
BBX 24 24 0 -2
BITMAP
000000
000000
0EBDE0
1FFDE0
39D8C0
30D8C0
30D8C0
3018C0
3018FF
3018BF
37DFB3
37DFF6
30D8CE
30D8CC
30D8CC
30D8DC
30D8DB
39D8FB
1FBDB7
0F3DFF
000000
000000
000000
000000
ENDCHAR

STARTCHAR kor_A7D8
ENCODING 42968
SWIDTH 903 0
DWIDTH 24 0
BBX 24 24 0 -2
BITMAP
000000
000000
3FBDE0
3FFDE0
36D8C0
36D8C0
36D8C0
36D8C0
0618FF
0618BF
061FB3
061FF6
0618CE
0618CC
0618CC
0618DC
0618DB
0618FB
0F3DB7
0F3DFF
000000
000000
000000
000000
ENDCHAR

STARTCHAR kor_A7D9
ENCODING 42969
SWIDTH 903 0
DWIDTH 24 0
BBX 24 24 0 -2
BITMAP
000000
000000
007F00
01FFC0
07C1F0
0780F0
0F0078
0F0078
0E0038
0E0038
0E0038
0E0038
0F0078
0780F0
0780F0
03C1E0
0DE3D8
0CF798
0F7778
0FF7F8
0FF7F8
000000
000000
000000
ENDCHAR

STARTCHAR kor_A7DA
ENCODING 42970
SWIDTH 903 0
DWIDTH 24 0
BBX 24 24 0 -2
BITMAP
000000
000000
3001F0
7007FC
700F1E
300C06
301C07
301803
30D803
30D803
31D803
339803
371C07
3E0C06
2C0E0E
37160D
339F1B
31DBBB
78DDB7
78DFBF
000000
000000
000000
000000
ENDCHAR

STARTCHAR kor_A7DB
ENCODING 42971
SWIDTH 903 0
DWIDTH 24 0
BBX 24 24 0 -2
BITMAP
000000
000000
7071F0
7073F8
38E71C
38E60C
3DEE0E
2D6C06
2D6C06
3F6C06
376C06
376C06
376E0E
30660C
30671C
306B1A
306FB6
306DB6
78EFBE
78EFBE
000000
000000
000000
000000
ENDCHAR

STARTCHAR kor_A7DC
ENCODING 42972
SWIDTH 903 0
DWIDTH 24 0
BBX 24 24 0 -2
BITMAP
000000
000000
0007FE
0007FE
000306
000306
000306
17C318
3FE318
3C73F8
1833F8
183318
183318
183300
183300
1C7300
1FE300
17C300
1807C0
1807C0
180000
3C0000
3C0000
000000
ENDCHAR

STARTCHAR kor_A7DD
ENCODING 42973
SWIDTH 903 0
DWIDTH 24 0
BBX 24 24 0 -2
BITMAP
000000
000000
0007FE
0007FE
000306
000306
000306
000318
1BC318
3FE3F8
3673F8
1C3318
183318
183300
183300
183300
183300
183300
3C77C0
3C77C0
000000
000000
000000
000000
ENDCHAR

STARTCHAR kor_A7DE
ENCODING 42974
SWIDTH 903 0
DWIDTH 24 0
BBX 24 24 0 -2
BITMAP
000000
000000
0007FE
0007FE
000306
000306
000306
000318
0C3318
0C33F8
0C33F8
1C7318
186318
186300
38E300
30C300
30C300
39DB00
7F7FC0
6F37C0
600000
600000
600000
000000
ENDCHAR

STARTCHAR kor_A7DF
ENCODING 42975
SWIDTH 903 0
DWIDTH 24 0
BBX 24 24 0 -2
BITMAP
000000
000000
00000C
00001C
00001C
00000C
00000C
00000C
2B878C
7FCFCC
76DCEC
36D86C
36D86C
36D86C
36D86C
36D86C
36D86C
36DCEC
77EFDE
75E79E
000000
000000
000000
000000
ENDCHAR

STARTCHAR kor_A7E0
ENCODING 42976
SWIDTH 903 0
DWIDTH 24 0
BBX 24 24 0 -2
BITMAP
000000
000000
00000C
00001C
00001C
00000C
00000C
00000C
07B1EC
0FF3FC
1C771C
18360C
38360C
30060C
30060C
38060C
18360C
1C771C
0FE3FE
07C1EE
000000
000000
000000
000000
ENDCHAR

STARTCHAR kor_A7E1
ENCODING 42977
SWIDTH 903 0
DWIDTH 24 0
BBX 24 24 0 -2
BITMAP
000000
000000
000003
000007
000007
000003
000003
000003
377E1B
7FFF3F
6D8377
398363
303F63
307F63
30E363
30C363
30C363
30E777
787FBF
783DDB
000000
000000
000000
000000
ENDCHAR

STARTCHAR kor_A7E2
ENCODING 42978
SWIDTH 903 0
DWIDTH 24 0
BBX 24 24 0 -2
BITMAP
000000
000030
000630
000630
000670
000660
000660
000660
6B967E
7FBEDF
56AEB3
70B6B0
63B6F8
67B7DC
66B58E
66B587
66B5B3
66BDB3
67EFBF
63D71E
000300
000300
000000
000000
ENDCHAR

STARTCHAR kor_A7E3
ENCODING 42979
SWIDTH 903 0
DWIDTH 24 0
BBX 24 24 0 -2
BITMAP
000000
000030
000630
00063E
00066F
000663
00066E
00066F
6B9670
7FBEDF
56AEB3
70B6B0
63B6F8
67B7DC
66B58E
66B587
66B5B3
66BDB3
67EFBF
63D71E
000300
000300
000000
000000
ENDCHAR

STARTCHAR kor_A7E4
ENCODING 42980
SWIDTH 903 0
DWIDTH 24 0
BBX 24 24 0 -2
BITMAP
000000
000000
000000
000000
000000
000000
000000
000000
03D9BC
07FBFE
0E3B66
0C19C6
0F0180
07E180
01F180
003980
181980
1C3980
1FF3E0
17E3E0
000000
000000
000000
000000
ENDCHAR

STARTCHAR kor_A7E5
ENCODING 42981
SWIDTH 903 0
DWIDTH 24 0
BBX 24 24 0 -2
BITMAP
000000
000000
1FE000
1FF000
0C3800
0C1800
0C1800
0C1BE0
0C1BF0
0C3838
0FF018
0FE3D8
0C07F8
0C0E38
0C0C18
0C0C18
0C0C18
0C0E38
1F07FE
1F03EE
000000
000000
000000
000000
ENDCHAR

STARTCHAR kor_A7E6
ENCODING 42982
SWIDTH 903 0
DWIDTH 24 0
BBX 24 24 0 -2
BITMAP
000000
000000
307E00
707F00
703380
303180
303180
3031FC
31B17E
33B386
333F06
373E36
3E307E
2C30EE
3C30C6
3E30C6
3730C6
3330EE
7B787F
79783B
000000
000000
000000
000000
ENDCHAR

STARTCHAR kor_A7E7
ENCODING 42983
SWIDTH 903 0
DWIDTH 24 0
BBX 24 24 0 -2
BITMAP
000000
000000
70BF00
70FF80
39D9C0
39D8C0
3BD8C0
2AD8FC
2AD8FE
3ED9C6
36DF86
36DF36
36D87E
30D8EE
30D8C6
30D8C6
30D8C6
30D8EE
79FC7F
79BC3B
000000
000000
000000
000000
ENDCHAR

STARTCHAR kor_A7E8
ENCODING 42984
SWIDTH 903 0
DWIDTH 24 0
BBX 24 24 0 -2
BITMAP
000000
000000
0D7E00
1FFF00
3BB380
31B180
31B180
3031FC
30317E
303386
37BF06
37BE36
31B07E
31B0EE
31B0C6
31B0C6
31B0C6
3BB0EE
1F787F
0E783B
000000
000000
000000
000000
ENDCHAR

STARTCHAR kor_A7E9
ENCODING 42985
SWIDTH 903 0
DWIDTH 24 0
BBX 24 24 0 -2
BITMAP
000000
000000
781D80
781F80
300B80
318D80
318D80
318D80
318DF8
3BDD7C
1AD9CE
1AD986
1ED986
165986
165986
1E7986
0C3186
0C31CE
0C33FC
0C3378
000000
000000
000000
000000
ENDCHAR

STARTCHAR kor_A7EA
ENCODING 42986
SWIDTH 903 0
DWIDTH 24 0
BBX 24 24 0 -2
BITMAP
000000
000000
060000
1E0000
1E0000
060000
060000
060000
060000
062F78
067FFC
0679CC
06318C
06318C
06318C
06318C
06318C
06318C
1F7BDE
1F7BDE
000000
000000
000000
000000
ENDCHAR

STARTCHAR kor_A7EB
ENCODING 42987
SWIDTH 903 0
DWIDTH 24 0
BBX 24 24 0 -2
BITMAP
000000
000000
060000
1E0000
1E0000
060000
060000
060000
063C3C
063C3C
061818
060E70
0606E0
0603C0
060180
0606E0
060E70
061C38
1FB81C
1FBC3C
000000
000000
000000
000000
ENDCHAR

STARTCHAR kor_A7EC
ENCODING 42988
SWIDTH 903 0
DWIDTH 24 0
BBX 24 24 0 -2
BITMAP
000000
000000
3FE000
3FF000
183800
181800
181800
1818F7
1839FF
1FF38E
1FE306
183B06
181B06
180B06
180B06
180F8E
181DFE
3FF8F6
3FF006
000006
000006
00001F
00001F
000000
ENDCHAR

STARTCHAR kor_A7ED
ENCODING 42989
SWIDTH 903 0
DWIDTH 24 0
BBX 24 24 0 -2
BITMAP
000000
000000
07B000
0FF000
1C7000
183000
383000
300F1E
300F1E
30060C
31F70C
31F31C
303398
3031B8
3031B0
3830F0
1830E0
1C7060
0FE0E0
07C0C0
0000C0
0007C0
000780
000000
ENDCHAR

STARTCHAR kor_A7EE
ENCODING 42990
SWIDTH 903 0
DWIDTH 24 0
BBX 24 24 0 -2
BITMAP
000000
000000
0FD800
1FD800
387800
303800
301800
380000
1E0F1E
0F8F1E
03E60C
00F60C
003F1C
001B18
301BB8
3019B0
3819B0
3C39F0
2FF0E0
37E0E0
000000
000000
000000
000000
ENDCHAR

STARTCHAR kor_A7EF
ENCODING 42991
SWIDTH 903 0
DWIDTH 24 0
BBX 24 24 0 -2
BITMAP
000000
000600
000600
000E00
000C00
000E00
001E00
001600
1B1667
3F36FF
7736DC
6337B6
6375B6
6067B6
60673E
60E79C
62C5B8
76C6F6
3FC6DF
1D8673
018033
01803F
00001E
000000
ENDCHAR

STARTCHAR kor_A8A1
ENCODING 43169
SWIDTH 903 0
DWIDTH 24 0
BBX 24 24 0 -2
BITMAP
000000
000000
003FFF
003FFF
007000
007800
00FC00
00DC00
00DC00
01DE00
018FFF
038FFF
030700
070780
06FB80
0FFFC0
0C01C0
1C01E0
1800E0
3C03FF
3C03FF
000000
000000
000000
ENDCHAR

STARTCHAR kor_A8A2
ENCODING 43170
SWIDTH 903 0
DWIDTH 24 0
BBX 24 24 0 -2
BITMAP
000000
000000
07FF00
07FFC0
0381E0
0380F0
038070
038078
038038
1FFC38
1FFC38
038038
038038
038038
038078
038070
0380F0
0381E0
07FFC0
07FF00
000000
000000
000000
000000
ENDCHAR

STARTCHAR kor_A8A3
ENCODING 43171
SWIDTH 903 0
DWIDTH 24 0
BBX 24 24 0 -2
BITMAP
000000
000000
00FF00
01FFC0
03C1E0
0380E0
0000E0
00FEE0
03FFE0
03C3E0
0781E0
0700E0
0700E0
0781E0
03C3E0
03FFF8
00FF78
000000
0FFFFC
0FFFFC
000000
000000
000000
000000
ENDCHAR

STARTCHAR kor_A8A4
ENCODING 43172
SWIDTH 903 0
DWIDTH 24 0
BBX 24 24 0 -2
BITMAP
000000
000000
1FC3F8
1FC3F8
0700E0
0700E0
3FFFFC
3FFFFC
0700E0
0700E0
07FFE0
07FFE0
0700E0
0700E0
0700E0
0700E0
0700E0
0700E0
1FC3F8
1FC3F8
000000
000000
000000
000000
ENDCHAR

STARTCHAR kor_A8A6
ENCODING 43174
SWIDTH 903 0
DWIDTH 24 0
BBX 24 24 0 -2
BITMAP
000000
000000
0FE3F8
0FE3F8
0380E0
0380E0
0380E0
0380E0
0380E0
0380E0
0380E0
0380E0
0380E0
0380E0
0380E0
0380E0
0380E0
0FE0E0
0FFCE0
001DE0
001FE0
000FC0
000780
000000
ENDCHAR

STARTCHAR kor_A8A8
ENCODING 43176
SWIDTH 903 0
DWIDTH 24 0
BBX 24 24 0 -2
BITMAP
000000
000000
07F000
07F000
01C000
01C000
01C000
01C000
01C000
01C078
01C0FC
01C0FC
01C078
01C000
01C000
01C018
01C018
01C038
07FFF8
07FFF8
000000
000000
000000
000000
ENDCHAR

STARTCHAR kor_A8A9
ENCODING 43177
SWIDTH 903 0
DWIDTH 24 0
BBX 24 24 0 -2
BITMAP
000000
000000
07F000
07F000
01C000
01C000
01CE00
01FE00
01B800
07E000
1FC000
1DC000
01C000
01C000
01C000
01C018
01C018
01C038
07FFF8
07FFF8
000000
000000
000000
000000
ENDCHAR

STARTCHAR kor_A8AA
ENCODING 43178
SWIDTH 903 0
DWIDTH 24 0
BBX 24 24 0 -2
BITMAP
000000
000000
007F18
01FFB8
03C1F0
0380E0
0780F0
0701F0
070370
070770
070E70
071C70
073870
077070
07E070
06C0F0
0380E0
07C1E0
0DFFC0
0C7F00
000000
000000
000000
000000
ENDCHAR

STARTCHAR kor_A8AB
ENCODING 43179
SWIDTH 903 0
DWIDTH 24 0
BBX 24 24 0 -2
BITMAP
000000
000000
03F800
0FFFFF
1E0FFF
1C0700
3C0780
380380
380380
380380
3803FF
3803FF
380380
380380
380380
3C0780
1C0700
1E0FFF
0FFFFF
03F800
000000
000000
000000
000000
ENDCHAR

STARTCHAR kor_A8AC
ENCODING 43180
SWIDTH 903 0
DWIDTH 24 0
BBX 24 24 0 -2
BITMAP
000000
000000
007E00
01FF80
03C3C0
0381C0
0781E0
0700E0
0700E0
0700E0
0700E0
0700E0
0781E0
0381C0
03C3C0
01FF80
007E00
000000
0FFFF0
0FFFF0
000000
000000
000000
000000
ENDCHAR

STARTCHAR kor_A8AD
ENCODING 43181
SWIDTH 903 0
DWIDTH 24 0
BBX 24 24 0 -2
BITMAP
000000
000000
000000
07F000
07F000
01C000
01FE00
01FF80
01C3C0
01C1E0
01C0E0
01C0E0
01C0E0
01C0E0
01C1E0
01C3C0
01FF80
01FE00
01C000
07F000
07F000
000000
000000
000000
ENDCHAR

STARTCHAR kor_A8AE
ENCODING 43182
SWIDTH 903 0
DWIDTH 24 0
BBX 24 24 0 -2
BITMAP
000000
000000
000000
07FFF0
07FFF0
061C30
061C30
061C30
061C30
001C00
001C00
07FFF0
07FFF0
001C00
001C00
001C00
001C00
001C00
001C00
007F00
007F00
000000
000000
000000
ENDCHAR

STARTCHAR kor_A8AF
ENCODING 43183
SWIDTH 903 0
DWIDTH 24 0
BBX 24 24 0 -2
BITMAP
000000
000000
070000
073F00
07FFC0
06FFE0
07E1F0
078070
070078
070038
070038
070038
070038
070038
070078
070070
0771F0
077FE0
077FC0
071F00
070000
000000
000000
000000
ENDCHAR

STARTCHAR kor_A8B1
ENCODING 43185
SWIDTH 903 0
DWIDTH 24 0
BBX 24 24 0 -2
BITMAP
000000
000000
007F00
01FFC0
03C1E0
070070
0EFFB8
0DFFD8
1C00DC
1801CC
18018C
18038C
18070C
180E1C
1C7C18
0E7838
070070
03C1E0
01FFC0
007F00
000000
000000
000000
000000
ENDCHAR

STARTCHAR kor_A8B2
ENCODING 43186
SWIDTH 903 0
DWIDTH 24 0
BBX 24 24 0 -2
BITMAP
000000
000000
007F00
01FFC0
03C1E0
070070
0EC038
0CC018
1CC01C
19C00C
19800C
19800C
19800C
1D83DC
1DFFD8
0EFE38
070070
03C1E0
01FFC0
007F00
000000
000000
000000
000000
ENDCHAR

STARTCHAR kor_A8B3
ENCODING 43187
SWIDTH 903 0
DWIDTH 24 0
BBX 24 24 0 -2
BITMAP
000000
000000
007F00
01FFC0
03C1E0
070070
0EFFB8
0BFF98
1C601C
18C00C
18C00C
18C00C
18C00C
1CC0DC
0CE1D8
0E7FB8
073F70
03C0E0
01FFC0
007F00
000000
000000
000000
000000
ENDCHAR

STARTCHAR kor_A8B4
ENCODING 43188
SWIDTH 903 0
DWIDTH 24 0
BBX 24 24 0 -2
BITMAP
000000
000000
007F00
01FFC0
03C1E0
072070
0EF838
0C3C18
1C0C1C
183C0C
18780C
18E00C
18C00C
18E0DC
1C73D8
0E3FB8
071E70
03C1E0
01FFC0
007F00
000000
000000
000000
000000
ENDCHAR

STARTCHAR kor_A8B5
ENCODING 43189
SWIDTH 903 0
DWIDTH 24 0
BBX 24 24 0 -2
BITMAP
000000
000000
007F00
01FFC0
03C1E0
070070
0E8038
0DFF18
1D7F9C
19C1CC
1980CC
1981CC
19838C
1D8F1C
1D9E98
0F9FB8
060070
03C1E0
01FFC0
007F00
000000
000000
000000
000000
ENDCHAR

STARTCHAR kor_A8B6
ENCODING 43190
SWIDTH 903 0
DWIDTH 24 0
BBX 24 24 0 -2
BITMAP
000000
000000
007F00
01FFC0
03C1E0
070070
0EC0B8
0DC0D8
1D80DC
1980CC
199FCC
19BFCC
19B0CC
19B0DC
1DFFD8
0CDFB8
0F0070
07C1E0
01FFC0
007F00
000000
000000
000000
000000
ENDCHAR

STARTCHAR kor_A8B7
ENCODING 43191
SWIDTH 903 0
DWIDTH 24 0
BBX 24 24 0 -2
BITMAP
000000
000000
007F00
01FFC0
03C1E0
070C70
0E0C38
0C1C18
1C181C
18380C
183C0C
186E0C
18E70C
19C39C
1B81D8
0F00F8
060030
03C1E0
01FFC0
007F00
000000
000000
000000
000000
ENDCHAR

STARTCHAR kor_A8B8
ENCODING 43192
SWIDTH 903 0
DWIDTH 24 0
BBX 24 24 0 -2
BITMAP
000000
000000
007E00
01FF80
03C3E0
0700F0
0E0038
0C3E18
1C7F1C
18E38C
19C1CC
1980CC
1981CC
19C39C
1CFF18
0C7E38
0E0070
0781E0
03FFC0
00FF00
000000
000000
000000
000000
ENDCHAR

STARTCHAR kor_A8B9
ENCODING 43193
SWIDTH 903 0
DWIDTH 24 0
BBX 24 24 0 -2
BITMAP
000000
000000
007F00
01FFC0
03C1E0
073C70
0EFF38
0DC798
1C019C
18078C
180F0C
181C0C
18770C
18F39C
1DC1D8
0F80F8
060030
03C1E0
01FFC0
007F00
000000
000000
000000
000000
ENDCHAR

STARTCHAR kor_A8BA
ENCODING 43194
SWIDTH 903 0
DWIDTH 24 0
BBX 24 24 0 -2
BITMAP
000000
000000
007F00
01FFC0
03C1E0
077E70
0E0E38
0DF018
1BFC1C
180C0C
180C0C
181C0C
18380C
186E1C
1CE7D8
0DC3F8
078030
0341E0
01FFC0
007F00
000000
000000
000000
000000
ENDCHAR

STARTCHAR kor_A8BB
ENCODING 43195
SWIDTH 903 0
DWIDTH 24 0
BBX 24 24 0 -2
BITMAP
000000
000000
007F00
01FFC0
03C1E0
070070
0EFC38
0CFF98
1C07DC
1800EC
18006C
19FFEC
19FFEC
18006C
1C01DC
0C0798
0E0738
0780F0
03FFE0
00FF80
000000
000000
000000
000000
ENDCHAR

STARTCHAR kor_A8BC
ENCODING 43196
SWIDTH 903 0
DWIDTH 24 0
BBX 24 24 0 -2
BITMAP
000000
000000
003F00
01FFC0
03E1E0
070070
0EFFB8
0BFF98
1CC01C
18C00C
18FF8C
18FF8C
18C00C
1CC01C
0CE1D8
0E7FF8
073F30
03C0E0
01FFC0
007F00
000000
000000
000000
000000
ENDCHAR

STARTCHAR kor_A8BD
ENCODING 43197
SWIDTH 903 0
DWIDTH 24 0
BBX 24 24 0 -2
BITMAP
000000
000000
007F00
01FFC0
03C1E0
070070
0EFFB8
0BFFD8
1C631C
18630C
18670C
18660C
186E0C
1BFDDC
1FFFD8
0C0038
0E0070
07C1E0
03FFC0
007F00
000000
000000
000000
000000
ENDCHAR

STARTCHAR kor_A8BE
ENCODING 43198
SWIDTH 903 0
DWIDTH 24 0
BBX 24 24 0 -2
BITMAP
000000
000000
007F00
01FFC0
03C1E0
071C70
0E1F38
0C0798
1DF99C
19FE0C
180F0C
187B8C
18E18C
1CC39C
0CFF18
0E7E38
070070
03C1E0
01FFC0
007F00
000000
000000
000000
000000
ENDCHAR

STARTCHAR kor_A8BF
ENCODING 43199
SWIDTH 903 0
DWIDTH 24 0
BBX 24 24 0 -2
BITMAP
000000
000000
007E00
01FFC0
03C3E0
070070
0E01B8
0DF198
1BF99C
18198C
1819EC
1839EC
18718C
19E19C
1DC198
0C01B8
0E01F0
078060
03FFC0
00FF00
000000
000000
000000
000000
ENDCHAR

STARTCHAR kor_A8C0
ENCODING 43200
SWIDTH 903 0
DWIDTH 24 0
BBX 24 24 0 -2
BITMAP
000000
000000
007F00
01FFC0
03C1E0
070070
0E00B8
0D00D8
1B00DC
1B00EC
1B01EC
1B03AC
1B86CC
19FEDC
1CFCD8
0E00F8
070030
03C1F0
01FFC0
007F00
000000
000000
000000
000000
ENDCHAR

STARTCHAR kor_A8C1
ENCODING 43201
SWIDTH 903 0
DWIDTH 24 0
BBX 24 24 0 -2
BITMAP
000000
000000
007E00
01FFC0
03C3E0
070070
0E01B8
0DF9D8
1FF99C
1B018C
1B03EC
1B07EC
1B8D8C
19FD9C
1CF9D8
0C01F8
0F00B0
078160
01FFC0
00FF00
000000
000000
000000
000000
ENDCHAR

STARTCHAR kor_A8C2
ENCODING 43202
SWIDTH 903 0
DWIDTH 24 0
BBX 24 24 0 -2
BITMAP
000000
000000
007E00
01FFC0
03C3E0
070070
0E01B8
0D8198
1BC19C
18C38C
19C7EC
1B8DEC
1B3D8C
1BF99C
1DE198
0C01B8
0F0070
07C1E0
01FFC0
007F00
000000
000000
000000
000000
ENDCHAR

STARTCHAR kor_A8C3
ENCODING 43203
SWIDTH 903 0
DWIDTH 24 0
BBX 24 24 0 -2
BITMAP
000000
000000
007E00
03FFC0
07C3E0
0E0070
0C01B8
1EF19C
1BF98C
1B39EC
1B19EC
1B718C
1BE18C
1AF19C
1C0198
0C01B8
0E00F0
078160
03FFC0
00FF00
000000
000000
000000
000000
ENDCHAR

STARTCHAR kor_A8C4
ENCODING 43204
SWIDTH 903 0
DWIDTH 24 0
BBX 24 24 0 -2
BITMAP
000000
000000
007E00
01FFC0
07C3E0
0F0070
0C01B8
1F1998
1B199C
1B79EC
1BF9EC
1AD98C
1BF98C
1DF19C
0C0198
0E01B8
070070
03C1E0
01FFC0
007F00
000000
000000
000000
000000
ENDCHAR

STARTCHAR kor_A8C5
ENCODING 43205
SWIDTH 903 0
DWIDTH 24 0
BBX 24 24 0 -2
BITMAP
000000
000000
007E00
01FFC0
03C3E0
073070
0E71B8
1C6198
18E19C
19C1EC
1981EC
1BE18C
1F718C
16319C
0C0198
0E01B8
070070
03C1E0
01FFC0
007F00
000000
000000
000000
000000
ENDCHAR

STARTCHAR kor_A8C6
ENCODING 43206
SWIDTH 903 0
DWIDTH 24 0
BBX 24 24 0 -2
BITMAP
000000
000000
007E00
01FFC0
03C3E0
070070
0EF1B8
1DF998
1F999C
1B19EC
1B19EC
1BF98C
19F18C
1C019C
0C0198
0E01B8
070070
03C1E0
01FFC0
007F00
000000
000000
000000
000000
ENDCHAR

STARTCHAR kor_A8C7
ENCODING 43207
SWIDTH 903 0
DWIDTH 24 0
BBX 24 24 0 -2
BITMAP
000000
000000
007F00
01FFC0
03C1E0
070070
0EE1B8
1BF198
18399C
1819EC
1871EC
18E98C
1BBD8C
1F8D9C
0C0198
0E01B8
0700F0
03C160
01FFC0
007F00
000000
000000
000000
000000
ENDCHAR

STARTCHAR kor_A8C8
ENCODING 43208
SWIDTH 903 0
DWIDTH 24 0
BBX 24 24 0 -2
BITMAP
000000
000000
007E00
01FFC0
03C3E0
072070
0EF1B8
1D3198
1BE19C
1831EC
1871EC
18F98C
19DD8C
1D8D9C
0C0198
0E01B8
0700F0
03C160
01FFC0
007F00
000000
000000
000000
000000
ENDCHAR

STARTCHAR kor_A8C9
ENCODING 43209
SWIDTH 903 0
DWIDTH 24 0
BBX 24 24 0 -2
BITMAP
000000
000000
007E00
01FFC0
03C3E0
070070
0EC1B8
1DF198
18799C
1819EC
1BF9EC
1BF98C
18198C
1CF19C
0CE198
0E01B8
0701F0
03C060
01FFC0
007F00
000000
000000
000000
000000
ENDCHAR

STARTCHAR kor_A8CA
ENCODING 43210
SWIDTH 903 0
DWIDTH 24 0
BBX 24 24 0 -2
BITMAP
000000
000000
007E00
01FFC0
07C3E0
0F0070
0C01B8
1FF998
1FF99C
1B01EC
1BF9EC
1B058C
1B1D8C
1FFD9C
0DF198
0E01B8
070070
03C1E0
01FFC0
007F00
000000
000000
000000
000000
ENDCHAR

STARTCHAR kor_A8CB
ENCODING 43211
SWIDTH 903 0
DWIDTH 24 0
BBX 24 24 0 -2
BITMAP
000000
000000
003F00
01FFC0
03E1E0
070070
0E01B8
1DFD98
1BFD9C
18D9EC
18F9EC
18B18C
1BFD8C
1FFD9C
0C0198
0E01B8
0701F0
03C060
01FFC0
007F00
000000
000000
000000
000000
ENDCHAR

STARTCHAR kor_A8CC
ENCODING 43212
SWIDTH 903 0
DWIDTH 24 0
BBX 24 24 0 -2
BITMAP
000000
000000
007E00
01FFC0
03C3E0
070070
0EF1B8
1C7998
1B999C
1BF1EC
18B9EC
1B998C
1B798C
1DF19C
0C0198
0E01B8
070070
03C1E0
01FFC0
007F00
000000
000000
000000
000000
ENDCHAR

STARTCHAR kor_A8CD
ENCODING 43213
SWIDTH 903 0
DWIDTH 24 0
BBX 24 24 0 -2
BITMAP
000000
000000
007F00
01FFC0
03C1E0
070070
0E0038
0C0018
1C3E1C
18FF0C
18E38C
18DF8C
183F8C
18E38C
1CE39C
0CE398
0E7FB8
073DF0
03C060
01FFC0
007F00
000000
000000
000000
ENDCHAR

STARTCHAR kor_A8CE
ENCODING 43214
SWIDTH 903 0
DWIDTH 24 0
BBX 24 24 0 -2
BITMAP
000000
000000
007F00
01FFC0
03C1E0
073070
0EF038
0DF018
1C701C
187F0C
186F8C
1879CC
1871CC
1871CC
1C71DC
0C79D8
0E7FB8
076F70
0380E0
01FFC0
007F00
000000
000000
000000
ENDCHAR

STARTCHAR kor_A8CF
ENCODING 43215
SWIDTH 903 0
DWIDTH 24 0
BBX 24 24 0 -2
BITMAP
000000
000000
007F00
01FFC0
03C1E0
070070
0E0038
0C0018
1C3E1C
187F0C
18F38C
18E18C
18E00C
18E00C
1CE19C
0CF398
0E7F38
073E70
03C1E0
01FFC0
007F00
000000
000000
000000
ENDCHAR

STARTCHAR kor_A8D0
ENCODING 43216
SWIDTH 903 0
DWIDTH 24 0
BBX 24 24 0 -2
BITMAP
000000
000000
007F00
01FFC0
03C1E0
070270
0E0FB8
0C0F98
1C039C
183B8C
187F8C
18E78C
18E38C
18E38C
1CE39C
0CE798
0E7FB8
073BF0
03C060
01FFC0
007F00
000000
000000
000000
ENDCHAR

STARTCHAR kor_A8D1
ENCODING 43217
SWIDTH 903 0
DWIDTH 24 0
BBX 24 24 0 -2
BITMAP
000000
000000
007F00
01FFC0
03C1E0
070070
0E0038
0C0018
1C3E1C
187F0C
18E38C
18E38C
18FF8C
18FF8C
1CE01C
0CE198
0E7FB8
073F70
03C0E0
01FFC0
007F00
000000
000000
000000
ENDCHAR

STARTCHAR kor_A8D2
ENCODING 43218
SWIDTH 903 0
DWIDTH 24 0
BBX 24 24 0 -2
BITMAP
000000
000000
007F00
01FFC0
03C1E0
070E70
0E1FB8
0C1DD8
1C1DDC
181C0C
18FF0C
18FF0C
181C0C
181C0C
1C1C1C
0C1C18
0E7F38
077F70
0380E0
01FFC0
007F00
000000
000000
000000
ENDCHAR

STARTCHAR kor_A8D3
ENCODING 43219
SWIDTH 903 0
DWIDTH 24 0
BBX 24 24 0 -2
BITMAP
000000
000000
007F00
01FFC0
03C1E0
070070
0E03B8
0C3F98
1CFE1C
18F70C
18E70C
18FF0C
187E0C
18300C
1CFF9C
0DCF98
0DC3B8
07E7F0
03FF60
01BDC0
007F00
000000
000000
000000
ENDCHAR

STARTCHAR kor_A8D4
ENCODING 43220
SWIDTH 903 0
DWIDTH 24 0
BBX 24 24 0 -2
BITMAP
000000
000000
007F00
01FFC0
03C1E0
073070
0EF038
0DF018
1C701C
187F0C
186F8C
1879CC
1871CC
1871CC
1C71DC
0C71D8
0EFBF8
07FBF0
030060
01FFC0
007F00
000000
000000
000000
ENDCHAR

STARTCHAR kor_A8D5
ENCODING 43221
SWIDTH 903 0
DWIDTH 24 0
BBX 24 24 0 -2
BITMAP
000000
000000
007F00
01FFC0
03C1E0
071C70
0E1C38
0C1C18
1C001C
187C0C
187C0C
181C0C
181C0C
181C0C
1C1C1C
0C1C18
0E7F38
077F70
0380E0
01FFC0
007F00
000000
000000
000000
ENDCHAR

STARTCHAR kor_A8D6
ENCODING 43222
SWIDTH 903 0
DWIDTH 24 0
BBX 24 24 0 -2
BITMAP
000000
000000
007F00
01FFC0
03C1E0
070E70
0E0E38
0C0E18
1C001C
183E0C
183E0C
180E0C
180E0C
180E0C
1C0E1C
0CEE18
0EEE38
07FE70
037DE0
01C3C0
007F00
000000
000000
000000
ENDCHAR

STARTCHAR kor_A8D7
ENCODING 43223
SWIDTH 903 0
DWIDTH 24 0
BBX 24 24 0 -2
BITMAP
000000
000000
007F00
01FFC0
03C1E0
073070
0EF038
0DF018
1C73DC
1873CC
18718C
18770C
187E0C
186C0C
1C7F1C
0C7798
0EFBB8
07FBF0
030060
01FFC0
007F00
000000
000000
000000
ENDCHAR

STARTCHAR kor_A8D8
ENCODING 43224
SWIDTH 903 0
DWIDTH 24 0
BBX 24 24 0 -2
BITMAP
000000
000000
007F00
01FFC0
03C1E0
071C70
0E7C38
0C7C18
1C1C1C
181C0C
181C0C
181C0C
181C0C
181C0C
1C1C1C
0C1C18
0E7F38
077F70
0380E0
01FFC0
007F00
000000
000000
000000
ENDCHAR

STARTCHAR kor_A8D9
ENCODING 43225
SWIDTH 903 0
DWIDTH 24 0
BBX 24 24 0 -2
BITMAP
000000
000000
007F00
01FFC0
03C1E0
070070
0E0038
0C0018
1CB79C
1BFFCC
1BEDCC
18EDCC
18EDCC
18EDCC
1CEDDC
0CEDD8
0DEFF8
07EBF0
030060
01FFC0
007F00
000000
000000
000000
ENDCHAR

STARTCHAR kor_A8DA
ENCODING 43226
SWIDTH 903 0
DWIDTH 24 0
BBX 24 24 0 -2
BITMAP
000000
000000
007F00
01FFC0
03C1E0
070070
0E0038
0C0018
1CBE1C
1BFF0C
1BE38C
18E38C
18E38C
18E38C
1CE39C
0CE398
0DF7B8
07F7F0
030060
01FFC0
007F00
000000
000000
000000
ENDCHAR

STARTCHAR kor_A8DB
ENCODING 43227
SWIDTH 903 0
DWIDTH 24 0
BBX 24 24 0 -2
BITMAP
000000
000000
007F00
01FFC0
03C1E0
070070
0E0038
0C0018
1C3E1C
187F0C
18F78C
18E38C
18E38C
18E38C
1CE39C
0CF798
0E7F38
073E70
03C1E0
01FFC0
007F00
000000
000000
000000
ENDCHAR

STARTCHAR kor_A8DC
ENCODING 43228
SWIDTH 903 0
DWIDTH 24 0
BBX 24 24 0 -2
BITMAP
000000
000000
007F00
01FFC0
03C1E0
070070
0E0038
0C0018
1DEF1C
19FF8C
187BCC
1871CC
1871CC
1871CC
1C7BDC
0C7F98
0E6F38
077070
03F9E0
01FFC0
007F00
000000
000000
000000
ENDCHAR

STARTCHAR kor_A8DD
ENCODING 43229
SWIDTH 903 0
DWIDTH 24 0
BBX 24 24 0 -2
BITMAP
000000
000000
007F00
01FFC0
03C1E0
070070
0E0038
0C0018
1C3D9C
187F8C
18F78C
18E38C
18E38C
18E38C
1CF79C
0C7F98
0E3BB8
0703F0
03C760
01FFC0
007F00
000000
000000
000000
ENDCHAR

STARTCHAR kor_A8DE
ENCODING 43230
SWIDTH 903 0
DWIDTH 24 0
BBX 24 24 0 -2
BITMAP
000000
000000
007F00
01FFC0
03C1E0
070070
0E0038
0C0018
1C779C
19FFCC
19EDCC
1879CC
18700C
18700C
1C701C
0C7018
0EFC38
07FC70
0301E0
01FFC0
007F00
000000
000000
000000
ENDCHAR

STARTCHAR kor_A8DF
ENCODING 43231
SWIDTH 903 0
DWIDTH 24 0
BBX 24 24 0 -2
BITMAP
000000
000000
007F00
01FFC0
03C1E0
070070
0E0038
0C0018
1C3D9C
18FF8C
18E38C
18F98C
187E0C
180F8C
1CC39C
0CE398
0EFFB8
07BF70
0340E0
01FFC0
007F00
000000
000000
000000
ENDCHAR

STARTCHAR kor_A8E0
ENCODING 43232
SWIDTH 903 0
DWIDTH 24 0
BBX 24 24 0 -2
BITMAP
000000
000000
007F00
01FFC0
03C1E0
073870
0E3838
0C3818
1DFF1C
19FF0C
18380C
18380C
18380C
18398C
1C399C
0C3998
0E3FB8
071F70
03C0E0
01FFC0
007F00
000000
000000
000000
ENDCHAR

STARTCHAR kor_A8E1
ENCODING 43233
SWIDTH 903 0
DWIDTH 24 0
BBX 24 24 0 -2
BITMAP
000000
000000
007F00
01FFC0
03C1E0
070070
0E0038
0C0018
1CE39C
1BE38C
1BE38C
18E38C
18E38C
18E38C
1CE39C
0CE398
0E7FB8
073DF0
03C060
01FFC0
007F00
000000
000000
000000
ENDCHAR

STARTCHAR kor_A8E2
ENCODING 43234
SWIDTH 903 0
DWIDTH 24 0
BBX 24 24 0 -2
BITMAP
000000
000000
007F00
01FFC0
03C1E0
070070
0E0038
0C0018
1FF3FC
1BF3EC
18E18C
18F38C
18730C
18770C
1C361C
0C3E18
0E1C38
071C70
03C1E0
01FFC0
007F00
000000
000000
000000
ENDCHAR

STARTCHAR kor_A8E3
ENCODING 43235
SWIDTH 903 0
DWIDTH 24 0
BBX 24 24 0 -2
BITMAP
000000
000000
007F00
01FFC0
03C1E0
070070
0E0038
0C0018
1FBDFC
1BFDEC
19DCCC
19FDCC
18ED8C
18FD8C
1CDF9C
0C7718
0E7738
077770
0380E0
01FFC0
007F00
000000
000000
000000
ENDCHAR

STARTCHAR kor_A8E4
ENCODING 43236
SWIDTH 903 0
DWIDTH 24 0
BBX 24 24 0 -2
BITMAP
000000
000000
007F00
01FFC0
03C1E0
070070
0E0038
0C0018
1DF79C
19F78C
18E30C
187E0C
183C0C
181C0C
1C7E1C
0CEF18
0DC7B8
07EFF0
030060
01FFC0
007F00
000000
000000
000000
ENDCHAR

STARTCHAR kor_A8E5
ENCODING 43237
SWIDTH 903 0
DWIDTH 24 0
BBX 24 24 0 -2
BITMAP
000000
000000
007F00
01FFC0
03C1E0
070070
0E0038
0C0018
1CFBDC
18FBCC
18718C
187B8C
183B0C
183F0C
1C1E1C
0CEE18
0EFC38
07D870
0371E0
01CFC0
007F00
000000
000000
000000
ENDCHAR

STARTCHAR kor_A8E6
ENCODING 43238
SWIDTH 903 0
DWIDTH 24 0
BBX 24 24 0 -2
BITMAP
000000
000000
007F00
01FFC0
03C1E0
070070
0E0038
0C0018
1CFF9C
18FF8C
18E38C
18CF0C
181E0C
183C0C
1C799C
0CF398
0EEFB8
07FFF0
030060
01FFC0
007F00
000000
000000
000000
ENDCHAR

STARTCHAR kor_A8E7
ENCODING 43239
SWIDTH 903 0
DWIDTH 24 0
BBX 24 24 0 -2
BITMAP
000000
000000
007F00
01FFC0
03C1E0
071C70
0E3C38
0CFC18
1CFC1C
181C0C
181C0C
181C0C
181C0C
181C0C
1C1C1C
0C1C18
0EFF38
07FF70
0300E0
01FFC0
007F00
000000
000000
000000
ENDCHAR

STARTCHAR kor_A8E8
ENCODING 43240
SWIDTH 903 0
DWIDTH 24 0
BBX 24 24 0 -2
BITMAP
000000
000000
007F00
01FFC0
03C1E0
073E70
0E7FB8
0CF798
1CC39C
18C38C
18078C
180F0C
180E0C
181C0C
1C399C
0C7198
0EEFB8
07FFF0
030060
01FFC0
007F00
000000
000000
000000
ENDCHAR

STARTCHAR kor_A8E9
ENCODING 43241
SWIDTH 903 0
DWIDTH 24 0
BBX 24 24 0 -2
BITMAP
000000
000000
007F00
01FFC0
03C1E0
073E70
0E7F38
0CF798
1CC39C
18078C
183F8C
183F0C
18078C
18038C
1CC39C
0CE798
0E7FB8
073F70
03C0E0
01FFC0
007F00
000000
000000
000000
ENDCHAR

STARTCHAR kor_A8EA
ENCODING 43242
SWIDTH 903 0
DWIDTH 24 0
BBX 24 24 0 -2
BITMAP
000000
000000
007F00
01FFC0
03C1E0
070670
0E0F38
0C1F18
1C171C
18370C
18770C
18670C
18E70C
18DFCC
1CFFDC
0C0718
0E1FB8
071FF0
03C060
01FFC0
007F00
000000
000000
000000
ENDCHAR

STARTCHAR kor_A8EB
ENCODING 43243
SWIDTH 903 0
DWIDTH 24 0
BBX 24 24 0 -2
BITMAP
000000
000000
007F00
01FFC0
03C1E0
073E70
0EFFB8
0CFF18
1CC01C
18FE0C
18BF0C
18E78C
18C38C
18038C
1CC39C
0CE798
0E7F38
073E70
03C1E0
01FFC0
007F00
000000
000000
000000
ENDCHAR

STARTCHAR kor_A8EC
ENCODING 43244
SWIDTH 903 0
DWIDTH 24 0
BBX 24 24 0 -2
BITMAP
000000
000000
007F00
01FFC0
03C1E0
073E70
0E7F38
0CF398
1CE19C
18FE0C
18DF0C
18F78C
18E38C
18E38C
1CE39C
0CF798
0E7F38
073E70
03C1E0
01FFC0
007F00
000000
000000
000000
ENDCHAR

STARTCHAR kor_A8ED
ENCODING 43245
SWIDTH 903 0
DWIDTH 24 0
BBX 24 24 0 -2
BITMAP
000000
000000
007F00
01FFC0
03C1E0
073E70
0E7FB8
0C7F98
1C639C
18630C
18070C
18060C
180E0C
180E0C
1C1E1C
0C1C18
0E1C38
071C70
03C1E0
01FFC0
007F00
000000
000000
000000
ENDCHAR

STARTCHAR kor_A8EE
ENCODING 43246
SWIDTH 903 0
DWIDTH 24 0
BBX 24 24 0 -2
BITMAP
000000
000000
007F00
01FFC0
03C1E0
073E70
0E7F38
0CF798
1CE39C
18E38C
187F0C
183E0C
18F78C
18E38C
1CE39C
0CF798
0E7F38
073E70
03C1E0
01FFC0
007F00
000000
000000
000000
ENDCHAR

STARTCHAR kor_A8EF
ENCODING 43247
SWIDTH 903 0
DWIDTH 24 0
BBX 24 24 0 -2
BITMAP
000000
000000
007F00
01FFC0
03C1E0
073E70
0E7F38
0CF798
1CE39C
18E38C
18E38C
18E78C
187F8C
183B8C
1CC39C
0CE798
0E7F38
073E70
03C1E0
01FFC0
007F00
000000
000000
000000
ENDCHAR

STARTCHAR kor_A8F0
ENCODING 43248
SWIDTH 903 0
DWIDTH 24 0
BBX 24 24 0 -2
BITMAP
000000
000000
007F00
01FFC0
03C1E0
070670
0DCFB8
0FDCD8
1DDCFC
19DCEC
19DCEC
19DCEC
19DCEC
19DCEC
1DDCFC
0DDCD8
0FEFF8
07E7B0
030060
01FFC0
007F00
000000
000000
000000
ENDCHAR

STARTCHAR kor_A8F1
ENCODING 43249
SWIDTH 903 0
DWIDTH 24 0
BBX 24 24 0 -2
BITMAP
000000
000000
007F00
01FFC0
03C1E0
072270
0EEFB8
0BEF98
1CE39C
18E38C
18E38C
18E38C
18E38C
18E38C
1CE39C
0CE398
0DF7B8
07F7F0
030060
01FFC0
007F00
000000
000000
000000
ENDCHAR

STARTCHAR kor_A8F2
ENCODING 43250
SWIDTH 903 0
DWIDTH 24 0
BBX 24 24 0 -2
BITMAP
000000
000000
007F00
01FFC0
03C1E0
072670
0EEFB8
0BFDD8
1CD8FC
18E0EC
18E1EC
18E3CC
18E38C
18E70C
1CEE5C
0CFC58
0DDBF8
07DFF0
030060
01FFC0
007F00
000000
000000
000000
ENDCHAR

STARTCHAR kor_A8F3
ENCODING 43251
SWIDTH 903 0
DWIDTH 24 0
BBX 24 24 0 -2
BITMAP
000000
000000
007F00
01FFC0
03C1E0
072670
0EEFB8
0BFCD8
1CD8FC
18E0EC
18E7CC
18E78C
18E1EC
18E0EC
1CF8FC
0CDCD8
0DEFF8
07F7B0
030060
01FFC0
007F00
000000
000000
000000
ENDCHAR

STARTCHAR kor_A8F4
ENCODING 43252
SWIDTH 903 0
DWIDTH 24 0
BBX 24 24 0 -2
BITMAP
000000
000000
007F00
01FFC0
03C1E0
072070
0EE1B8
0BE3D8
1CE3DC
18E7CC
18E5CC
18EDCC
18EDCC
18FFEC
1CDFFC
0CE1D8
0FF3F8
07F3F0
030060
01FFC0
007F00
000000
000000
000000
ENDCHAR

STARTCHAR kor_A8F5
ENCODING 43253
SWIDTH 903 0
DWIDTH 24 0
BBX 24 24 0 -2
BITMAP
000000
000000
007F00
01FFC0
03C1E0
072E70
0EEFF8
0BEFD8
1CEC1C
18EF8C
18EBEC
18EEEC
18ECEC
18E0EC
1CE0FC
0CEDD8
0DFFF8
07F7B0
030060
01FFC0
007F00
000000
000000
000000
ENDCHAR

STARTCHAR kor_A8F6
ENCODING 43254
SWIDTH 903 0
DWIDTH 24 0
BBX 24 24 0 -2
BITMAP
000000
000000
038070
0F80F0
0F81E0
0381C0
0383C0
038780
038F00
038E00
0FDE00
0FFDE0
003BF0
007778
00F738
01E078
03C0F0
0381E0
0783C0
0F07B8
0E07F8
000000
000000
000000
ENDCHAR

STARTCHAR kor_A8F7
ENCODING 43255
SWIDTH 903 0
DWIDTH 24 0
BBX 24 24 0 -2
BITMAP
000000
000000
038070
0F80F0
0F81E0
0381C0
0383C0
038780
038F00
038E00
0FDE00
0FFDE0
003BF0
007778
00F738
01E0F8
03C0F0
038678
078738
0F07F8
0E03F0
000000
000000
000000
ENDCHAR

STARTCHAR kor_A8F8
ENCODING 43256
SWIDTH 903 0
DWIDTH 24 0
BBX 24 24 0 -2
BITMAP
000000
000000
03C070
07E0F0
0EF1E0
0E71C0
00F3C0
03E780
078F00
0F6E00
0FFE00
001DE0
007BF0
007778
00F738
01E0F8
03C0F0
038678
078738
0F07F8
0E03F0
000000
000000
000000
ENDCHAR

STARTCHAR kor_A8F9
ENCODING 43257
SWIDTH 903 0
DWIDTH 24 0
BBX 24 24 0 -2
BITMAP
000000
000000
038070
0F80F0
0F81E0
0381C0
0383C0
038780
038F00
038E00
0FDE00
0FFCE0
0039E0
0073E0
00F2E0
01E6E0
03C6E0
038FF8
078FF8
0F00E0
0E01F0
000000
000000
000000
ENDCHAR

STARTCHAR kor_A8FA
ENCODING 43258
SWIDTH 903 0
DWIDTH 24 0
BBX 24 24 0 -2
BITMAP
000000
000000
03C038
07E078
0EF0F0
0E70E0
01F1E0
01E3C0
0CF780
0E7700
0FFF00
07EEE0
001DE0
003BE0
007AE0
00F6E0
01E6E0
01CFF8
03CFF8
0780E0
0701F0
000000
000000
000000
ENDCHAR

STARTCHAR kor_A8FB
ENCODING 43259
SWIDTH 903 0
DWIDTH 24 0
BBX 24 24 0 -2
BITMAP
000000
000000
038070
0F80F0
0F81E0
0381C0
0383C0
038780
038F00
038E00
0FDE00
0FFDF0
003BF8
007738
00F738
01E7F8
03C1E0
038738
078738
0F07F8
0E03F0
000000
000000
000000
ENDCHAR

STARTCHAR kor_A8FC
ENCODING 43260
SWIDTH 903 0
DWIDTH 24 0
BBX 24 24 0 -2
BITMAP
000000
000000
03C038
07E078
0EF0F0
0E70E0
01F1E0
01E3C0
0CF780
0E7700
0FFF00
07EEF0
001DFC
003B9C
007B9C
00F3FC
01E0F0
01C39C
03C39C
0783FC
0701F8
000000
000000
000000
ENDCHAR

STARTCHAR kor_A8FD
ENCODING 43261
SWIDTH 903 0
DWIDTH 24 0
BBX 24 24 0 -2
BITMAP
000000
000000
0FF038
0FF078
0E00F0
0FC0E0
0FE1E0
0EF3C0
007780
0EF700
0FEF00
07DEF0
003DFC
003B9C
007B9C
00F3FC
01E0F0
01C39C
03C39C
0783FC
0701F8
000000
000000
000000
ENDCHAR

STARTCHAR kor_A8FE
ENCODING 43262
SWIDTH 903 0
DWIDTH 24 0
BBX 24 24 0 -2
BITMAP
000000
000000
0FF038
0FF078
0C70F0
0CE0E0
00E1E0
01C3C0
01C780
01C700
01CF00
01DEF0
003DFC
003B9C
007B9C
00F3FC
01E0F0
01C39C
03C39C
0783FC
0701F8
000000
000000
000000
ENDCHAR

STARTCHAR kor_A9A1
ENCODING 43425
SWIDTH 903 0
DWIDTH 24 0
BBX 24 24 0 -2
BITMAP
000000
000000
000000
000000
000000
000000
000000
03FBE0
07FFF0
0F1E78
0E1C38
001C38
001C78
01FFF0
07FFC0
0F1C00
0E1C00
0E1C00
0E3E38
0E3F78
0FF7F0
03F3E0
000000
000000
ENDCHAR

STARTCHAR kor_A9A2
ENCODING 43426
SWIDTH 903 0
DWIDTH 24 0
BBX 24 24 0 -2
BITMAP
000000
000000
0000E0
0001E0
0001E0
0000E0
007FFC
007FFC
0000E0
007EE0
01FFE0
01C3E0
03C1E0
0380E0
0380E0
0380E0
0380E0
03C1E0
03C3E0
01FFF0
007EF0
000000
000000
000000
ENDCHAR

STARTCHAR kor_A9A3
ENCODING 43427
SWIDTH 903 0
DWIDTH 24 0
BBX 24 24 0 -2
BITMAP
000000
000000
000000
000000
000000
000000
03F9C0
03FFC0
000F00
007F80
01F380
01C3C0
0001C0
0001C0
0FFFC0
0FFFC0
0E01C0
0F03C0
070380
078780
03FF00
00FC00
000000
000000
ENDCHAR

STARTCHAR kor_A9A4
ENCODING 43428
SWIDTH 903 0
DWIDTH 24 0
BBX 24 24 0 -2
BITMAP
000000
000000
000000
038000
078000
078000
1BFF00
1FFF00
038000
03FF80
037FC0
03E1E0
03C0E0
0380E0
0380E0
0380E0
0380E0
0380E0
0380E0
0FE3F8
0FE3F8
000000
000000
000000
ENDCHAR

STARTCHAR kor_A9A5
ENCODING 43429
SWIDTH 903 0
DWIDTH 24 0
BBX 24 24 0 -2
BITMAP
000000
000000
000000
001C00
007C00
007C00
001C00
001C00
001C00
001C00
001C00
001C00
001C00
001C00
001C00
001C00
001C00
001C00
001C00
007F00
007F00
000000
000000
000000
ENDCHAR

STARTCHAR kor_A9A6
ENCODING 43430
SWIDTH 903 0
DWIDTH 24 0
BBX 24 24 0 -2
BITMAP
000000
000000
000000
000000
0380E0
0380E0
0380E0
000000
0380E0
0781E0
0781E0
0380E0
0380E0
0380E0
0380E0
0380E0
0380E0
0380E0
03B8E0
0FB9E0
0FBFE0
001FE0
000FC0
000000
ENDCHAR

STARTCHAR kor_A9A7
ENCODING 43431
SWIDTH 903 0
DWIDTH 24 0
BBX 24 24 0 -2
BITMAP
000000
000000
000000
000000
000000
000000
0FE7E0
0FE7E0
038180
038F00
03BC00
03F800
035C00
03CE00
038700
038380
0FE1F0
0FE3F0
000000
000000
000000
000000
000000
000000
ENDCHAR

STARTCHAR kor_A9A8
ENCODING 43432
SWIDTH 903 0
DWIDTH 24 0
BBX 24 24 0 -2
BITMAP
000000
000000
000000
007000
01F000
01F000
007000
007000
007000
0071E0
0073F0
0073F0
0071E0
007000
007000
007000
007000
007000
007000
01FC00
01FC00
000000
000000
000000
ENDCHAR

STARTCHAR kor_A9A9
ENCODING 43433
SWIDTH 903 0
DWIDTH 24 0
BBX 24 24 0 -2
BITMAP
000000
000000
000000
001C00
007C00
007C00
001C00
001C00
001C00
001DE0
001FE0
007F00
03FC00
03DC00
001C00
001C00
001C00
001C00
001C00
007F00
007F00
000000
000000
000000
ENDCHAR

STARTCHAR kor_A9AA
ENCODING 43434
SWIDTH 903 0
DWIDTH 24 0
BBX 24 24 0 -2
BITMAP
000000
000000
0000C0
0001C0
007D80
01FF80
03C3C0
0385C0
078DE0
070CE0
071CE0
0718E0
0738E0
0730E0
0771E0
0361C0
03E3C0
01DF80
00FE00
018000
038000
030000
000000
000000
ENDCHAR

STARTCHAR kor_A9AB
ENCODING 43435
SWIDTH 903 0
DWIDTH 24 0
BBX 24 24 0 -2
BITMAP
000000
000000
000000
000000
000000
000000
000000
03C1F0
0FF7FC
1E771C
1C3F1E
3C3E0E
381C0E
381FFE
381FFE
381C00
381C00
3C3E00
1C3E0E
1E7F1E
0FF7FC
03C1F0
000000
000000
ENDCHAR

STARTCHAR kor_A9AC
ENCODING 43436
SWIDTH 903 0
DWIDTH 24 0
BBX 24 24 0 -2
BITMAP
000000
000000
000000
001E00
007F80
00F3C0
00C1C0
01C1C0
0183C0
018780
019F00
019C00
018780
0183C0
0181E0
0180E0
0180E0
01C0E0
01F3E0
017FC0
019F00
018000
000000
000000
ENDCHAR

STARTCHAR kor_A9AD
ENCODING 43437
SWIDTH 903 0
DWIDTH 24 0
BBX 24 24 0 -2
BITMAP
000000
000000
000000
07F000
07F000
01C000
01C000
01C000
01FF00
01FFC0
01C1E0
01C0E0
01C0E0
01C0E0
01C1E0
01C3C0
01FF80
01FE00
01C000
07F000
07F000
000000
000000
000000
ENDCHAR

STARTCHAR kor_A9AE
ENCODING 43438
SWIDTH 903 0
DWIDTH 24 0
BBX 24 24 0 -2
BITMAP
000000
000000
000000
003800
003FC0
0077C0
07FC00
07B800
007F80
01FF80
003800
003800
003800
003800
003800
003800
003800
0038C0
003CC0
001FC0
000F80
000000
000000
000000
ENDCHAR

STARTCHAR kor_A9AF
ENCODING 43439
SWIDTH 903 0
DWIDTH 24 0
BBX 24 24 0 -2
BITMAP
000000
000000
000000
01CF80
07FFC0
07B9E0
01E0E0
01C0E0
01C0E0
01C0E0
01C0E0
01C0E0
01C0E0
01C0E0
01C0E0
01C0E0
07F0E0
07F0E0
0000E0
0000E0
001FE0
001FC0
000F80
000000
ENDCHAR

STARTCHAR kor_A9B0
ENCODING 43440
SWIDTH 903 0
DWIDTH 24 0
BBX 24 24 0 -2
BITMAP
000000
000000
01E000
03E000
07C000
0F0000
1E0000
19CFC0
03FFE0
03B8F0
01E070
01C070
01C070
01C070
01C070
01C070
01C070
01C070
01C070
01C070
07F1FC
07F1FC
000000
000000
ENDCHAR

STARTCHAR kor_A9B1
ENCODING 43441
SWIDTH 903 0
DWIDTH 24 0
BBX 24 24 0 -2
BITMAP
000000
000000
018060
038070
070030
0E0038
0DFF18
1DFF9C
1801CC
1800CC
1800CC
1801CC
18038C
18070C
1C1E1C
0C7C18
0C7018
0E0038
070070
03C0E0
01C0C0
000000
000000
000000
ENDCHAR

STARTCHAR kor_A9B2
ENCODING 43442
SWIDTH 903 0
DWIDTH 24 0
BBX 24 24 0 -2
BITMAP
000000
000000
030060
070070
060030
0E0038
0D8018
1F801C
1B000C
1B000C
1B000C
1B000C
1B000C
1B000C
1F80DC
0DE1D8
0CFF98
0E3F38
070070
0380E0
0180C0
000000
000000
000000
ENDCHAR

STARTCHAR kor_A9B3
ENCODING 43443
SWIDTH 903 0
DWIDTH 24 0
BBX 24 24 0 -2
BITMAP
000000
000000
018060
038070
070030
0E0038
0DFFD8
1BFFDC
18C00C
18C00C
18C00C
18C00C
18C00C
18C0CC
1CE1DC
0C7F98
0E3F38
070070
03C0F0
01C0E0
000000
000000
000000
000000
ENDCHAR

STARTCHAR kor_A9B4
ENCODING 43444
SWIDTH 903 0
DWIDTH 24 0
BBX 24 24 0 -2
BITMAP
000000
000000
030060
070070
0E0030
0C0038
0CF018
1CF81C
181C0C
180C0C
18380C
18700C
18E00C
18C0CC
1CE0DC
0C79D8
0E3F98
060F38
070070
0380E0
0180C0
000000
000000
000000
ENDCHAR

STARTCHAR kor_A9B5
ENCODING 43445
SWIDTH 903 0
DWIDTH 24 0
BBX 24 24 0 -2
BITMAP
000000
000000
030060
070070
060030
0E0038
0D8018
1DBF1C
19FF8C
19618C
19818C
19838C
198F0C
199E0C
1D990C
0D9F1C
0E0018
060038
070070
0380E0
0180C0
000000
000000
000000
ENDCHAR

STARTCHAR kor_A9B6
ENCODING 43446
SWIDTH 903 0
DWIDTH 24 0
BBX 24 24 0 -2
BITMAP
000000
000000
030060
070070
060038
0E0018
0CC0DC
1DC0CC
1980CC
1980CC
199FCC
19BFCC
19B0CC
19B9CC
1DDF9C
0CCF18
0EC018
060038
070070
03C0E0
01C0C0
000000
000000
000000
ENDCHAR

STARTCHAR kor_A9B7
ENCODING 43447
SWIDTH 903 0
DWIDTH 24 0
BBX 24 24 0 -2
BITMAP
000000
000000
030060
070060
060070
0E0C38
0C0C18
1C1C18
181C1C
18180C
183C0C
187E0C
18E70C
19C38C
1B81DC
0F00D8
0C0038
0E0030
070070
0380E0
0180C0
000000
000000
000000
ENDCHAR

STARTCHAR kor_A9B8
ENCODING 43448
SWIDTH 903 0
DWIDTH 24 0
BBX 24 24 0 -2
BITMAP
000000
000000
030060
070070
060038
0E0018
0C0018
1C7E1C
18FF0C
19C38C
1B818C
1B018C
1B018C
1B838C
19FF0C
1CFE1C
0C0018
0E0038
070070
0381E0
0181C0
000000
000000
000000
ENDCHAR

STARTCHAR kor_A9B9
ENCODING 43449
SWIDTH 903 0
DWIDTH 24 0
BBX 24 24 0 -2
BITMAP
000000
000000
030060
070070
0E0030
0CF838
0DFE18
1D8F1C
18030C
18030C
18030C
18070C
181E0C
183BCC
1BF1DC
1FE058
0C0018
0E0038
070070
0380E0
0180C0
000000
000000
000000
ENDCHAR

STARTCHAR kor_A9BA
ENCODING 43450
SWIDTH 903 0
DWIDTH 24 0
BBX 24 24 0 -2
BITMAP
000000
000000
030060
070070
0E7030
0C7E38
0C3E18
1FC61C
1BF80C
180E0C
18060C
180E0C
181C0C
183A0C
1CFFDC
0DE3D8
0D8018
0E0038
070070
0380E0
0180C0
000000
000000
000000
ENDCHAR

STARTCHAR kor_A9BB
ENCODING 43451
SWIDTH 903 0
DWIDTH 24 0
BBX 24 24 0 -2
BITMAP
000000
000000
030060
070070
0E0030
0C0038
0DF818
1DFF1C
180F8C
1801CC
1800CC
19FFCC
19FFCC
1800CC
18038C
1C071C
0C1E18
0E1C38
070070
0380E0
0180C0
000000
000000
000000
ENDCHAR

STARTCHAR kor_A9BC
ENCODING 43452
SWIDTH 903 0
DWIDTH 24 0
BBX 24 24 0 -2
BITMAP
000000
000000
018060
038070
070038
0E0018
0DFF98
1BFF9C
18C00C
18FF8C
18FF8C
18C00C
18C00C
18C06C
18E0FC
1C7FD8
0C3F98
0E0038
070070
03C0E0
01C0C0
000000
000000
000000
ENDCHAR

STARTCHAR kor_A9BD
ENCODING 43453
SWIDTH 903 0
DWIDTH 24 0
BBX 24 24 0 -2
BITMAP
000000
000000
030060
070070
0E0030
0C0038
0FFFD8
1BFFDC
18600C
18630C
18670C
18660C
186E0C
186C0C
1BFFDC
0FFFD8
0C0018
0E0038
070070
03C0E0
01C0C0
000000
000000
000000
ENDCHAR

STARTCHAR kor_A9BE
ENCODING 43454
SWIDTH 903 0
DWIDTH 24 0
BBX 24 24 0 -2
BITMAP
000000
000000
018060
038070
070030
0E1C38
0C1F18
1C071C
19F80C
19FE0C
18070C
187F8C
18F18C
18C38C
1CFF1C
0C7E18
0E0038
070030
038070
01E0E0
00E0C0
000000
000000
000000
ENDCHAR

STARTCHAR kor_A9BF
ENCODING 43455
SWIDTH 903 0
DWIDTH 24 0
BBX 24 24 0 -2
BITMAP
000000
000000
0300C0
0700E0
060070
0E01B8
0C0198
1FF19C
1BF98C
18198C
1819EC
1839EC
18718C
18E18C
19C18C
1D81DC
0C01D8
0E00F8
070030
0380E0
0180C0
000000
000000
000000
ENDCHAR

STARTCHAR kor_A9C0
ENCODING 43456
SWIDTH 903 0
DWIDTH 24 0
BBX 24 24 0 -2
BITMAP
000000
000000
038060
078070
0E0038
0C0018
0C007C
1F00EC
1B00CC
1B00CC
1B00EC
1B01EC
1B03CC
1B8ECC
19FECC
1CFCDC
0C00D8
0E0078
070030
03C0E0
01C0C0
000000
000000
000000
ENDCHAR

STARTCHAR kor_A9C1
ENCODING 43457
SWIDTH 903 0
DWIDTH 24 0
BBX 24 24 0 -2
BITMAP
000000
000000
030060
070070
060038
0E0018
0C00DC
1FF8CC
17F8CC
1B00CC
1B01EC
1B03EC
1B86CC
19FECC
1CFCDC
0C00D8
0C0058
0E0038
070070
0380E0
0180C0
000000
000000
000000
ENDCHAR

STARTCHAR kor_A9C2
ENCODING 43458
SWIDTH 903 0
DWIDTH 24 0
BBX 24 24 0 -2
BITMAP
000000
000000
0300C0
0700E0
0E0070
0C0038
1C0198
1B819C
1BC18C
18C18C
19C3EC
1B87EC
1B1D8C
1BFD8C
19F18C
1C01DC
0C01D8
0E0038
070070
0380E0
0180C0
000000
000000
000000
ENDCHAR

STARTCHAR kor_A9C3
ENCODING 43459
SWIDTH 903 0
DWIDTH 24 0
BBX 24 24 0 -2
BITMAP
000000
000000
0300E0
0700F0
0E0030
0C01B8
0C0198
1F019C
1BF18C
1BF98C
1B19EC
1B39EC
1B718C
1BE98C
1AF98C
1C019C
0C0198
0E01B8
070070
0380E0
0180C0
000000
000000
000000
ENDCHAR

STARTCHAR kor_A9C4
ENCODING 43460
SWIDTH 903 0
DWIDTH 24 0
BBX 24 24 0 -2
BITMAP
000000
000000
030060
070070
0E0030
0C01B8
1C0198
1B199C
1B198C
1B79EC
1BF9EC
1AD98C
1BF98C
19F18C
1C019C
0C0198
0C01B8
0E0030
070070
03C0E0
01C0C0
000000
000000
000000
ENDCHAR

STARTCHAR kor_A9C5
ENCODING 43461
SWIDTH 903 0
DWIDTH 24 0
BBX 24 24 0 -2
BITMAP
000000
000000
030060
070070
0E0030
0C01B8
1C6198
18619C
18E18C
18C1EC
19E1EC
1B718C
1B398C
1B198C
1C019C
0C0198
0C01B8
0E0030
070070
0381E0
0181C0
000000
000000
000000
ENDCHAR

STARTCHAR kor_A9C6
ENCODING 43462
SWIDTH 903 0
DWIDTH 24 0
BBX 24 24 0 -2
BITMAP
000000
000000
030060
070070
0E0030
0C01B8
1C0198
19F19C
1BF98C
1B19EC
1B19EC
1BF98C
19F18C
18018C
1C019C
0C0198
0C01B8
0E0030
070070
0380E0
0180C0
000000
000000
000000
ENDCHAR

STARTCHAR kor_A9C7
ENCODING 43463
SWIDTH 903 0
DWIDTH 24 0
BBX 24 24 0 -2
BITMAP
000000
000000
038060
078070
0E0030
0C01B8
1FE198
1BF19C
18398C
1819EC
1871EC
18E98C
19BD8C
1B8D8C
1F019C
0C0198
0E01B8
070030
038070
01C1E0
00C1C0
000000
000000
000000
ENDCHAR

STARTCHAR kor_A9C8
ENCODING 43464
SWIDTH 903 0
DWIDTH 24 0
BBX 24 24 0 -2
BITMAP
000000
000000
018060
038070
070030
0EE1B8
0CF198
1F319C
1BE18C
1831EC
1871EC
18E18C
19B98C
19998C
1C019C
0C0198
0E01B8
060030
070070
0381E0
0181C0
000000
000000
000000
ENDCHAR

STARTCHAR kor_A9C9
ENCODING 43465
SWIDTH 903 0
DWIDTH 24 0
BBX 24 24 0 -2
BITMAP
000000
000000
0180C0
0380E0
070070
0E01B8
0D8198
1DE19C
18F18C
1839EC
1BD9EC
1BF98C
18198C
18F18C
18E19C
1C0198
0C01B8
0E0030
070070
03C1E0
01C1C0
000000
000000
000000
ENDCHAR

STARTCHAR kor_A9CA
ENCODING 43466
SWIDTH 903 0
DWIDTH 24 0
BBX 24 24 0 -2
BITMAP
000000
000000
030060
070070
0E0030
0C01B8
1C0198
1BF99C
17F98C
1B05EC
1BFDEC
1B018C
1B8D8C
1BFD8C
1DF99C
0C0198
0C01B8
0E0030
070070
03C1E0
01C1C0
000000
000000
000000
ENDCHAR

STARTCHAR kor_A9CB
ENCODING 43467
SWIDTH 903 0
DWIDTH 24 0
BBX 24 24 0 -2
BITMAP
000000
000000
0180E0
0380F0
070030
0E00F8
0C01D8
1FFD9C
1BFD8C
18D9EC
18F9EC
18B18C
1BFD8C
1BFD8C
1C019C
0C0198
0E01B8
060030
078070
03C1E0
00C1C0
000000
000000
000000
ENDCHAR

STARTCHAR kor_A9CC
ENCODING 43468
SWIDTH 903 0
DWIDTH 24 0
BBX 24 24 0 -2
BITMAP
000000
000000
0300E0
0700F0
0E0038
0C0198
1DE198
19F19C
1A318C
1BE1EC
18B9EC
1B998C
1B398C
1BF18C
1DE18C
0C019C
0C01B8
0E0030
070070
0381E0
0181C0
000000
000000
000000
ENDCHAR

STARTCHAR kor_A9CD
ENCODING 43469
SWIDTH 903 0
DWIDTH 24 0
BBX 24 24 0 -2
BITMAP
000000
060030
0E0038
0C0018
1C001C
18000C
18000C
38000E
300006
303F06
307F86
30E1C6
30E1C6
301FC6
30FFC6
38E1CE
18E1CC
18E3EC
1C7FBC
0C3ED8
0E0038
060030
000000
000000
ENDCHAR

STARTCHAR kor_A9CE
ENCODING 43470
SWIDTH 903 0
DWIDTH 24 0
BBX 24 24 0 -2
BITMAP
000000
060030
0E0038
0C0018
1CE01C
1BE00C
1BE00C
38E00E
30E006
30EF06
30FF86
30FBC6
30E1C6
30E1C6
30E1C6
38E1CE
18E1CC
18F3CC
1CFF9C
0CDF18
0E0038
060030
000000
000000
ENDCHAR

STARTCHAR kor_A9CF
ENCODING 43471
SWIDTH 903 0
DWIDTH 24 0
BBX 24 24 0 -2
BITMAP
000000
060030
0E0038
0C0018
1C001C
18000C
18000C
38000E
300006
303F06
307F86
30F1C6
30E1C6
30E1C6
30E006
38E00E
18E0CC
18F1CC
1C7F9C
0C3F18
0E0038
060030
000000
000000
ENDCHAR

STARTCHAR kor_A9D0
ENCODING 43472
SWIDTH 903 0
DWIDTH 24 0
BBX 24 24 0 -2
BITMAP
000000
060030
0E0038
0C0018
1C01DC
1807CC
1807CC
3801CE
3001C6
303DC6
307FC6
30F7C6
30E1C6
30E1C6
30E1C6
38E1CE
18E1CC
18F3CC
1C7FDC
0C3ED8
0E0038
060030
000000
000000
ENDCHAR

STARTCHAR kor_A9D1
ENCODING 43473
SWIDTH 903 0
DWIDTH 24 0
BBX 24 24 0 -2
BITMAP
000000
060030
0E0038
0C0018
1C001C
18000C
18000C
38000E
300006
303F06
307F86
30F3C6
30E1C6
30FFC6
30FFC6
38E00E
18E0CC
18F1CC
1C7F9C
0C3F18
0E0038
060030
000000
000000
ENDCHAR

STARTCHAR kor_A9D2
ENCODING 43474
SWIDTH 903 0
DWIDTH 24 0
BBX 24 24 0 -2
BITMAP
000000
060030
0E0038
0C0018
1C079C
180FEC
181CEC
381CEE
301C06
30FF86
30FF86
301C06
301C06
301C06
301C06
381C0E
181C0C
181C0C
1C7F1C
0C7F18
0E0038
060030
000000
000000
ENDCHAR

STARTCHAR kor_A9D3
ENCODING 43475
SWIDTH 903 0
DWIDTH 24 0
BBX 24 24 0 -2
BITMAP
000000
060030
0E0038
0C0018
1C001C
18000C
18000C
3800EE
307DE6
30FFE6
30E706
30E386
30FF86
303F06
307006
38BF8E
19EFCC
19C3CC
1DC1DC
0DE3D8
0EFFB8
067F30
000000
000000
ENDCHAR

STARTCHAR kor_A9D4
ENCODING 43476
SWIDTH 903 0
DWIDTH 24 0
BBX 24 24 0 -2
BITMAP
000000
060030
0E0038
0C0018
1CE01C
1BE00C
1BE00C
38E00E
30E006
30FF06
30DF86
30FBC6
30E1C6
30E1C6
30E1C6
38E1CE
18E1CC
18E1CC
1BFBDC
0FFBD8
0C0038
060030
000000
000000
ENDCHAR

STARTCHAR kor_A9D5
ENCODING 43477
SWIDTH 903 0
DWIDTH 24 0
BBX 24 24 0 -2
BITMAP
000000
060030
0E0038
0C0018
1C1C1C
181C0C
181C0C
381C0E
300006
307C06
307C06
301C06
301C06
301C06
301C06
381C0E
181C0C
181C0C
1C7F1C
0C7F18
0E0038
060030
000000
000000
ENDCHAR

STARTCHAR kor_A9D6
ENCODING 43478
SWIDTH 903 0
DWIDTH 24 0
BBX 24 24 0 -2
BITMAP
000000
060030
0E0038
0C0018
1C0E1C
180E0C
180E0C
380E0E
300006
303E06
303E06
300E06
300E06
300E06
300E06
380E0E
180E0C
19CE0C
1DCE1C
0DDE18
0EFC38
067830
000000
000000
ENDCHAR

STARTCHAR kor_A9D7
ENCODING 43479
SWIDTH 903 0
DWIDTH 24 0
BBX 24 24 0 -2
BITMAP
000000
060030
0E0038
0C0018
1FF01C
1BF00C
18E00C
38E00E
30E006
30E7C6
30E7C6
30E306
30EE06
30FC06
30F806
38FE0E
18EF0C
18E78C
1BF3DC
0FF7D8
0C0038
060030
000000
000000
ENDCHAR

STARTCHAR kor_A9D8
ENCODING 43480
SWIDTH 903 0
DWIDTH 24 0
BBX 24 24 0 -2
BITMAP
000000
060030
0E0038
0C0018
1C1C1C
187C0C
187C0C
381C0E
301C06
301C06
301C06
301C06
301C06
301C06
301C06
381C0E
181C0C
181C0C
1C7F1C
0C7F18
0E0038
060030
000000
000000
ENDCHAR

STARTCHAR kor_A9D9
ENCODING 43481
SWIDTH 903 0
DWIDTH 24 0
BBX 24 24 0 -2
BITMAP
000000
060030
0E0038
0C0018
1C001C
18000C
18000C
38000E
300006
317786
37FFC6
37DDC6
31DDC6
31DDC6
31DDC6
39DDCE
19DDCC
19DDCC
1FDFDC
0FDBD8
0C0038
060030
000000
000000
ENDCHAR

STARTCHAR kor_A9DA
ENCODING 43482
SWIDTH 903 0
DWIDTH 24 0
BBX 24 24 0 -2
BITMAP
000000
060030
0E0038
0C0018
1C001C
18000C
18000C
38000E
300006
30DE06
33FF06
33F786
30E386
30E386
30E386
38E38E
18E38C
18E38C
1BF7DC
0FF7D8
0C0038
060030
000000
000000
ENDCHAR

STARTCHAR kor_A9DB
ENCODING 43483
SWIDTH 903 0
DWIDTH 24 0
BBX 24 24 0 -2
BITMAP
000000
060030
0E0038
0C0018
1C001C
18000C
18000C
38000E
300006
303E06
30FF86
31E3C6
31E3C6
31C1C6
31C1C6
39C1CE
19E3CC
19E3CC
1CFF9C
0C3E18
0E0038
060030
000000
000000
ENDCHAR

STARTCHAR kor_A9DC
ENCODING 43484
SWIDTH 903 0
DWIDTH 24 0
BBX 24 24 0 -2
BITMAP
000000
060030
0E0038
0C0018
1C001C
18000C
18000C
38000E
30DF06
33FF86
33F3C6
30E1C6
30E1C6
30E1C6
30E1C6
38F3CE
18FF8C
18DF0C
1CE01C
0CE018
0FF838
07F830
000000
000000
ENDCHAR

STARTCHAR kor_A9DD
ENCODING 43485
SWIDTH 903 0
DWIDTH 24 0
BBX 24 24 0 -2
BITMAP
000000
060030
0E0038
0C0018
1C001C
18000C
18000C
38000E
307D86
30FF86
31E786
31C386
31C386
31C386
31C386
39E78E
18FF8C
187B8C
1C039C
0C0398
0E0FF8
060FF0
000000
000000
ENDCHAR

STARTCHAR kor_A9DE
ENCODING 43486
SWIDTH 903 0
DWIDTH 24 0
BBX 24 24 0 -2
BITMAP
000000
060030
0E0038
0C0018
1C001C
18000C
18000C
38000E
300006
303BC6
30FFE6
30F7F6
303E76
303C76
303C06
38380E
18380C
18380C
1CFE1C
0CFE18
0E0038
060030
000000
000000
ENDCHAR

STARTCHAR kor_A9DF
ENCODING 43487
SWIDTH 903 0
DWIDTH 24 0
BBX 24 24 0 -2
BITMAP
000000
060030
0E0038
0C0018
1C001C
18000C
18000C
38000E
300006
303EC6
30FFC6
30F1C6
30E0C6
30FEC6
303F06
380FCE
18C3CC
18E1CC
1CFFDC
0CBF18
0E0038
060030
000000
000000
ENDCHAR

STARTCHAR kor_A9E0
ENCODING 43488
SWIDTH 903 0
DWIDTH 24 0
BBX 24 24 0 -2
BITMAP
000000
060030
0E0038
0C0018
1C381C
18380C
18380C
38380E
303806
31FF86
31FF86
303806
303806
303806
3038C6
3838CE
1839CC
181F8C
1C0F1C
0C0018
0E0038
060030
000000
000000
ENDCHAR

STARTCHAR kor_A9E1
ENCODING 43489
SWIDTH 903 0
DWIDTH 24 0
BBX 24 24 0 -2
BITMAP
000000
060030
0E0038
0C0018
1C001C
18000C
18000C
38000E
300006
30E1C6
33E3C6
33E3C6
30E1C6
30E1C6
30E1C6
38E1CE
18E1CC
18F3CC
1C7FDC
0C3ED8
0E0038
060030
000000
000000
ENDCHAR

STARTCHAR kor_A9E2
ENCODING 43490
SWIDTH 903 0
DWIDTH 24 0
BBX 24 24 0 -2
BITMAP
000000
060030
0E0038
0C0018
1C001C
18000C
18000C
38000E
300006
33F1F6
33F1F6
31E0C6
30F1C6
307186
307B86
383B0E
183F0C
181E0C
1C0E1C
0C0C18
0E0038
060030
000000
000000
ENDCHAR

STARTCHAR kor_A9E3
ENCODING 43491
SWIDTH 903 0
DWIDTH 24 0
BBX 24 24 0 -2
BITMAP
000000
060030
0E0038
0C0018
1C001C
18000C
18000C
38000E
300006
37DEF6
37DEF6
31DC66
31FE66
30EEE6
30EEC6
38FECE
1877CC
18778C
1C339C
0C3318
0E0038
060030
000000
000000
ENDCHAR

STARTCHAR kor_A9E4
ENCODING 43492
SWIDTH 903 0
DWIDTH 24 0
BBX 24 24 0 -2
BITMAP
000000
060030
0E0038
0C0018
1C001C
18000C
18000C
38000E
300006
31F3C6
31F3C6
30E186
307706
303E06
301C06
383E0E
186F0C
18E78C
1DC3DC
0DE7D8
0E0038
060030
000000
000000
ENDCHAR

STARTCHAR kor_A9E5
ENCODING 43493
SWIDTH 903 0
DWIDTH 24 0
BBX 24 24 0 -2
BITMAP
000000
060030
0E0038
0C0018
1C001C
18000C
18000C
38000E
300006
30F9E6
30F9E6
3070C6
303986
303B86
301B06
381F0E
180E0C
18060C
1DCC1C
0DDC18
0FF838
06F030
000000
000000
ENDCHAR

STARTCHAR kor_A9E6
ENCODING 43494
SWIDTH 903 0
DWIDTH 24 0
BBX 24 24 0 -2
BITMAP
000000
060030
0E0038
0C0018
1C001C
18000C
18000C
38000E
300006
30FF86
30FF86
31C386
318F06
301E06
303C06
38780E
18F18C
19E38C
1DDF1C
0DFF18
0E0038
060030
000000
000000
ENDCHAR

STARTCHAR kor_A9E7
ENCODING 43495
SWIDTH 903 0
DWIDTH 24 0
BBX 24 24 0 -2
BITMAP
000000
060030
0E0038
0C0018
1C1C1C
183C0C
18FC0C
38FC0E
301C06
301C06
301C06
301C06
301C06
301C06
301C06
381C0E
181C0C
181C0C
1CFF9C
0CFF98
0E0038
060030
000000
000000
ENDCHAR

STARTCHAR kor_A9E8
ENCODING 43496
SWIDTH 903 0
DWIDTH 24 0
BBX 24 24 0 -2
BITMAP
000000
060030
0E0038
0C0018
1C3E1C
187F8C
18F3CC
38C1CE
30C1C6
3003C6
300386
300786
300706
300E06
301C06
38380E
1870CC
18E0CC
1CDFDC
0CFFD8
0E0038
060030
000000
000000
ENDCHAR

STARTCHAR kor_A9E9
ENCODING 43497
SWIDTH 903 0
DWIDTH 24 0
BBX 24 24 0 -2
BITMAP
000000
060030
0E0038
0C0018
1C3F1C
187F8C
18F3CC
38E1CE
3001C6
3001C6
301F86
301F06
3007C6
3003C6
3001C6
3801CE
19C1CC
19E3CC
1CFF9C
0C7F18
0E0038
060030
000000
000000
ENDCHAR

STARTCHAR kor_A9EA
ENCODING 43498
SWIDTH 903 0
DWIDTH 24 0
BBX 24 24 0 -2
BITMAP
000000
060030
0E0038
0C0018
1C071C
18070C
180F0C
381F0E
301706
303706
307706
306706
30E706
31C706
31BFE6
39FFEE
18070C
18070C
1C1FDC
0C1FD8
0E0018
060000
000000
000000
ENDCHAR

STARTCHAR kor_A9EB
ENCODING 43499
SWIDTH 903 0
DWIDTH 24 0
BBX 24 24 0 -2
BITMAP
000000
060030
0E0038
0C0018
1CFFDC
18FFCC
18FF0C
38C00E
30C006
30C006
30FF06
30BF86
30E3C6
30C1C6
3001C6
3801CE
18C1CC
18E3CC
1C7F9C
0C3E18
0E0038
060030
000000
000000
ENDCHAR

STARTCHAR kor_A9EC
ENCODING 43500
SWIDTH 903 0
DWIDTH 24 0
BBX 24 24 0 -2
BITMAP
000000
060030
0E0038
0C0018
1C3F1C
187F8C
18F1CC
38E0CE
30E006
30FF06
30DF86
30F3C6
30E1C6
30E1C6
30E1C6
38E1CE
18F1CC
187BCC
1C7F9C
0C1F18
0E0038
060030
000000
000000
ENDCHAR

STARTCHAR kor_A9ED
ENCODING 43501
SWIDTH 903 0
DWIDTH 24 0
BBX 24 24 0 -2
BITMAP
000000
060030
0E0038
0C0018
1CFFDC
18FFCC
18FFCC
38C0CE
30C186
30C386
300306
300706
300606
300E06
300E06
381E0E
181C0C
181C0C
1C1C1C
0C1C18
0E0038
060030
000000
000000
ENDCHAR

STARTCHAR kor_A9EE
ENCODING 43502
SWIDTH 903 0
DWIDTH 24 0
BBX 24 24 0 -2
BITMAP
000000
060030
0E0038
0C0018
1C3F1C
187F8C
18F3CC
38E1CE
30E1C6
30F3C6
307F86
303F06
30FFC6
31F3E6
31C0E6
39C0EE
19E1EC
19E1EC
1CFFDC
0C3F18
0E0038
060030
000000
000000
ENDCHAR

STARTCHAR kor_A9EF
ENCODING 43503
SWIDTH 903 0
DWIDTH 24 0
BBX 24 24 0 -2
BITMAP
000000
060030
0E0038
0C0018
1C1F1C
187F8C
18F3CC
38E1CE
30E1C6
30E1C6
30E1C6
30F3C6
307FC6
303DC6
3001C6
3801CE
18C1CC
18E3CC
1C7F9C
0C3F18
0E0038
060030
000000
000000
ENDCHAR

STARTCHAR kor_A9F0
ENCODING 43504
SWIDTH 903 0
DWIDTH 24 0
BBX 24 24 0 -2
BITMAP
000000
060030
0E0038
0C0018
1DC3DC
1BC7EC
1FCEEC
37CE7E
31CE76
31CE76
31CE76
31CE76
31CE76
31CE76
31CE76
39CE7E
19CE6C
19CEEC
1FF7FC
0FF3D8
0C0038
060030
000000
000000
ENDCHAR

STARTCHAR kor_A9F1
ENCODING 43505
SWIDTH 903 0
DWIDTH 24 0
BBX 24 24 0 -2
BITMAP
000000
060030
0E0038
0C0018
1CE1DC
19E3CC
1BE7CC
3BE7CE
30E1C6
30E1C6
30E1C6
30E1C6
30E1C6
30E1C6
30E1C6
38E1CE
18E1CC
18E1CC
1BF7FC
0FF7F8
0C0018
060030
000000
000000
ENDCHAR

STARTCHAR kor_A9F2
ENCODING 43506
SWIDTH 903 0
DWIDTH 24 0
BBX 24 24 0 -2
BITMAP
000000
060030
0E0038
0C0018
1DCF9C
1BDFCC
1FFDEC
37B8EE
31F8E6
31C0E6
31C0C6
31C1C6
31C386
31C706
31CE06
39CC6E
19DC6C
19D86C
1FFFFC
0FFFD8
0C0038
060030
000000
000000
ENDCHAR

STARTCHAR kor_A9F3
ENCODING 43507
SWIDTH 903 0
DWIDTH 24 0
BBX 24 24 0 -2
BITMAP
000000
060030
0E0038
0C0018
1DCF9C
1BDFCC
1FFDEC
37B8EE
31C0E6
31C0E6
31C7C6
31C786
31C0E6
31C0E6
31C0E6
39C0EE
19F0EC
19B9EC
1FDFDC
0FEF98
0C0038
060030
000000
000000
ENDCHAR

STARTCHAR kor_A9F4
ENCODING 43508
SWIDTH 903 0
DWIDTH 24 0
BBX 24 24 0 -2
BITMAP
000000
060030
0E0038
0C0018
1DC1DC
1BC1CC
1FC3CC
37C3CE
31C7C6
31C5C6
31C5C6
31CDC6
31CDC6
31DDC6
31D9C6
39FFEE
19BFEC
19C1CC
1FF7FC
0FF7F8
0C0018
060030
000000
000000
ENDCHAR

STARTCHAR kor_A9F5
ENCODING 43509
SWIDTH 903 0
DWIDTH 24 0
BBX 24 24 0 -2
BITMAP
000000
060030
0E0038
0C0018
1DDFFC
1BDFEC
1FDFEC
37DC0E
31DC06
31DC06
31DF86
31DBE6
31DEE6
31D876
31C076
39C07E
19D86C
19DCEC
1FEFFC
0FF798
0C0038
060030
000000
000000
ENDCHAR

STARTCHAR kor_A9F6
ENCODING 43510
SWIDTH 903 0
DWIDTH 24 0
BBX 24 24 0 -2
BITMAP
000018
000078
000078
000018
000018
000018
000018
00007E
00007E
000000
000000
000000
000000
000000
000000
000000
000000
000000
000000
000000
000000
000000
000000
000000
ENDCHAR

STARTCHAR kor_A9F7
ENCODING 43511
SWIDTH 903 0
DWIDTH 24 0
BBX 24 24 0 -2
BITMAP
00003E
00007F
000063
000007
00000E
00001C
000038
000077
00007F
000000
000000
000000
000000
000000
000000
000000
000000
000000
000000
000000
000000
000000
000000
000000
ENDCHAR

STARTCHAR kor_A9F8
ENCODING 43512
SWIDTH 903 0
DWIDTH 24 0
BBX 24 24 0 -2
BITMAP
00003E
00007F
000063
00000F
00000E
000003
000063
00007F
00003E
000000
000000
000000
000000
000000
000000
000000
000000
000000
000000
000000
000000
000000
000000
000000
ENDCHAR

STARTCHAR kor_A9F9
ENCODING 43513
SWIDTH 903 0
DWIDTH 24 0
BBX 24 24 0 -2
BITMAP
00000C
00001C
00003C
00002C
00006C
0000FF
0000FF
00000C
00001E
000000
000000
000000
000000
000000
000000
000000
000000
000000
000000
000000
000000
000000
000000
000000
ENDCHAR

STARTCHAR kor_A9FA
ENCODING 43514
SWIDTH 903 0
DWIDTH 24 0
BBX 24 24 0 -2
BITMAP
0001BC
0001FE
0000E6
0000C6
0000C6
0000C6
0000C6
0001EF
0001EF
000000
000000
000000
000000
000000
000000
000000
000000
000000
000000
000000
000000
000000
000000
000000
ENDCHAR

STARTCHAR kor_A9FB
ENCODING 43515
SWIDTH 903 0
DWIDTH 24 0
BBX 24 24 0 -2
BITMAP
000000
000000
000000
000000
000000
000000
000000
000000
000000
000000
000000
000000
000000
000000
000018
000078
000078
000018
000018
000018
000018
00007E
00007E
000000
ENDCHAR

STARTCHAR kor_A9FC
ENCODING 43516
SWIDTH 903 0
DWIDTH 24 0
BBX 24 24 0 -2
BITMAP
000000
000000
000000
000000
000000
000000
000000
000000
000000
000000
000000
000000
000000
000000
00003E
00007F
000063
000007
00000E
00001C
000038
000077
00007F
000000
ENDCHAR

STARTCHAR kor_A9FD
ENCODING 43517
SWIDTH 903 0
DWIDTH 24 0
BBX 24 24 0 -2
BITMAP
000000
000000
000000
000000
000000
000000
000000
000000
000000
000000
000000
000000
000000
000000
00003E
00007F
000063
00000F
00000E
000003
000063
00007F
00003E
000000
ENDCHAR

STARTCHAR kor_A9FE
ENCODING 43518
SWIDTH 903 0
DWIDTH 24 0
BBX 24 24 0 -2
BITMAP
000000
000000
000000
000000
000000
000000
000000
000000
000000
000000
000000
000000
000000
000000
00000C
00001C
00003C
00002C
00006C
0000FF
0000FF
00000C
00001E
000000
ENDCHAR

STARTCHAR kor_AAA1
ENCODING 43681
SWIDTH 903 0
DWIDTH 24 0
BBX 24 24 0 -2
BITMAP
000000
000000
000000
000000
006000
007800
003800
003F80
07F780
07FF00
006000
006600
007F80
01FFE0
03E6F0
076C78
077C38
0E5838
0CF038
0DF078
0FB0F0
0F37E0
000780
000000
ENDCHAR

STARTCHAR kor_AAA2
ENCODING 43682
SWIDTH 903 0
DWIDTH 24 0
BBX 24 24 0 -2
BITMAP
00E000
00F800
007800
007380
187FC0
1FFFC0
0FFE00
00E000
00C700
00FF00
01BFC0
03EDF0
06DC78
0E1C38
1CF83C
38B01C
30E01C
31E03C
377038
3F7078
3E70F0
3803E0
000380
000000
ENDCHAR

STARTCHAR kor_AAA3
ENCODING 43683
SWIDTH 903 0
DWIDTH 24 0
BBX 24 24 0 -2
BITMAP
000000
000000
000000
000000
000000
000000
000000
000000
0C0000
0E0380
0603E0
0600E0
060070
060070
063038
067038
076038
07E0F8
02C0F8
03C038
03C000
01C000
000000
000000
ENDCHAR

STARTCHAR kor_AAA4
ENCODING 43684
SWIDTH 903 0
DWIDTH 24 0
BBX 24 24 0 -2
BITMAP
000000
000000
300000
380000
1801C0
1C01E0
1C0070
1C0038
1C0038
1C001C
1C001C
1C601C
1C600E
1CE00E
1EE03E
0FC03E
0DC01E
0F800E
078000
078000
038000
000000
000000
000000
ENDCHAR

STARTCHAR kor_AAA5
ENCODING 43685
SWIDTH 903 0
DWIDTH 24 0
BBX 24 24 0 -2
BITMAP
000000
000000
000000
000000
003000
003C00
001F00
000F00
000700
000000
018F00
01FF80
00FBC0
00E1C0
0001C0
0001C0
0001C0
0003C0
000380
000780
000F00
003E00
003800
000000
ENDCHAR

STARTCHAR kor_AAA6
ENCODING 43686
SWIDTH 903 0
DWIDTH 24 0
BBX 24 24 0 -2
BITMAP
007000
007E00
001F80
000780
000380
000000
000000
001F00
067F80
07F9C0
03E0E0
0380E0
0000E0
0000E0
0000E0
0000E0
0001E0
0001C0
0003C0
000780
001F00
00FC00
00F000
000000
ENDCHAR

STARTCHAR kor_AAA7
ENCODING 43687
SWIDTH 903 0
DWIDTH 24 0
BBX 24 24 0 -2
BITMAP
000000
000000
000000
000000
001800
001E00
000F80
000780
000380
000000
00CF80
00FF80
007B80
006700
001E00
003C00
007800
00F000
01DC00
03CE00
03CFF8
0387F8
0003F0
000000
ENDCHAR

STARTCHAR kor_AAA8
ENCODING 43688
SWIDTH 903 0
DWIDTH 24 0
BBX 24 24 0 -2
BITMAP
003000
003C00
001F00
000F00
000700
000000
000300
031F80
03FF80
01FB80
01C700
001E00
003C00
007000
00E000
01E000
03D000
077800
0F1800
1F1C00
1E1FFC
1C0FFC
0003FC
000000
ENDCHAR

STARTCHAR kor_AAA9
ENCODING 43689
SWIDTH 903 0
DWIDTH 24 0
BBX 24 24 0 -2
BITMAP
000000
000000
000000
000000
000000
018000
01E000
00E000
00E1E0
00DDF8
06FC38
07FC78
03C060
00CF80
00FFE0
00B8F0
01E070
03C070
17C070
1EC0F0
0FCFE0
05CF80
00C000
000000
ENDCHAR

STARTCHAR kor_AAAA
ENCODING 43690
SWIDTH 903 0
DWIDTH 24 0
BBX 24 24 0 -2
BITMAP
038000
03E000
01E000
01C070
01C07C
01DC1E
39FC0E
3FFC3E
1FE038
018000
0183E0
019FF8
01FE7C
01701E
03C00E
07800E
6F800E
7D801E
7D803C
3FCCFC
17CFF8
03C7E0
018000
000000
ENDCHAR

STARTCHAR kor_AAAB
ENCODING 43691
SWIDTH 903 0
DWIDTH 24 0
BBX 24 24 0 -2
BITMAP
01C000
01E000
00F000
00F000
00E000
00C0E0
01FCF8
67FF3C
7FC71E
7D830E
3B830F
03830F
07037F
07077F
0F070E
0E0700
1E0E00
1C0E00
3D9E00
79FC00
78FC00
707800
007000
000000
ENDCHAR

STARTCHAR kor_AAAC
ENCODING 43692
SWIDTH 903 0
DWIDTH 24 0
BBX 24 24 0 -2
BITMAP
01C00F
01E077
00F07F
00F038
00E038
00C1C0
01FDF0
67FE78
7FC73C
7D831C
3B831E
03831E
07037E
07077E
0F071C
0E0700
1E0E00
1C0E00
3D9E00
79FC00
78FC00
707800
007000
000000
ENDCHAR

STARTCHAR kor_AAAD
ENCODING 43693
SWIDTH 903 0
DWIDTH 24 0
BBX 24 24 0 -2
BITMAP
01E000
01F000
00F780
187F80
1FBF00
0FF800
079CF0
000FF0
0C1FE0
0FFE00
07F380
0383C0
0001E0
00FCF0
03FFF0
0787F0
0E0070
0C0000
0E0000
0F8000
07FF00
03FF00
00FF00
000000
ENDCHAR

STARTCHAR kor_AAAE
ENCODING 43694
SWIDTH 903 0
DWIDTH 24 0
BBX 24 24 0 -2
BITMAP
03C00E
03C00F
01E077
00EF7F
30FF38
3F7E38
1FF000
0F3DE0
101FE0
1FFF80
0FE600
070780
0003C0
01F9E0
07FFE0
0F0FE0
1C00E0
180000
1C0000
1F0000
0FFE00
07FE00
01FE00
000000
ENDCHAR

STARTCHAR kor_AAAF
ENCODING 43695
SWIDTH 903 0
DWIDTH 24 0
BBX 24 24 0 -2
BITMAP
0000C0
0000E0
0001E0
0003E0
000FC0
003F00
007C00
01F000
07C000
0F0000
0C0000
0E0000
078000
03E000
01F000
007800
003E00
001F00
000F80
0007C0
0003E0
0001E0
0000E0
000000
ENDCHAR

STARTCHAR kor_AAB0
ENCODING 43696
SWIDTH 903 0
DWIDTH 24 0
BBX 24 24 0 -2
BITMAP
000300
000380
00078E
000F8F
001F77
003E7F
00F838
03E038
0F8000
1E0000
180000
1C0000
0F0000
07C000
03E000
00F000
007C00
003E00
001F00
000F00
000780
000780
000380
000000
ENDCHAR

STARTCHAR kor_AAB1
ENCODING 43697
SWIDTH 903 0
DWIDTH 24 0
BBX 24 24 0 -2
BITMAP
1C0780
1E07E0
0E01E0
0E00E0
1E00E0
1C00EE
1CC3FF
1CFFFF
187FE0
3838E0
3800E0
3B00E0
3B00E0
3F00E0
3601C0
3E01C0
1E01C0
1C01C0
1C0380
1C0380
0C0700
000E00
000C00
000000
ENDCHAR

STARTCHAR kor_AAB2
ENCODING 43698
SWIDTH 903 0
DWIDTH 24 0
BBX 24 24 0 -2
BITMAP
38000F
3C1E77
1C1FFF
1C07B8
3C03B8
380380
38039C
3B0FFE
33FFFE
71FF80
70E380
760380
760380
760380
7E0700
6C0700
7C0700
3C0700
380E00
380E00
381C00
183800
003000
000000
ENDCHAR

STARTCHAR kor_AAB3
ENCODING 43699
SWIDTH 903 0
DWIDTH 24 0
BBX 24 24 0 -2
BITMAP
000000
030000
03F800
01FFE0
007FE0
0007E0
007E00
007000
000000
000000
000000
000000
000000
0C0000
1C0000
180000
180000
180000
1E0000
0FFFF8
07FFF8
01FFF8
000000
000000
ENDCHAR

STARTCHAR kor_AAB4
ENCODING 43700
SWIDTH 903 0
DWIDTH 24 0
BBX 24 24 0 -2
BITMAP
00000E
00000F
060077
07F07F
03FFB8
00FFB8
000F80
00FC00
00E000
000000
000000
000000
000000
0C0000
1C0000
180000
180000
180000
1E0000
0FFFF0
07FFF0
01FFF0
000000
000000
ENDCHAR

ENDFONT
